<mxfile host="app.diagrams.net" modified="2024-07-25T06:18:58.832Z" agent="Mozilla/5.0 (Windows NT 10.0; Win64; x64) AppleWebKit/537.36 (KHTML, like Gecko) Chrome/126.0.0.0 Safari/537.36" etag="hpA0QfKlJtmws1c-6uY6" version="24.6.4" type="device">
  <diagram name="Страница — 1" id="BXOZgFZ0woUrctJBkeRY">
    <mxGraphModel dx="3232" dy="1982" grid="1" gridSize="10" guides="1" tooltips="1" connect="1" arrows="1" fold="1" page="1" pageScale="1" pageWidth="827" pageHeight="1169" math="0" shadow="0">
      <root>
        <mxCell id="0" />
        <mxCell id="1" parent="0" />
        <mxCell id="dLLO4N_0DPD6AMVL1Fj_-10" value="" style="rounded=0;whiteSpace=wrap;html=1;fillColor=#f5f5f5;fontColor=#333333;strokeColor=#666666;" parent="1" vertex="1">
          <mxGeometry x="640" y="-1100" width="480" height="40" as="geometry" />
        </mxCell>
        <mxCell id="dLLO4N_0DPD6AMVL1Fj_-11" value="" style="rounded=0;whiteSpace=wrap;html=1;fillColor=#f5f5f5;fontColor=#333333;strokeColor=#666666;" parent="1" vertex="1">
          <mxGeometry x="400" y="-975" width="960" height="40" as="geometry" />
        </mxCell>
        <mxCell id="dLLO4N_0DPD6AMVL1Fj_-14" value="&lt;font style=&quot;font-size: 17px;&quot;&gt;Темы&lt;/font&gt;" style="text;html=1;align=center;verticalAlign=middle;whiteSpace=wrap;rounded=0;fontStyle=1" parent="1" vertex="1">
          <mxGeometry x="850" y="-970" width="60" height="30" as="geometry" />
        </mxCell>
        <mxCell id="dLLO4N_0DPD6AMVL1Fj_-18" value="&lt;span style=&quot;font-size: 17px;&quot;&gt;Миссии Теймурока-Яркена&lt;/span&gt;" style="text;html=1;align=center;verticalAlign=middle;whiteSpace=wrap;rounded=0;fontStyle=1" parent="1" vertex="1">
          <mxGeometry x="755" y="-1095" width="250" height="30" as="geometry" />
        </mxCell>
        <mxCell id="dLLO4N_0DPD6AMVL1Fj_-19" value="" style="rounded=0;whiteSpace=wrap;html=1;fillColor=#f5f5f5;fontColor=#333333;strokeColor=#666666;" parent="1" vertex="1">
          <mxGeometry x="400" y="-920" width="160" height="160" as="geometry" />
        </mxCell>
        <mxCell id="dLLO4N_0DPD6AMVL1Fj_-20" value="&lt;font style=&quot;font-size: 17px;&quot;&gt;Соседям не нравится что у них на границах некромант/зомби&lt;/font&gt;" style="text;html=1;align=center;verticalAlign=middle;whiteSpace=wrap;rounded=0;fontStyle=1" parent="1" vertex="1">
          <mxGeometry x="400" y="-920" width="160" height="160" as="geometry" />
        </mxCell>
        <mxCell id="dLLO4N_0DPD6AMVL1Fj_-21" value="(заставить соседа/ей напасть)&lt;div&gt;(не дать коалиции образоваться)&lt;/div&gt;" style="rounded=0;whiteSpace=wrap;html=1;" parent="1" vertex="1">
          <mxGeometry x="600" y="-920" width="240" height="160" as="geometry" />
        </mxCell>
        <mxCell id="dLLO4N_0DPD6AMVL1Fj_-22" value="" style="rounded=0;whiteSpace=wrap;html=1;fillColor=#f5f5f5;fontColor=#333333;strokeColor=#666666;" parent="1" vertex="1">
          <mxGeometry x="920" y="-920" width="160" height="160" as="geometry" />
        </mxCell>
        <mxCell id="dLLO4N_0DPD6AMVL1Fj_-23" value="&lt;font style=&quot;font-size: 17px;&quot;&gt;Убедить советников что маг/зомби не опасны а даже полезны&lt;/font&gt;" style="text;html=1;align=center;verticalAlign=middle;whiteSpace=wrap;rounded=0;fontStyle=1" parent="1" vertex="1">
          <mxGeometry x="920" y="-920" width="160" height="160" as="geometry" />
        </mxCell>
        <mxCell id="dLLO4N_0DPD6AMVL1Fj_-24" value="" style="rounded=0;whiteSpace=wrap;html=1;" parent="1" vertex="1">
          <mxGeometry x="1120" y="-920" width="240" height="160" as="geometry" />
        </mxCell>
        <mxCell id="dLLO4N_0DPD6AMVL1Fj_-31" value="" style="rounded=0;whiteSpace=wrap;html=1;fillColor=#f5f5f5;fontColor=#333333;strokeColor=#666666;" parent="1" vertex="1">
          <mxGeometry x="400" y="-720" width="160" height="160" as="geometry" />
        </mxCell>
        <mxCell id="dLLO4N_0DPD6AMVL1Fj_-32" value="&lt;font style=&quot;font-size: 17px;&quot;&gt;нехватка материала&lt;/font&gt;" style="text;html=1;align=center;verticalAlign=middle;whiteSpace=wrap;rounded=0;fontStyle=1" parent="1" vertex="1">
          <mxGeometry x="400" y="-720" width="160" height="160" as="geometry" />
        </mxCell>
        <mxCell id="dLLO4N_0DPD6AMVL1Fj_-33" value="" style="rounded=0;whiteSpace=wrap;html=1;" parent="1" vertex="1">
          <mxGeometry x="600" y="-720" width="240" height="160" as="geometry" />
        </mxCell>
        <mxCell id="dLLO4N_0DPD6AMVL1Fj_-34" value="" style="rounded=0;whiteSpace=wrap;html=1;fillColor=#f5f5f5;fontColor=#333333;strokeColor=#666666;" parent="1" vertex="1">
          <mxGeometry x="920" y="-720" width="160" height="160" as="geometry" />
        </mxCell>
        <mxCell id="dLLO4N_0DPD6AMVL1Fj_-35" value="&lt;font style=&quot;font-size: 17px;&quot;&gt;Уникальные проекты&lt;/font&gt;" style="text;html=1;align=center;verticalAlign=middle;whiteSpace=wrap;rounded=0;fontStyle=1" parent="1" vertex="1">
          <mxGeometry x="920" y="-720" width="160" height="160" as="geometry" />
        </mxCell>
        <mxCell id="dLLO4N_0DPD6AMVL1Fj_-36" value="" style="rounded=0;whiteSpace=wrap;html=1;" parent="1" vertex="1">
          <mxGeometry x="1120" y="-720" width="240" height="160" as="geometry" />
        </mxCell>
        <mxCell id="dLLO4N_0DPD6AMVL1Fj_-38" value="Никто не хочет зомбей получай дебафы&lt;div&gt;делай полезное для того чтобы заменить их на бафы&lt;/div&gt;&lt;div&gt;(зомби рабочие)&lt;/div&gt;&lt;div&gt;(зомби солдаты)&lt;/div&gt;&lt;div&gt;(платим нологе церкви)&lt;/div&gt;" style="text;html=1;align=center;verticalAlign=middle;whiteSpace=wrap;rounded=0;" parent="1" vertex="1">
          <mxGeometry x="1120" y="-920" width="240" height="160" as="geometry" />
        </mxCell>
        <mxCell id="dLLO4N_0DPD6AMVL1Fj_-39" value="Не хватает трупов&lt;div&gt;(убейте и потеряйте войска)&lt;/div&gt;&lt;div&gt;(купите у союзников/соседей)&lt;/div&gt;" style="rounded=0;whiteSpace=wrap;html=1;" parent="1" vertex="1">
          <mxGeometry x="600" y="-720" width="240" height="160" as="geometry" />
        </mxCell>
        <mxCell id="dLLO4N_0DPD6AMVL1Fj_-41" value="" style="rounded=0;whiteSpace=wrap;html=1;" parent="1" vertex="1">
          <mxGeometry x="1120" y="-720" width="240" height="160" as="geometry" />
        </mxCell>
        <mxCell id="dLLO4N_0DPD6AMVL1Fj_-42" value="Со временем Яркен хочет делать что-то особенное&amp;nbsp;&lt;div&gt;(3 мудреца)&lt;/div&gt;&lt;div&gt;(эмиссары&lt;span style=&quot;background-color: initial;&quot;&gt;(улучшить вид и запах)&lt;/span&gt;&lt;span style=&quot;background-color: initial;&quot;&gt;)&lt;/span&gt;&lt;/div&gt;&lt;div&gt;(элитный отряд охраны)*&lt;/div&gt;&lt;div&gt;(отряд коней)*&lt;/div&gt;&lt;div&gt;(шпионы)*&lt;/div&gt;&lt;div&gt;(генералы)&lt;/div&gt;" style="text;html=1;align=center;verticalAlign=middle;whiteSpace=wrap;rounded=0;" parent="1" vertex="1">
          <mxGeometry x="1120" y="-720" width="240" height="160" as="geometry" />
        </mxCell>
        <mxCell id="dLLO4N_0DPD6AMVL1Fj_-43" value="" style="rounded=0;whiteSpace=wrap;html=1;fillColor=#f8cecc;strokeColor=#b85450;" parent="1" vertex="1">
          <mxGeometry x="40" y="-800" width="160" height="80" as="geometry" />
        </mxCell>
        <mxCell id="dLLO4N_0DPD6AMVL1Fj_-45" value="" style="rounded=0;whiteSpace=wrap;html=1;" parent="1" vertex="1">
          <mxGeometry x="40" y="-920" width="160" height="80" as="geometry" />
        </mxCell>
        <mxCell id="dLLO4N_0DPD6AMVL1Fj_-46" value="&lt;font style=&quot;font-size: 22px;&quot;&gt;Легенда&lt;/font&gt;" style="text;html=1;align=center;verticalAlign=middle;whiteSpace=wrap;rounded=0;fontStyle=1;fillColor=#f5f5f5;fontColor=#333333;strokeColor=#666666;" parent="1" vertex="1">
          <mxGeometry x="40" y="-920" width="160" height="80" as="geometry" />
        </mxCell>
        <mxCell id="dLLO4N_0DPD6AMVL1Fj_-48" value="&lt;font style=&quot;font-size: 22px;&quot;&gt;Военка&lt;/font&gt;" style="text;html=1;align=center;verticalAlign=middle;whiteSpace=wrap;rounded=0;fontStyle=1" parent="1" vertex="1">
          <mxGeometry x="40" y="-800" width="160" height="80" as="geometry" />
        </mxCell>
        <mxCell id="dLLO4N_0DPD6AMVL1Fj_-49" value="" style="rounded=0;whiteSpace=wrap;html=1;fillColor=#f8cecc;strokeColor=#b85450;" parent="1" vertex="1">
          <mxGeometry x="40" y="-560" width="160" height="80" as="geometry" />
        </mxCell>
        <mxCell id="dLLO4N_0DPD6AMVL1Fj_-50" value="" style="rounded=0;whiteSpace=wrap;html=1;" parent="1" vertex="1">
          <mxGeometry x="40" y="-680" width="160" height="80" as="geometry" />
        </mxCell>
        <mxCell id="dLLO4N_0DPD6AMVL1Fj_-51" value="&lt;font style=&quot;font-size: 22px;&quot;&gt;Дипломатия&lt;/font&gt;" style="text;html=1;align=center;verticalAlign=middle;whiteSpace=wrap;rounded=0;fontStyle=1;fillColor=#dae8fc;strokeColor=#6c8ebf;" parent="1" vertex="1">
          <mxGeometry x="40" y="-680" width="160" height="80" as="geometry" />
        </mxCell>
        <mxCell id="dLLO4N_0DPD6AMVL1Fj_-52" value="&lt;font style=&quot;font-size: 22px;&quot;&gt;Экономика&lt;/font&gt;" style="text;html=1;align=center;verticalAlign=middle;whiteSpace=wrap;rounded=0;fontStyle=1;fillColor=#d5e8d4;strokeColor=#82b366;" parent="1" vertex="1">
          <mxGeometry x="40" y="-560" width="160" height="80" as="geometry" />
        </mxCell>
        <mxCell id="dLLO4N_0DPD6AMVL1Fj_-53" value="" style="rounded=0;whiteSpace=wrap;html=1;fillColor=#f8cecc;strokeColor=#b85450;" parent="1" vertex="1">
          <mxGeometry x="40" y="-320" width="160" height="80" as="geometry" />
        </mxCell>
        <mxCell id="dLLO4N_0DPD6AMVL1Fj_-54" value="" style="rounded=0;whiteSpace=wrap;html=1;" parent="1" vertex="1">
          <mxGeometry x="40" y="-440" width="160" height="80" as="geometry" />
        </mxCell>
        <mxCell id="dLLO4N_0DPD6AMVL1Fj_-55" value="&lt;font style=&quot;font-size: 22px;&quot;&gt;Общество&lt;/font&gt;" style="text;html=1;align=center;verticalAlign=middle;whiteSpace=wrap;rounded=0;fontStyle=1;fillColor=#e1d5e7;strokeColor=#9673a6;" parent="1" vertex="1">
          <mxGeometry x="40" y="-440" width="160" height="80" as="geometry" />
        </mxCell>
        <mxCell id="dLLO4N_0DPD6AMVL1Fj_-56" value="&lt;font style=&quot;font-size: 22px;&quot;&gt;Религия&lt;/font&gt;" style="text;html=1;align=center;verticalAlign=middle;whiteSpace=wrap;rounded=0;fontStyle=1;fillColor=#fff2cc;strokeColor=#d6b656;" parent="1" vertex="1">
          <mxGeometry x="40" y="-320" width="160" height="80" as="geometry" />
        </mxCell>
        <mxCell id="9ghoXm-9nMgsTZUyEOmh-120" style="edgeStyle=orthogonalEdgeStyle;rounded=0;orthogonalLoop=1;jettySize=auto;html=1;exitX=0.5;exitY=1;exitDx=0;exitDy=0;entryX=0.5;entryY=0;entryDx=0;entryDy=0;" parent="1" source="dLLO4N_0DPD6AMVL1Fj_-112" edge="1">
          <mxGeometry relative="1" as="geometry">
            <mxPoint x="1180" y="680" as="targetPoint" />
          </mxGeometry>
        </mxCell>
        <mxCell id="dLLO4N_0DPD6AMVL1Fj_-112" value="" style="rounded=0;whiteSpace=wrap;html=1;fillColor=#f8cecc;strokeColor=#9673a6;gradientColor=none;" parent="1" vertex="1">
          <mxGeometry x="1040" y="280" width="280" height="280" as="geometry" />
        </mxCell>
        <mxCell id="dLLO4N_0DPD6AMVL1Fj_-113" value="&lt;font size=&quot;1&quot;&gt;&lt;b style=&quot;font-size: 20px;&quot;&gt;Периметр 3&lt;/b&gt;&lt;/font&gt;" style="text;html=1;align=center;verticalAlign=middle;whiteSpace=wrap;rounded=0;" parent="1" vertex="1">
          <mxGeometry x="1040" y="280" width="280" height="40" as="geometry" />
        </mxCell>
        <mxCell id="dLLO4N_0DPD6AMVL1Fj_-114" value="" style="endArrow=none;html=1;rounded=0;exitX=0;exitY=1;exitDx=0;exitDy=0;" parent="1" source="dLLO4N_0DPD6AMVL1Fj_-113" edge="1">
          <mxGeometry width="50" height="50" relative="1" as="geometry">
            <mxPoint x="1270" y="460" as="sourcePoint" />
            <mxPoint x="1320" y="320" as="targetPoint" />
          </mxGeometry>
        </mxCell>
        <mxCell id="dLLO4N_0DPD6AMVL1Fj_-115" value="&lt;div&gt;&lt;span style=&quot;font-size: 16px;&quot;&gt;40 внутренний кастанор&lt;/span&gt;&lt;/div&gt;" style="text;html=1;align=center;verticalAlign=middle;whiteSpace=wrap;rounded=0;" parent="1" vertex="1">
          <mxGeometry x="1040" y="320" width="280" height="120" as="geometry" />
        </mxCell>
        <mxCell id="dLLO4N_0DPD6AMVL1Fj_-116" value="&lt;span style=&quot;font-size: 16px;&quot;&gt;200 всех очков&lt;/span&gt;" style="text;html=1;align=center;verticalAlign=middle;whiteSpace=wrap;rounded=0;" parent="1" vertex="1">
          <mxGeometry x="1040" y="440" width="280" height="110" as="geometry" />
        </mxCell>
        <mxCell id="dLLO4N_0DPD6AMVL1Fj_-117" value="" style="endArrow=none;html=1;rounded=0;exitX=0;exitY=0;exitDx=0;exitDy=0;entryX=1;entryY=0;entryDx=0;entryDy=0;" parent="1" source="dLLO4N_0DPD6AMVL1Fj_-116" target="dLLO4N_0DPD6AMVL1Fj_-116" edge="1">
          <mxGeometry width="50" height="50" relative="1" as="geometry">
            <mxPoint x="1250" y="490" as="sourcePoint" />
            <mxPoint x="1300" y="440" as="targetPoint" />
          </mxGeometry>
        </mxCell>
        <mxCell id="9ghoXm-9nMgsTZUyEOmh-125" style="edgeStyle=orthogonalEdgeStyle;rounded=0;orthogonalLoop=1;jettySize=auto;html=1;exitX=0.5;exitY=1;exitDx=0;exitDy=0;entryX=0.25;entryY=0;entryDx=0;entryDy=0;" parent="1" edge="1">
          <mxGeometry relative="1" as="geometry">
            <mxPoint x="549.96" y="560" as="sourcePoint" />
            <mxPoint x="1119.96" y="680" as="targetPoint" />
            <Array as="points">
              <mxPoint x="550" y="600" />
              <mxPoint x="1120" y="600" />
            </Array>
          </mxGeometry>
        </mxCell>
        <mxCell id="9ghoXm-9nMgsTZUyEOmh-32" value="" style="rounded=0;whiteSpace=wrap;html=1;fillColor=#d5e8d4;strokeColor=#82b366;" parent="1" vertex="1">
          <mxGeometry x="400" y="280" width="280" height="280" as="geometry" />
        </mxCell>
        <mxCell id="9ghoXm-9nMgsTZUyEOmh-33" value="&lt;font size=&quot;1&quot;&gt;&lt;b style=&quot;font-size: 20px;&quot;&gt;Экономическая база&lt;/b&gt;&lt;/font&gt;" style="text;html=1;align=center;verticalAlign=middle;whiteSpace=wrap;rounded=0;" parent="1" vertex="1">
          <mxGeometry x="400" y="280" width="280" height="40" as="geometry" />
        </mxCell>
        <mxCell id="9ghoXm-9nMgsTZUyEOmh-34" value="" style="endArrow=none;html=1;rounded=0;exitX=0;exitY=1;exitDx=0;exitDy=0;" parent="1" source="9ghoXm-9nMgsTZUyEOmh-33" edge="1">
          <mxGeometry width="50" height="50" relative="1" as="geometry">
            <mxPoint x="630" y="460" as="sourcePoint" />
            <mxPoint x="680" y="320" as="targetPoint" />
          </mxGeometry>
        </mxCell>
        <mxCell id="9ghoXm-9nMgsTZUyEOmh-35" value="&lt;font style=&quot;font-size: 16px;&quot;&gt;3 храма&lt;/font&gt;&lt;div&gt;&lt;font style=&quot;font-size: 16px;&quot;&gt;5 мастерских&amp;nbsp;&lt;/font&gt;&lt;/div&gt;&lt;div&gt;&lt;font style=&quot;font-size: 16px;&quot;&gt;2 рынка&lt;/font&gt;&lt;/div&gt;" style="text;html=1;align=center;verticalAlign=middle;whiteSpace=wrap;rounded=0;" parent="1" vertex="1">
          <mxGeometry x="400" y="320" width="280" height="120" as="geometry" />
        </mxCell>
        <mxCell id="9ghoXm-9nMgsTZUyEOmh-36" value="&lt;font style=&quot;font-size: 16px;&quot;&gt;-10 девкоста&lt;/font&gt;&lt;div&gt;&lt;font style=&quot;font-size: 16px;&quot;&gt;15 лет&lt;/font&gt;&lt;/div&gt;" style="text;html=1;align=center;verticalAlign=middle;whiteSpace=wrap;rounded=0;" parent="1" vertex="1">
          <mxGeometry x="400" y="440" width="280" height="110" as="geometry" />
        </mxCell>
        <mxCell id="9ghoXm-9nMgsTZUyEOmh-37" value="" style="endArrow=none;html=1;rounded=0;exitX=0;exitY=0;exitDx=0;exitDy=0;entryX=1;entryY=0;entryDx=0;entryDy=0;" parent="1" source="9ghoXm-9nMgsTZUyEOmh-36" target="9ghoXm-9nMgsTZUyEOmh-36" edge="1">
          <mxGeometry width="50" height="50" relative="1" as="geometry">
            <mxPoint x="610" y="490" as="sourcePoint" />
            <mxPoint x="660" y="440" as="targetPoint" />
          </mxGeometry>
        </mxCell>
        <mxCell id="9ghoXm-9nMgsTZUyEOmh-50" value="" style="rounded=0;whiteSpace=wrap;html=1;fillColor=#dae8fc;strokeColor=#6c8ebf;" parent="1" vertex="1">
          <mxGeometry x="1680" y="280" width="280" height="280" as="geometry" />
        </mxCell>
        <mxCell id="9ghoXm-9nMgsTZUyEOmh-51" value="&lt;font size=&quot;1&quot;&gt;&lt;b style=&quot;font-size: 20px;&quot;&gt;Каждому нужен друг!&lt;/b&gt;&lt;/font&gt;" style="text;html=1;align=center;verticalAlign=middle;whiteSpace=wrap;rounded=0;" parent="1" vertex="1">
          <mxGeometry x="1680" y="280" width="280" height="40" as="geometry" />
        </mxCell>
        <mxCell id="9ghoXm-9nMgsTZUyEOmh-52" value="" style="endArrow=none;html=1;rounded=0;exitX=0;exitY=1;exitDx=0;exitDy=0;" parent="1" source="9ghoXm-9nMgsTZUyEOmh-51" edge="1">
          <mxGeometry width="50" height="50" relative="1" as="geometry">
            <mxPoint x="1910" y="460" as="sourcePoint" />
            <mxPoint x="1960" y="320" as="targetPoint" />
          </mxGeometry>
        </mxCell>
        <mxCell id="9ghoXm-9nMgsTZUyEOmh-53" value="&lt;font style=&quot;font-size: 16px;&quot;&gt;Иметь 2 союзника 150 отношений&lt;/font&gt;" style="text;html=1;align=center;verticalAlign=middle;whiteSpace=wrap;rounded=0;" parent="1" vertex="1">
          <mxGeometry x="1680" y="320" width="280" height="120" as="geometry" />
        </mxCell>
        <mxCell id="9ghoXm-9nMgsTZUyEOmh-54" value="&lt;span style=&quot;font-size: 16px;&quot;&gt;Событие&lt;/span&gt;" style="text;html=1;align=center;verticalAlign=middle;whiteSpace=wrap;rounded=0;" parent="1" vertex="1">
          <mxGeometry x="1680" y="440" width="280" height="110" as="geometry" />
        </mxCell>
        <mxCell id="9ghoXm-9nMgsTZUyEOmh-55" value="" style="endArrow=none;html=1;rounded=0;exitX=0;exitY=0;exitDx=0;exitDy=0;entryX=1;entryY=0;entryDx=0;entryDy=0;" parent="1" source="9ghoXm-9nMgsTZUyEOmh-54" target="9ghoXm-9nMgsTZUyEOmh-54" edge="1">
          <mxGeometry width="50" height="50" relative="1" as="geometry">
            <mxPoint x="1890" y="490" as="sourcePoint" />
            <mxPoint x="1940" y="440" as="targetPoint" />
          </mxGeometry>
        </mxCell>
        <mxCell id="9ghoXm-9nMgsTZUyEOmh-87" value="" style="rounded=0;whiteSpace=wrap;html=1;fillColor=#e1d5e7;strokeColor=#9673a6;" parent="1" vertex="1">
          <mxGeometry x="-1000" y="-70" width="280" height="280" as="geometry" />
        </mxCell>
        <mxCell id="9ghoXm-9nMgsTZUyEOmh-88" value="&lt;font size=&quot;1&quot;&gt;&lt;b style=&quot;font-size: 20px;&quot;&gt;Ресурсная база&lt;/b&gt;&lt;/font&gt;" style="text;html=1;align=center;verticalAlign=middle;whiteSpace=wrap;rounded=0;" parent="1" vertex="1">
          <mxGeometry x="-1000" y="-70" width="280" height="40" as="geometry" />
        </mxCell>
        <mxCell id="9ghoXm-9nMgsTZUyEOmh-89" value="" style="endArrow=none;html=1;rounded=0;exitX=0;exitY=1;exitDx=0;exitDy=0;" parent="1" source="9ghoXm-9nMgsTZUyEOmh-88" edge="1">
          <mxGeometry width="50" height="50" relative="1" as="geometry">
            <mxPoint x="-770" y="110" as="sourcePoint" />
            <mxPoint x="-720" y="-30" as="targetPoint" />
          </mxGeometry>
        </mxCell>
        <mxCell id="9ghoXm-9nMgsTZUyEOmh-90" value="&lt;font style=&quot;font-size: 16px;&quot;&gt;300 дева&lt;/font&gt;&lt;div&gt;&lt;span style=&quot;font-size: 16px;&quot;&gt;20 провинций&lt;/span&gt;&lt;/div&gt;" style="text;html=1;align=center;verticalAlign=middle;whiteSpace=wrap;rounded=0;" parent="1" vertex="1">
          <mxGeometry x="-1000" y="-30" width="280" height="120" as="geometry" />
        </mxCell>
        <mxCell id="9ghoXm-9nMgsTZUyEOmh-91" value="&lt;font style=&quot;font-size: 16px;&quot;&gt;Text&lt;/font&gt;" style="text;html=1;align=center;verticalAlign=middle;whiteSpace=wrap;rounded=0;" parent="1" vertex="1">
          <mxGeometry x="-1000" y="90" width="280" height="110" as="geometry" />
        </mxCell>
        <mxCell id="9ghoXm-9nMgsTZUyEOmh-92" value="" style="endArrow=none;html=1;rounded=0;exitX=0;exitY=0;exitDx=0;exitDy=0;entryX=1;entryY=0;entryDx=0;entryDy=0;" parent="1" source="9ghoXm-9nMgsTZUyEOmh-91" target="9ghoXm-9nMgsTZUyEOmh-91" edge="1">
          <mxGeometry width="50" height="50" relative="1" as="geometry">
            <mxPoint x="-790" y="140" as="sourcePoint" />
            <mxPoint x="-740" y="90" as="targetPoint" />
          </mxGeometry>
        </mxCell>
        <mxCell id="9ghoXm-9nMgsTZUyEOmh-93" value="" style="rounded=0;whiteSpace=wrap;html=1;fillColor=#d5e8d4;strokeColor=#82b366;" parent="1" vertex="1">
          <mxGeometry x="-1320" y="-70" width="280" height="280" as="geometry" />
        </mxCell>
        <mxCell id="9ghoXm-9nMgsTZUyEOmh-94" value="&lt;font size=&quot;1&quot;&gt;&lt;b style=&quot;font-size: 20px;&quot;&gt;Экономическая база&lt;/b&gt;&lt;/font&gt;" style="text;html=1;align=center;verticalAlign=middle;whiteSpace=wrap;rounded=0;" parent="1" vertex="1">
          <mxGeometry x="-1320" y="-70" width="280" height="40" as="geometry" />
        </mxCell>
        <mxCell id="9ghoXm-9nMgsTZUyEOmh-95" value="" style="endArrow=none;html=1;rounded=0;exitX=0;exitY=1;exitDx=0;exitDy=0;" parent="1" source="9ghoXm-9nMgsTZUyEOmh-94" edge="1">
          <mxGeometry width="50" height="50" relative="1" as="geometry">
            <mxPoint x="-1090" y="110" as="sourcePoint" />
            <mxPoint x="-1040" y="-30" as="targetPoint" />
          </mxGeometry>
        </mxCell>
        <mxCell id="9ghoXm-9nMgsTZUyEOmh-96" value="&lt;font style=&quot;font-size: 16px;&quot;&gt;Иметь доход 20 монет&lt;/font&gt;" style="text;html=1;align=center;verticalAlign=middle;whiteSpace=wrap;rounded=0;" parent="1" vertex="1">
          <mxGeometry x="-1320" y="-30" width="280" height="120" as="geometry" />
        </mxCell>
        <mxCell id="9ghoXm-9nMgsTZUyEOmh-97" value="&lt;font style=&quot;font-size: 16px;&quot;&gt;Text&lt;/font&gt;" style="text;html=1;align=center;verticalAlign=middle;whiteSpace=wrap;rounded=0;" parent="1" vertex="1">
          <mxGeometry x="-1320" y="90" width="280" height="110" as="geometry" />
        </mxCell>
        <mxCell id="9ghoXm-9nMgsTZUyEOmh-98" value="" style="endArrow=none;html=1;rounded=0;exitX=0;exitY=0;exitDx=0;exitDy=0;entryX=1;entryY=0;entryDx=0;entryDy=0;" parent="1" source="9ghoXm-9nMgsTZUyEOmh-97" target="9ghoXm-9nMgsTZUyEOmh-97" edge="1">
          <mxGeometry width="50" height="50" relative="1" as="geometry">
            <mxPoint x="-1110" y="140" as="sourcePoint" />
            <mxPoint x="-1060" y="90" as="targetPoint" />
          </mxGeometry>
        </mxCell>
        <mxCell id="9ghoXm-9nMgsTZUyEOmh-99" value="" style="rounded=0;whiteSpace=wrap;html=1;fillColor=#f8cecc;strokeColor=#b85450;" parent="1" vertex="1">
          <mxGeometry x="-680" y="-70" width="280" height="280" as="geometry" />
        </mxCell>
        <mxCell id="9ghoXm-9nMgsTZUyEOmh-100" value="&lt;font size=&quot;1&quot;&gt;&lt;b style=&quot;font-size: 20px;&quot;&gt;Экономическая база&lt;/b&gt;&lt;/font&gt;" style="text;html=1;align=center;verticalAlign=middle;whiteSpace=wrap;rounded=0;" parent="1" vertex="1">
          <mxGeometry x="-680" y="-70" width="280" height="40" as="geometry" />
        </mxCell>
        <mxCell id="9ghoXm-9nMgsTZUyEOmh-101" value="" style="endArrow=none;html=1;rounded=0;exitX=0;exitY=1;exitDx=0;exitDy=0;" parent="1" source="9ghoXm-9nMgsTZUyEOmh-100" edge="1">
          <mxGeometry width="50" height="50" relative="1" as="geometry">
            <mxPoint x="-450" y="110" as="sourcePoint" />
            <mxPoint x="-400" y="-30" as="targetPoint" />
          </mxGeometry>
        </mxCell>
        <mxCell id="9ghoXm-9nMgsTZUyEOmh-102" value="&lt;font style=&quot;font-size: 16px;&quot;&gt;Text&lt;/font&gt;" style="text;html=1;align=center;verticalAlign=middle;whiteSpace=wrap;rounded=0;" parent="1" vertex="1">
          <mxGeometry x="-680" y="-30" width="280" height="120" as="geometry" />
        </mxCell>
        <mxCell id="9ghoXm-9nMgsTZUyEOmh-103" value="&lt;font style=&quot;font-size: 16px;&quot;&gt;Text&lt;/font&gt;" style="text;html=1;align=center;verticalAlign=middle;whiteSpace=wrap;rounded=0;" parent="1" vertex="1">
          <mxGeometry x="-680" y="90" width="280" height="110" as="geometry" />
        </mxCell>
        <mxCell id="9ghoXm-9nMgsTZUyEOmh-104" value="" style="endArrow=none;html=1;rounded=0;exitX=0;exitY=0;exitDx=0;exitDy=0;entryX=1;entryY=0;entryDx=0;entryDy=0;" parent="1" source="9ghoXm-9nMgsTZUyEOmh-103" target="9ghoXm-9nMgsTZUyEOmh-103" edge="1">
          <mxGeometry width="50" height="50" relative="1" as="geometry">
            <mxPoint x="-470" y="140" as="sourcePoint" />
            <mxPoint x="-420" y="90" as="targetPoint" />
          </mxGeometry>
        </mxCell>
        <mxCell id="9ghoXm-9nMgsTZUyEOmh-105" value="" style="rounded=0;whiteSpace=wrap;html=1;fillColor=#f8cecc;strokeColor=#b85450;" parent="1" vertex="1">
          <mxGeometry x="-360" y="-70" width="280" height="280" as="geometry" />
        </mxCell>
        <mxCell id="9ghoXm-9nMgsTZUyEOmh-106" value="&lt;font size=&quot;1&quot;&gt;&lt;b style=&quot;font-size: 20px;&quot;&gt;Экономическая база&lt;/b&gt;&lt;/font&gt;" style="text;html=1;align=center;verticalAlign=middle;whiteSpace=wrap;rounded=0;" parent="1" vertex="1">
          <mxGeometry x="-360" y="-70" width="280" height="40" as="geometry" />
        </mxCell>
        <mxCell id="9ghoXm-9nMgsTZUyEOmh-107" value="" style="endArrow=none;html=1;rounded=0;exitX=0;exitY=1;exitDx=0;exitDy=0;" parent="1" source="9ghoXm-9nMgsTZUyEOmh-106" edge="1">
          <mxGeometry width="50" height="50" relative="1" as="geometry">
            <mxPoint x="-130" y="110" as="sourcePoint" />
            <mxPoint x="-80" y="-30" as="targetPoint" />
          </mxGeometry>
        </mxCell>
        <mxCell id="9ghoXm-9nMgsTZUyEOmh-108" value="&lt;font style=&quot;font-size: 16px;&quot;&gt;Text&lt;/font&gt;" style="text;html=1;align=center;verticalAlign=middle;whiteSpace=wrap;rounded=0;" parent="1" vertex="1">
          <mxGeometry x="-360" y="-30" width="280" height="120" as="geometry" />
        </mxCell>
        <mxCell id="9ghoXm-9nMgsTZUyEOmh-109" value="&lt;font style=&quot;font-size: 16px;&quot;&gt;Text&lt;/font&gt;" style="text;html=1;align=center;verticalAlign=middle;whiteSpace=wrap;rounded=0;" parent="1" vertex="1">
          <mxGeometry x="-360" y="90" width="280" height="110" as="geometry" />
        </mxCell>
        <mxCell id="9ghoXm-9nMgsTZUyEOmh-110" value="" style="endArrow=none;html=1;rounded=0;exitX=0;exitY=0;exitDx=0;exitDy=0;entryX=1;entryY=0;entryDx=0;entryDy=0;" parent="1" source="9ghoXm-9nMgsTZUyEOmh-109" target="9ghoXm-9nMgsTZUyEOmh-109" edge="1">
          <mxGeometry width="50" height="50" relative="1" as="geometry">
            <mxPoint x="-150" y="140" as="sourcePoint" />
            <mxPoint x="-100" y="90" as="targetPoint" />
          </mxGeometry>
        </mxCell>
        <mxCell id="9ghoXm-9nMgsTZUyEOmh-111" value="" style="rounded=0;whiteSpace=wrap;html=1;fillColor=#f8cecc;strokeColor=#b85450;" parent="1" vertex="1">
          <mxGeometry x="-40" y="-70" width="280" height="280" as="geometry" />
        </mxCell>
        <mxCell id="9ghoXm-9nMgsTZUyEOmh-112" value="&lt;font size=&quot;1&quot;&gt;&lt;b style=&quot;font-size: 20px;&quot;&gt;Экономическая база&lt;/b&gt;&lt;/font&gt;" style="text;html=1;align=center;verticalAlign=middle;whiteSpace=wrap;rounded=0;" parent="1" vertex="1">
          <mxGeometry x="-40" y="-70" width="280" height="40" as="geometry" />
        </mxCell>
        <mxCell id="9ghoXm-9nMgsTZUyEOmh-113" value="" style="endArrow=none;html=1;rounded=0;exitX=0;exitY=1;exitDx=0;exitDy=0;" parent="1" source="9ghoXm-9nMgsTZUyEOmh-112" edge="1">
          <mxGeometry width="50" height="50" relative="1" as="geometry">
            <mxPoint x="190" y="110" as="sourcePoint" />
            <mxPoint x="240" y="-30" as="targetPoint" />
          </mxGeometry>
        </mxCell>
        <mxCell id="9ghoXm-9nMgsTZUyEOmh-114" value="&lt;font style=&quot;font-size: 16px;&quot;&gt;Text&lt;/font&gt;" style="text;html=1;align=center;verticalAlign=middle;whiteSpace=wrap;rounded=0;" parent="1" vertex="1">
          <mxGeometry x="-40" y="-30" width="280" height="120" as="geometry" />
        </mxCell>
        <mxCell id="9ghoXm-9nMgsTZUyEOmh-115" value="&lt;font style=&quot;font-size: 16px;&quot;&gt;Text&lt;/font&gt;" style="text;html=1;align=center;verticalAlign=middle;whiteSpace=wrap;rounded=0;" parent="1" vertex="1">
          <mxGeometry x="-40" y="90" width="280" height="110" as="geometry" />
        </mxCell>
        <mxCell id="9ghoXm-9nMgsTZUyEOmh-116" value="" style="endArrow=none;html=1;rounded=0;exitX=0;exitY=0;exitDx=0;exitDy=0;entryX=1;entryY=0;entryDx=0;entryDy=0;" parent="1" source="9ghoXm-9nMgsTZUyEOmh-115" target="9ghoXm-9nMgsTZUyEOmh-115" edge="1">
          <mxGeometry width="50" height="50" relative="1" as="geometry">
            <mxPoint x="170" y="140" as="sourcePoint" />
            <mxPoint x="220" y="90" as="targetPoint" />
          </mxGeometry>
        </mxCell>
        <mxCell id="9ghoXm-9nMgsTZUyEOmh-124" style="edgeStyle=orthogonalEdgeStyle;rounded=0;orthogonalLoop=1;jettySize=auto;html=1;exitX=0.5;exitY=1;exitDx=0;exitDy=0;entryX=0.697;entryY=0.054;entryDx=0;entryDy=0;entryPerimeter=0;" parent="1" source="9ghoXm-9nMgsTZUyEOmh-50" edge="1">
          <mxGeometry relative="1" as="geometry">
            <mxPoint x="1235.1599999999999" y="682.1600000000001" as="targetPoint" />
            <Array as="points">
              <mxPoint x="1820" y="600" />
              <mxPoint x="1235" y="600" />
            </Array>
          </mxGeometry>
        </mxCell>
        <mxCell id="9ghoXm-9nMgsTZUyEOmh-133" value="" style="rounded=0;whiteSpace=wrap;html=1;" parent="1" vertex="1">
          <mxGeometry x="2040" y="680" width="320" height="40" as="geometry" />
        </mxCell>
        <mxCell id="9ghoXm-9nMgsTZUyEOmh-134" value="" style="rounded=0;whiteSpace=wrap;html=1;" parent="1" vertex="1">
          <mxGeometry x="2040" y="720" width="320" height="240" as="geometry" />
        </mxCell>
        <mxCell id="9ghoXm-9nMgsTZUyEOmh-135" value="&lt;font style=&quot;font-size: 20px;&quot;&gt;&lt;b&gt;Последствия&lt;/b&gt;&lt;/font&gt;" style="text;html=1;align=center;verticalAlign=middle;whiteSpace=wrap;rounded=0;" parent="1" vertex="1">
          <mxGeometry x="2038" y="680" width="320" height="40" as="geometry" />
        </mxCell>
        <mxCell id="9ghoXm-9nMgsTZUyEOmh-136" value="&lt;font style=&quot;font-size: 16px;&quot;&gt;-10 равновесная лояльность&lt;/font&gt;&lt;div&gt;&lt;div&gt;&lt;font style=&quot;font-size: 16px;&quot;&gt;&amp;nbsp;&lt;/font&gt;&lt;div&gt;&lt;span style=&quot;font-size: 16px;&quot;&gt;-20 религиозного единства&lt;br&gt;&lt;/span&gt;&lt;div&gt;&lt;div&gt;&lt;font style=&quot;font-size: 16px;&quot;&gt;-3 толерантности к истинной&lt;/font&gt;&lt;/div&gt;&lt;div&gt;&lt;font style=&quot;font-size: 16px;&quot;&gt;&amp;nbsp;&lt;/font&gt;&lt;/div&gt;&lt;div&gt;&lt;font style=&quot;font-size: 16px;&quot;&gt;-2 дип репы&lt;/font&gt;&lt;/div&gt;&lt;div&gt;&lt;font style=&quot;font-size: 16px;&quot;&gt;-20 отношений&lt;/font&gt;&lt;/div&gt;&lt;div&gt;&lt;font style=&quot;font-size: 16px;&quot;&gt;-50 Отношений&lt;/font&gt;&lt;/div&gt;&lt;div&gt;&lt;font style=&quot;font-size: 16px;&quot;&gt;клаймы&amp;nbsp;&lt;span style=&quot;background-color: initial;&quot;&gt;на кастанор&lt;/span&gt;&lt;br&gt;&lt;/font&gt;&lt;/div&gt;&lt;div&gt;&lt;font style=&quot;font-size: 16px;&quot;&gt;&lt;br&gt;&lt;/font&gt;&lt;/div&gt;&lt;span style=&quot;font-size: 16px;&quot;&gt;+3 беспорядки&lt;/span&gt;&lt;/div&gt;&lt;div&gt;&lt;span style=&quot;font-size: 16px;&quot;&gt;-2 легитимность&lt;/span&gt;&lt;span style=&quot;font-size: 16px;&quot;&gt;&lt;br&gt;&lt;/span&gt;&lt;/div&gt;&lt;div&gt;&lt;span style=&quot;font-size: 16px;&quot;&gt;&lt;br&gt;&lt;/span&gt;&lt;div&gt;&lt;font style=&quot;font-size: 16px;&quot;&gt;-1 престиж&lt;/font&gt;&lt;/div&gt;&lt;/div&gt;&lt;/div&gt;&lt;/div&gt;&lt;/div&gt;" style="text;html=1;align=center;verticalAlign=middle;whiteSpace=wrap;rounded=0;" parent="1" vertex="1">
          <mxGeometry x="2040" y="720" width="320" height="240" as="geometry" />
        </mxCell>
        <mxCell id="adHzRCtXYdIg2MAHcMbn-15" style="edgeStyle=orthogonalEdgeStyle;rounded=0;orthogonalLoop=1;jettySize=auto;html=1;exitX=1;exitY=1;exitDx=0;exitDy=0;entryX=0.5;entryY=0;entryDx=0;entryDy=0;" parent="1" source="9ghoXm-9nMgsTZUyEOmh-138" target="9ghoXm-9nMgsTZUyEOmh-170" edge="1">
          <mxGeometry relative="1" as="geometry">
            <Array as="points">
              <mxPoint x="1320" y="1000" />
              <mxPoint x="1819" y="1000" />
            </Array>
          </mxGeometry>
        </mxCell>
        <mxCell id="adHzRCtXYdIg2MAHcMbn-16" style="edgeStyle=orthogonalEdgeStyle;rounded=0;orthogonalLoop=1;jettySize=auto;html=1;exitX=0.75;exitY=1;exitDx=0;exitDy=0;entryX=0.5;entryY=0;entryDx=0;entryDy=0;" parent="1" source="9ghoXm-9nMgsTZUyEOmh-138" target="kTPqQOl_AH265QqrMBXn-8" edge="1">
          <mxGeometry relative="1" as="geometry">
            <Array as="points">
              <mxPoint x="1250" y="1040" />
              <mxPoint x="1499" y="1040" />
            </Array>
          </mxGeometry>
        </mxCell>
        <mxCell id="9ghoXm-9nMgsTZUyEOmh-138" value="" style="rounded=0;whiteSpace=wrap;html=1;fillColor=#e1d5e7;strokeColor=#9673a6;" parent="1" vertex="1">
          <mxGeometry x="1040" y="680" width="280" height="280" as="geometry" />
        </mxCell>
        <mxCell id="9ghoXm-9nMgsTZUyEOmh-139" value="&lt;font size=&quot;1&quot;&gt;&lt;b style=&quot;font-size: 20px;&quot;&gt;Оглашение договора&lt;/b&gt;&lt;/font&gt;" style="text;html=1;align=center;verticalAlign=middle;whiteSpace=wrap;rounded=0;" parent="1" vertex="1">
          <mxGeometry x="1040" y="680" width="280" height="40" as="geometry" />
        </mxCell>
        <mxCell id="9ghoXm-9nMgsTZUyEOmh-140" value="" style="endArrow=none;html=1;rounded=0;exitX=0;exitY=1;exitDx=0;exitDy=0;" parent="1" source="9ghoXm-9nMgsTZUyEOmh-139" edge="1">
          <mxGeometry width="50" height="50" relative="1" as="geometry">
            <mxPoint x="1270" y="860" as="sourcePoint" />
            <mxPoint x="1320" y="720" as="targetPoint" />
          </mxGeometry>
        </mxCell>
        <mxCell id="9ghoXm-9nMgsTZUyEOmh-142" value="&lt;span style=&quot;font-size: 16px;&quot;&gt;Событие: Последствия&lt;/span&gt;" style="text;html=1;align=center;verticalAlign=middle;whiteSpace=wrap;rounded=0;" parent="1" vertex="1">
          <mxGeometry x="1040" y="840" width="280" height="110" as="geometry" />
        </mxCell>
        <mxCell id="9ghoXm-9nMgsTZUyEOmh-143" value="" style="endArrow=none;html=1;rounded=0;exitX=0;exitY=0;exitDx=0;exitDy=0;entryX=1;entryY=0;entryDx=0;entryDy=0;" parent="1" source="9ghoXm-9nMgsTZUyEOmh-142" target="9ghoXm-9nMgsTZUyEOmh-142" edge="1">
          <mxGeometry width="50" height="50" relative="1" as="geometry">
            <mxPoint x="1250" y="890" as="sourcePoint" />
            <mxPoint x="1300" y="840" as="targetPoint" />
          </mxGeometry>
        </mxCell>
        <mxCell id="9ghoXm-9nMgsTZUyEOmh-273" style="edgeStyle=orthogonalEdgeStyle;rounded=0;orthogonalLoop=1;jettySize=auto;html=1;exitX=0.5;exitY=1;exitDx=0;exitDy=0;entryX=0.5;entryY=0;entryDx=0;entryDy=0;" parent="1" source="9ghoXm-9nMgsTZUyEOmh-145" target="9ghoXm-9nMgsTZUyEOmh-268" edge="1">
          <mxGeometry relative="1" as="geometry" />
        </mxCell>
        <mxCell id="0Ew-OyiPKJsIfG58_g5D-161" style="edgeStyle=orthogonalEdgeStyle;rounded=0;orthogonalLoop=1;jettySize=auto;html=1;exitX=0;exitY=1;exitDx=0;exitDy=0;entryX=0.5;entryY=0;entryDx=0;entryDy=0;" parent="1" source="9ghoXm-9nMgsTZUyEOmh-145" target="0Ew-OyiPKJsIfG58_g5D-100" edge="1">
          <mxGeometry relative="1" as="geometry">
            <Array as="points">
              <mxPoint x="720" y="1400" />
              <mxPoint x="540" y="1400" />
            </Array>
          </mxGeometry>
        </mxCell>
        <mxCell id="MGUnxN-y1VWMcGxOPfXG-20" style="edgeStyle=orthogonalEdgeStyle;rounded=0;orthogonalLoop=1;jettySize=auto;html=1;exitX=1;exitY=1;exitDx=0;exitDy=0;entryX=0.5;entryY=0;entryDx=0;entryDy=0;" parent="1" source="9ghoXm-9nMgsTZUyEOmh-145" target="9ghoXm-9nMgsTZUyEOmh-210" edge="1">
          <mxGeometry relative="1" as="geometry">
            <Array as="points">
              <mxPoint x="1000" y="1400" />
              <mxPoint x="1181" y="1400" />
            </Array>
          </mxGeometry>
        </mxCell>
        <mxCell id="9ghoXm-9nMgsTZUyEOmh-145" value="" style="rounded=0;whiteSpace=wrap;html=1;fillColor=#f8cecc;strokeColor=#b85450;" parent="1" vertex="1">
          <mxGeometry x="720" y="1080" width="280" height="280" as="geometry" />
        </mxCell>
        <mxCell id="9ghoXm-9nMgsTZUyEOmh-146" value="&lt;span style=&quot;font-size: 20px;&quot;&gt;&lt;b&gt;Получить материал&lt;/b&gt;&lt;/span&gt;" style="text;html=1;align=center;verticalAlign=middle;whiteSpace=wrap;rounded=0;" parent="1" vertex="1">
          <mxGeometry x="720" y="1080" width="280" height="40" as="geometry" />
        </mxCell>
        <mxCell id="9ghoXm-9nMgsTZUyEOmh-147" value="" style="endArrow=none;html=1;rounded=0;exitX=0;exitY=1;exitDx=0;exitDy=0;" parent="1" source="9ghoXm-9nMgsTZUyEOmh-146" edge="1">
          <mxGeometry width="50" height="50" relative="1" as="geometry">
            <mxPoint x="950" y="1260" as="sourcePoint" />
            <mxPoint x="1000" y="1120" as="targetPoint" />
          </mxGeometry>
        </mxCell>
        <mxCell id="9ghoXm-9nMgsTZUyEOmh-148" value="&lt;span style=&quot;font-size: 16px;&quot;&gt;Потерять в битвах 50к&lt;/span&gt;" style="text;html=1;align=center;verticalAlign=middle;whiteSpace=wrap;rounded=0;" parent="1" vertex="1">
          <mxGeometry x="720" y="1120" width="280" height="120" as="geometry" />
        </mxCell>
        <mxCell id="9ghoXm-9nMgsTZUyEOmh-149" value="&lt;font style=&quot;font-size: 16px;&quot;&gt;-5 тех коста на 30 лет&lt;/font&gt;&lt;div&gt;&lt;font style=&quot;font-size: 16px;&quot;&gt;-30 нологе на зарплату Яркену&lt;/font&gt;&lt;/div&gt;" style="text;html=1;align=center;verticalAlign=middle;whiteSpace=wrap;rounded=0;" parent="1" vertex="1">
          <mxGeometry x="720" y="1240" width="280" height="110" as="geometry" />
        </mxCell>
        <mxCell id="9ghoXm-9nMgsTZUyEOmh-150" value="" style="endArrow=none;html=1;rounded=0;exitX=0;exitY=0;exitDx=0;exitDy=0;entryX=1;entryY=0;entryDx=0;entryDy=0;" parent="1" source="9ghoXm-9nMgsTZUyEOmh-149" target="9ghoXm-9nMgsTZUyEOmh-149" edge="1">
          <mxGeometry width="50" height="50" relative="1" as="geometry">
            <mxPoint x="930" y="1290" as="sourcePoint" />
            <mxPoint x="980" y="1240" as="targetPoint" />
          </mxGeometry>
        </mxCell>
        <mxCell id="9ghoXm-9nMgsTZUyEOmh-169" value="" style="rounded=0;whiteSpace=wrap;html=1;fillColor=#dae8fc;strokeColor=#6c8ebf;" parent="1" vertex="1">
          <mxGeometry x="1679.25" y="1080" width="280" height="280" as="geometry" />
        </mxCell>
        <mxCell id="9ghoXm-9nMgsTZUyEOmh-170" value="&lt;font size=&quot;1&quot;&gt;&lt;b style=&quot;font-size: 20px;&quot;&gt;Экономическая база&lt;/b&gt;&lt;/font&gt;" style="text;html=1;align=center;verticalAlign=middle;whiteSpace=wrap;rounded=0;" parent="1" vertex="1">
          <mxGeometry x="1679.25" y="1080" width="280" height="40" as="geometry" />
        </mxCell>
        <mxCell id="9ghoXm-9nMgsTZUyEOmh-171" value="" style="endArrow=none;html=1;rounded=0;exitX=0;exitY=1;exitDx=0;exitDy=0;" parent="1" source="9ghoXm-9nMgsTZUyEOmh-170" edge="1">
          <mxGeometry width="50" height="50" relative="1" as="geometry">
            <mxPoint x="1909.25" y="1260" as="sourcePoint" />
            <mxPoint x="1959.25" y="1120" as="targetPoint" />
          </mxGeometry>
        </mxCell>
        <mxCell id="9ghoXm-9nMgsTZUyEOmh-172" value="&lt;font style=&quot;font-size: 16px;&quot;&gt;оскорбить соперника соседа&lt;/font&gt;" style="text;html=1;align=center;verticalAlign=middle;whiteSpace=wrap;rounded=0;" parent="1" vertex="1">
          <mxGeometry x="1679.25" y="1090" width="280" height="120" as="geometry" />
        </mxCell>
        <mxCell id="adHzRCtXYdIg2MAHcMbn-32" style="edgeStyle=orthogonalEdgeStyle;rounded=0;orthogonalLoop=1;jettySize=auto;html=1;exitX=0.5;exitY=1;exitDx=0;exitDy=0;entryX=0.5;entryY=0;entryDx=0;entryDy=0;" parent="1" source="9ghoXm-9nMgsTZUyEOmh-173" target="adHzRCtXYdIg2MAHcMbn-20" edge="1">
          <mxGeometry relative="1" as="geometry" />
        </mxCell>
        <mxCell id="9ghoXm-9nMgsTZUyEOmh-173" value="&lt;font style=&quot;font-size: 16px;&quot;&gt;Событие: Не бойтесь, мы вас защитим&lt;/font&gt;" style="text;html=1;align=center;verticalAlign=middle;whiteSpace=wrap;rounded=0;" parent="1" vertex="1">
          <mxGeometry x="1679.25" y="1240" width="280" height="110" as="geometry" />
        </mxCell>
        <mxCell id="9ghoXm-9nMgsTZUyEOmh-174" value="" style="endArrow=none;html=1;rounded=0;exitX=0;exitY=0;exitDx=0;exitDy=0;entryX=1;entryY=0;entryDx=0;entryDy=0;" parent="1" source="9ghoXm-9nMgsTZUyEOmh-173" target="9ghoXm-9nMgsTZUyEOmh-173" edge="1">
          <mxGeometry width="50" height="50" relative="1" as="geometry">
            <mxPoint x="1889.25" y="1290" as="sourcePoint" />
            <mxPoint x="1939.25" y="1240" as="targetPoint" />
          </mxGeometry>
        </mxCell>
        <mxCell id="9ghoXm-9nMgsTZUyEOmh-183" value="" style="rounded=0;whiteSpace=wrap;html=1;" parent="1" vertex="1">
          <mxGeometry x="2038" y="1080" width="320" height="40" as="geometry" />
        </mxCell>
        <mxCell id="9ghoXm-9nMgsTZUyEOmh-184" value="" style="rounded=0;whiteSpace=wrap;html=1;" parent="1" vertex="1">
          <mxGeometry x="2038" y="1120" width="320" height="240" as="geometry" />
        </mxCell>
        <mxCell id="9ghoXm-9nMgsTZUyEOmh-185" value="&lt;span style=&quot;font-size: 20px;&quot;&gt;&lt;b&gt;Не бойтесь, мы вас защитим!&lt;/b&gt;&lt;/span&gt;" style="text;html=1;align=center;verticalAlign=middle;whiteSpace=wrap;rounded=0;" parent="1" vertex="1">
          <mxGeometry x="2036" y="1080" width="320" height="40" as="geometry" />
        </mxCell>
        <mxCell id="9ghoXm-9nMgsTZUyEOmh-186" value="&lt;div&gt;&lt;span style=&quot;font-size: 16px;&quot;&gt;все соперники и соседи вступают в коалицию&lt;/span&gt;&lt;/div&gt;&lt;span style=&quot;font-size: 16px;&quot;&gt;оскорбленный соперник нападает&lt;/span&gt;&lt;div&gt;&lt;br&gt;&lt;/div&gt;" style="text;html=1;align=center;verticalAlign=middle;whiteSpace=wrap;rounded=0;" parent="1" vertex="1">
          <mxGeometry x="2038" y="1120" width="320" height="240" as="geometry" />
        </mxCell>
        <mxCell id="9ghoXm-9nMgsTZUyEOmh-187" value="" style="rounded=0;whiteSpace=wrap;html=1;" parent="1" vertex="1">
          <mxGeometry x="2041" y="1480" width="320" height="40" as="geometry" />
        </mxCell>
        <mxCell id="9ghoXm-9nMgsTZUyEOmh-188" value="" style="rounded=0;whiteSpace=wrap;html=1;" parent="1" vertex="1">
          <mxGeometry x="2041" y="1520" width="320" height="240" as="geometry" />
        </mxCell>
        <mxCell id="9ghoXm-9nMgsTZUyEOmh-189" value="&lt;span style=&quot;font-size: 20px;&quot;&gt;&lt;b&gt;соседи недовольны&lt;/b&gt;&lt;/span&gt;" style="text;html=1;align=center;verticalAlign=middle;whiteSpace=wrap;rounded=0;" parent="1" vertex="1">
          <mxGeometry x="2039" y="1480" width="320" height="40" as="geometry" />
        </mxCell>
        <mxCell id="9ghoXm-9nMgsTZUyEOmh-190" value="&lt;span style=&quot;font-size: 16px;&quot;&gt;если будет коалиция накинет аггресивку&lt;/span&gt;" style="text;html=1;align=center;verticalAlign=middle;whiteSpace=wrap;rounded=0;" parent="1" vertex="1">
          <mxGeometry x="2041" y="1520" width="320" height="240" as="geometry" />
        </mxCell>
        <mxCell id="9ghoXm-9nMgsTZUyEOmh-265" style="edgeStyle=orthogonalEdgeStyle;rounded=0;orthogonalLoop=1;jettySize=auto;html=1;exitX=1;exitY=1;exitDx=0;exitDy=0;entryX=0.297;entryY=-0.044;entryDx=0;entryDy=0;entryPerimeter=0;" parent="1" source="9ghoXm-9nMgsTZUyEOmh-203" target="9ghoXm-9nMgsTZUyEOmh-244" edge="1">
          <mxGeometry relative="1" as="geometry">
            <Array as="points">
              <mxPoint x="1320" y="2200" />
              <mxPoint x="1443" y="2200" />
            </Array>
          </mxGeometry>
        </mxCell>
        <mxCell id="0Ew-OyiPKJsIfG58_g5D-158" style="edgeStyle=orthogonalEdgeStyle;rounded=0;orthogonalLoop=1;jettySize=auto;html=1;exitX=0.5;exitY=1;exitDx=0;exitDy=0;entryX=0.5;entryY=0;entryDx=0;entryDy=0;" parent="1" source="9ghoXm-9nMgsTZUyEOmh-203" target="0Ew-OyiPKJsIfG58_g5D-153" edge="1">
          <mxGeometry relative="1" as="geometry" />
        </mxCell>
        <mxCell id="9ghoXm-9nMgsTZUyEOmh-203" value="" style="rounded=0;whiteSpace=wrap;html=1;fillColor=#e1d5e7;strokeColor=#b85450;gradientColor=none;gradientDirection=west;" parent="1" vertex="1">
          <mxGeometry x="1040" y="1880" width="280" height="280" as="geometry" />
        </mxCell>
        <mxCell id="9ghoXm-9nMgsTZUyEOmh-204" value="&lt;font size=&quot;1&quot;&gt;&lt;b style=&quot;font-size: 20px;&quot;&gt;Начать скупку&lt;/b&gt;&lt;/font&gt;" style="text;html=1;align=center;verticalAlign=middle;whiteSpace=wrap;rounded=0;" parent="1" vertex="1">
          <mxGeometry x="1040" y="1880" width="280" height="40" as="geometry" />
        </mxCell>
        <mxCell id="9ghoXm-9nMgsTZUyEOmh-205" value="" style="endArrow=none;html=1;rounded=0;exitX=0;exitY=1;exitDx=0;exitDy=0;" parent="1" source="9ghoXm-9nMgsTZUyEOmh-204" edge="1">
          <mxGeometry width="50" height="50" relative="1" as="geometry">
            <mxPoint x="1270" y="2060" as="sourcePoint" />
            <mxPoint x="1320" y="1920" as="targetPoint" />
          </mxGeometry>
        </mxCell>
        <mxCell id="9ghoXm-9nMgsTZUyEOmh-206" value="&lt;font style=&quot;font-size: 16px;&quot;&gt;500 дева&lt;/font&gt;" style="text;html=1;align=center;verticalAlign=middle;whiteSpace=wrap;rounded=0;" parent="1" vertex="1">
          <mxGeometry x="1040" y="1920" width="280" height="120" as="geometry" />
        </mxCell>
        <mxCell id="9ghoXm-9nMgsTZUyEOmh-207" value="&lt;font style=&quot;font-size: 16px;&quot;&gt;-20 налогов&lt;/font&gt;&lt;div&gt;&lt;font style=&quot;font-size: 16px;&quot;&gt;+10 скорости рекрутов&lt;/font&gt;&lt;/div&gt;&lt;div&gt;&lt;font style=&quot;font-size: 16px;&quot;&gt;+5 гудсов&lt;/font&gt;&lt;/div&gt;&lt;div&gt;&lt;font style=&quot;font-size: 16px;&quot;&gt;-5 стоимости строительства&lt;/font&gt;&lt;/div&gt;&lt;div&gt;&lt;font style=&quot;font-size: 16px;&quot;&gt;на 20 лет&lt;/font&gt;&lt;/div&gt;" style="text;html=1;align=center;verticalAlign=middle;whiteSpace=wrap;rounded=0;" parent="1" vertex="1">
          <mxGeometry x="1040" y="2040" width="280" height="110" as="geometry" />
        </mxCell>
        <mxCell id="9ghoXm-9nMgsTZUyEOmh-208" value="" style="endArrow=none;html=1;rounded=0;exitX=0;exitY=0;exitDx=0;exitDy=0;entryX=1;entryY=0;entryDx=0;entryDy=0;" parent="1" source="9ghoXm-9nMgsTZUyEOmh-207" target="9ghoXm-9nMgsTZUyEOmh-207" edge="1">
          <mxGeometry width="50" height="50" relative="1" as="geometry">
            <mxPoint x="1250" y="2090" as="sourcePoint" />
            <mxPoint x="1300" y="2040" as="targetPoint" />
          </mxGeometry>
        </mxCell>
        <mxCell id="9ghoXm-9nMgsTZUyEOmh-209" value="" style="rounded=0;whiteSpace=wrap;html=1;fillColor=#f8cecc;strokeColor=#b85450;" parent="1" vertex="1">
          <mxGeometry x="1040" y="1480" width="280" height="280" as="geometry" />
        </mxCell>
        <mxCell id="9ghoXm-9nMgsTZUyEOmh-210" value="&lt;b style=&quot;font-size: 20px;&quot;&gt;Зомби солдаты&lt;/b&gt;" style="text;html=1;align=center;verticalAlign=middle;whiteSpace=wrap;rounded=0;" parent="1" vertex="1">
          <mxGeometry x="1040" y="1480" width="280" height="40" as="geometry" />
        </mxCell>
        <mxCell id="9ghoXm-9nMgsTZUyEOmh-211" value="" style="endArrow=none;html=1;rounded=0;exitX=0;exitY=1;exitDx=0;exitDy=0;" parent="1" source="9ghoXm-9nMgsTZUyEOmh-210" edge="1">
          <mxGeometry width="50" height="50" relative="1" as="geometry">
            <mxPoint x="1270" y="1660" as="sourcePoint" />
            <mxPoint x="1320" y="1520" as="targetPoint" />
          </mxGeometry>
        </mxCell>
        <mxCell id="9ghoXm-9nMgsTZUyEOmh-212" value="&lt;font style=&quot;font-size: 16px;&quot;&gt;менее половины рекрутов&lt;/font&gt;" style="text;html=1;align=center;verticalAlign=middle;whiteSpace=wrap;rounded=0;" parent="1" vertex="1">
          <mxGeometry x="1040" y="1520" width="280" height="120" as="geometry" />
        </mxCell>
        <mxCell id="adHzRCtXYdIg2MAHcMbn-81" style="edgeStyle=orthogonalEdgeStyle;rounded=0;orthogonalLoop=1;jettySize=auto;html=1;exitX=0.5;exitY=1;exitDx=0;exitDy=0;entryX=0.5;entryY=0;entryDx=0;entryDy=0;" parent="1" source="9ghoXm-9nMgsTZUyEOmh-213" target="9ghoXm-9nMgsTZUyEOmh-204" edge="1">
          <mxGeometry relative="1" as="geometry" />
        </mxCell>
        <mxCell id="9ghoXm-9nMgsTZUyEOmh-213" value="&lt;font style=&quot;font-size: 16px;&quot;&gt;-10 морали&amp;nbsp;&lt;/font&gt;&lt;div&gt;&lt;span style=&quot;font-size: 16px;&quot;&gt;-5 равновесия дворян&lt;/span&gt;&lt;/div&gt;&lt;div&gt;&lt;span style=&quot;font-size: 16px;&quot;&gt;-10 содержания армии&lt;br&gt;&lt;/span&gt;&lt;div&gt;&lt;font style=&quot;font-size: 16px;&quot;&gt;+33 восстановление рекрутов&lt;/font&gt;&lt;/div&gt;&lt;div&gt;&lt;font style=&quot;font-size: 16px;&quot;&gt;на 20 лет&lt;/font&gt;&lt;/div&gt;&lt;/div&gt;&lt;div&gt;&lt;font style=&quot;font-size: 16px;&quot;&gt;беспорядки и лигу до +2 -1&lt;/font&gt;&lt;/div&gt;" style="text;html=1;align=center;verticalAlign=middle;whiteSpace=wrap;rounded=0;" parent="1" vertex="1">
          <mxGeometry x="1040" y="1640" width="280" height="120" as="geometry" />
        </mxCell>
        <mxCell id="9ghoXm-9nMgsTZUyEOmh-214" value="" style="endArrow=none;html=1;rounded=0;exitX=0;exitY=0;exitDx=0;exitDy=0;entryX=1;entryY=0;entryDx=0;entryDy=0;" parent="1" source="9ghoXm-9nMgsTZUyEOmh-213" target="9ghoXm-9nMgsTZUyEOmh-213" edge="1">
          <mxGeometry width="50" height="50" relative="1" as="geometry">
            <mxPoint x="1250" y="1690" as="sourcePoint" />
            <mxPoint x="1300" y="1640" as="targetPoint" />
          </mxGeometry>
        </mxCell>
        <mxCell id="9ghoXm-9nMgsTZUyEOmh-223" style="edgeStyle=orthogonalEdgeStyle;rounded=0;orthogonalLoop=1;jettySize=auto;html=1;exitX=0.25;exitY=1;exitDx=0;exitDy=0;entryX=0.457;entryY=-0.037;entryDx=0;entryDy=0;entryPerimeter=0;" parent="1" source="9ghoXm-9nMgsTZUyEOmh-138" target="9ghoXm-9nMgsTZUyEOmh-146" edge="1">
          <mxGeometry relative="1" as="geometry">
            <Array as="points">
              <mxPoint x="1110" y="1000" />
              <mxPoint x="848" y="1000" />
            </Array>
          </mxGeometry>
        </mxCell>
        <mxCell id="0Ew-OyiPKJsIfG58_g5D-213" style="edgeStyle=orthogonalEdgeStyle;rounded=0;orthogonalLoop=1;jettySize=auto;html=1;exitX=0.5;exitY=1;exitDx=0;exitDy=0;entryX=0.5;entryY=0;entryDx=0;entryDy=0;" parent="1" source="9ghoXm-9nMgsTZUyEOmh-243" target="0Ew-OyiPKJsIfG58_g5D-184" edge="1">
          <mxGeometry relative="1" as="geometry" />
        </mxCell>
        <mxCell id="9ghoXm-9nMgsTZUyEOmh-243" value="" style="rounded=0;whiteSpace=wrap;html=1;fillColor=#dae8fc;strokeColor=#6c8ebf;" parent="1" vertex="1">
          <mxGeometry x="1360" y="2280" width="280" height="280" as="geometry" />
        </mxCell>
        <mxCell id="9ghoXm-9nMgsTZUyEOmh-244" value="&lt;font size=&quot;1&quot;&gt;&lt;b style=&quot;font-size: 20px;&quot;&gt;Начать скупку за рубежом&lt;/b&gt;&lt;/font&gt;" style="text;html=1;align=center;verticalAlign=middle;whiteSpace=wrap;rounded=0;" parent="1" vertex="1">
          <mxGeometry x="1360" y="2280" width="280" height="40" as="geometry" />
        </mxCell>
        <mxCell id="9ghoXm-9nMgsTZUyEOmh-245" value="" style="endArrow=none;html=1;rounded=0;exitX=0;exitY=1;exitDx=0;exitDy=0;" parent="1" source="9ghoXm-9nMgsTZUyEOmh-244" edge="1">
          <mxGeometry width="50" height="50" relative="1" as="geometry">
            <mxPoint x="1590" y="2460" as="sourcePoint" />
            <mxPoint x="1640" y="2320" as="targetPoint" />
          </mxGeometry>
        </mxCell>
        <mxCell id="9ghoXm-9nMgsTZUyEOmh-246" value="&lt;span style=&quot;font-size: 16px;&quot;&gt;модификатор скупки кончился&lt;/span&gt;" style="text;html=1;align=center;verticalAlign=middle;whiteSpace=wrap;rounded=0;" parent="1" vertex="1">
          <mxGeometry x="1360" y="2320" width="280" height="120" as="geometry" />
        </mxCell>
        <mxCell id="9ghoXm-9nMgsTZUyEOmh-247" value="&lt;font style=&quot;font-size: 16px;&quot;&gt;доступ к дип кнопке купить трупов у союзника&lt;/font&gt;" style="text;html=1;align=center;verticalAlign=middle;whiteSpace=wrap;rounded=0;" parent="1" vertex="1">
          <mxGeometry x="1360" y="2440" width="280" height="110" as="geometry" />
        </mxCell>
        <mxCell id="9ghoXm-9nMgsTZUyEOmh-248" value="" style="endArrow=none;html=1;rounded=0;exitX=0;exitY=0;exitDx=0;exitDy=0;entryX=1;entryY=0;entryDx=0;entryDy=0;" parent="1" source="9ghoXm-9nMgsTZUyEOmh-247" target="9ghoXm-9nMgsTZUyEOmh-247" edge="1">
          <mxGeometry width="50" height="50" relative="1" as="geometry">
            <mxPoint x="1570" y="2490" as="sourcePoint" />
            <mxPoint x="1620" y="2440" as="targetPoint" />
          </mxGeometry>
        </mxCell>
        <mxCell id="adHzRCtXYdIg2MAHcMbn-35" style="edgeStyle=orthogonalEdgeStyle;rounded=0;orthogonalLoop=1;jettySize=auto;html=1;exitX=1;exitY=1;exitDx=0;exitDy=0;entryX=0;entryY=0;entryDx=0;entryDy=0;" parent="1" source="9ghoXm-9nMgsTZUyEOmh-255" target="0Ew-OyiPKJsIfG58_g5D-87" edge="1">
          <mxGeometry relative="1" as="geometry">
            <Array as="points">
              <mxPoint x="1640" y="2200" />
              <mxPoint x="1680" y="2200" />
            </Array>
          </mxGeometry>
        </mxCell>
        <mxCell id="9ghoXm-9nMgsTZUyEOmh-255" value="" style="rounded=0;whiteSpace=wrap;html=1;fillColor=#dae8fc;strokeColor=#6c8ebf;" parent="1" vertex="1">
          <mxGeometry x="1360" y="1880" width="280" height="280" as="geometry" />
        </mxCell>
        <mxCell id="9ghoXm-9nMgsTZUyEOmh-256" value="&lt;font size=&quot;1&quot;&gt;&lt;b style=&quot;font-size: 20px;&quot;&gt;соседи успокоились&lt;/b&gt;&lt;/font&gt;" style="text;html=1;align=center;verticalAlign=middle;whiteSpace=wrap;rounded=0;" parent="1" vertex="1">
          <mxGeometry x="1360" y="1880" width="280" height="40" as="geometry" />
        </mxCell>
        <mxCell id="9ghoXm-9nMgsTZUyEOmh-257" value="" style="endArrow=none;html=1;rounded=0;exitX=0;exitY=1;exitDx=0;exitDy=0;" parent="1" source="9ghoXm-9nMgsTZUyEOmh-256" edge="1">
          <mxGeometry width="50" height="50" relative="1" as="geometry">
            <mxPoint x="1590" y="2060" as="sourcePoint" />
            <mxPoint x="1640" y="1920" as="targetPoint" />
          </mxGeometry>
        </mxCell>
        <mxCell id="9ghoXm-9nMgsTZUyEOmh-258" value="&lt;span style=&quot;font-size: 16px;&quot;&gt;15 стран 80 улучшения отношений&lt;/span&gt;" style="text;html=1;align=center;verticalAlign=middle;whiteSpace=wrap;rounded=0;" parent="1" vertex="1">
          <mxGeometry x="1360" y="1920" width="280" height="120" as="geometry" />
        </mxCell>
        <mxCell id="adHzRCtXYdIg2MAHcMbn-17" style="edgeStyle=orthogonalEdgeStyle;rounded=0;orthogonalLoop=1;jettySize=auto;html=1;exitX=0.5;exitY=1;exitDx=0;exitDy=0;entryX=0.5;entryY=0;entryDx=0;entryDy=0;" parent="1" source="9ghoXm-9nMgsTZUyEOmh-259" target="9ghoXm-9nMgsTZUyEOmh-244" edge="1">
          <mxGeometry relative="1" as="geometry" />
        </mxCell>
        <mxCell id="9ghoXm-9nMgsTZUyEOmh-259" value="&lt;font style=&quot;font-size: 16px;&quot;&gt;уменьшить дип штрафы пополам&lt;/font&gt;" style="text;html=1;align=center;verticalAlign=middle;whiteSpace=wrap;rounded=0;" parent="1" vertex="1">
          <mxGeometry x="1360" y="2040" width="280" height="110" as="geometry" />
        </mxCell>
        <mxCell id="9ghoXm-9nMgsTZUyEOmh-260" value="" style="endArrow=none;html=1;rounded=0;exitX=0;exitY=0;exitDx=0;exitDy=0;entryX=1;entryY=0;entryDx=0;entryDy=0;" parent="1" source="9ghoXm-9nMgsTZUyEOmh-259" target="9ghoXm-9nMgsTZUyEOmh-259" edge="1">
          <mxGeometry width="50" height="50" relative="1" as="geometry">
            <mxPoint x="1570" y="2090" as="sourcePoint" />
            <mxPoint x="1620" y="2040" as="targetPoint" />
          </mxGeometry>
        </mxCell>
        <mxCell id="9ghoXm-9nMgsTZUyEOmh-267" value="" style="rounded=0;whiteSpace=wrap;html=1;fillColor=#fff2cc;strokeColor=#d6b656;" parent="1" vertex="1">
          <mxGeometry x="720" y="1480" width="280" height="280" as="geometry" />
        </mxCell>
        <mxCell id="9ghoXm-9nMgsTZUyEOmh-268" value="&lt;span style=&quot;font-size: 20px;&quot;&gt;&lt;b&gt;Успокоить церковь&lt;/b&gt;&lt;/span&gt;" style="text;html=1;align=center;verticalAlign=middle;whiteSpace=wrap;rounded=0;" parent="1" vertex="1">
          <mxGeometry x="720" y="1480" width="280" height="40" as="geometry" />
        </mxCell>
        <mxCell id="9ghoXm-9nMgsTZUyEOmh-269" value="" style="endArrow=none;html=1;rounded=0;exitX=0;exitY=1;exitDx=0;exitDy=0;" parent="1" source="9ghoXm-9nMgsTZUyEOmh-268" edge="1">
          <mxGeometry width="50" height="50" relative="1" as="geometry">
            <mxPoint x="950" y="1660" as="sourcePoint" />
            <mxPoint x="1000" y="1520" as="targetPoint" />
          </mxGeometry>
        </mxCell>
        <mxCell id="9ghoXm-9nMgsTZUyEOmh-270" value="&lt;font style=&quot;font-size: 16px;&quot;&gt;лояльность церкви 70&lt;/font&gt;" style="text;html=1;align=center;verticalAlign=middle;whiteSpace=wrap;rounded=0;" parent="1" vertex="1">
          <mxGeometry x="720" y="1520" width="280" height="120" as="geometry" />
        </mxCell>
        <mxCell id="adHzRCtXYdIg2MAHcMbn-70" style="edgeStyle=orthogonalEdgeStyle;rounded=0;orthogonalLoop=1;jettySize=auto;html=1;exitX=0.5;exitY=1;exitDx=0;exitDy=0;entryX=0.5;entryY=0;entryDx=0;entryDy=0;" parent="1" source="9ghoXm-9nMgsTZUyEOmh-271" target="0Ew-OyiPKJsIfG58_g5D-94" edge="1">
          <mxGeometry relative="1" as="geometry" />
        </mxCell>
        <mxCell id="9ghoXm-9nMgsTZUyEOmh-271" value="&lt;span style=&quot;font-size: 16px;&quot;&gt;-10 нологов&lt;/span&gt;&lt;div&gt;&lt;span style=&quot;font-size: 16px;&quot;&gt;уменьшит штрафы до&lt;/span&gt;&lt;/div&gt;&lt;div&gt;&lt;span style=&quot;font-size: 16px;&quot;&gt;-2 истинной&lt;/span&gt;&lt;/div&gt;&lt;div&gt;&lt;span style=&quot;font-size: 16px;&quot;&gt;-25 единства&lt;/span&gt;&lt;/div&gt;" style="text;html=1;align=center;verticalAlign=middle;whiteSpace=wrap;rounded=0;" parent="1" vertex="1">
          <mxGeometry x="720" y="1640" width="280" height="110" as="geometry" />
        </mxCell>
        <mxCell id="9ghoXm-9nMgsTZUyEOmh-272" value="" style="endArrow=none;html=1;rounded=0;exitX=0;exitY=0;exitDx=0;exitDy=0;entryX=1;entryY=0;entryDx=0;entryDy=0;" parent="1" source="9ghoXm-9nMgsTZUyEOmh-271" target="9ghoXm-9nMgsTZUyEOmh-271" edge="1">
          <mxGeometry width="50" height="50" relative="1" as="geometry">
            <mxPoint x="930" y="1690" as="sourcePoint" />
            <mxPoint x="980" y="1640" as="targetPoint" />
          </mxGeometry>
        </mxCell>
        <mxCell id="0Ew-OyiPKJsIfG58_g5D-1" value="" style="rounded=0;whiteSpace=wrap;html=1;fillColor=#e1d5e7;strokeColor=#9673a6;" parent="1" vertex="1">
          <mxGeometry x="1040" y="6600" width="280" height="280" as="geometry" />
        </mxCell>
        <mxCell id="0Ew-OyiPKJsIfG58_g5D-2" value="&lt;font size=&quot;1&quot;&gt;&lt;b style=&quot;font-size: 20px;&quot;&gt;Яркен на троне&lt;/b&gt;&lt;/font&gt;" style="text;html=1;align=center;verticalAlign=middle;whiteSpace=wrap;rounded=0;" parent="1" vertex="1">
          <mxGeometry x="1040" y="6600" width="280" height="40" as="geometry" />
        </mxCell>
        <mxCell id="0Ew-OyiPKJsIfG58_g5D-3" value="" style="endArrow=none;html=1;rounded=0;exitX=0;exitY=1;exitDx=0;exitDy=0;" parent="1" source="0Ew-OyiPKJsIfG58_g5D-2" edge="1">
          <mxGeometry width="50" height="50" relative="1" as="geometry">
            <mxPoint x="1270" y="6780" as="sourcePoint" />
            <mxPoint x="1320" y="6640" as="targetPoint" />
          </mxGeometry>
        </mxCell>
        <mxCell id="0Ew-OyiPKJsIfG58_g5D-4" value="&lt;font style=&quot;font-size: 16px;&quot;&gt;Проиграть восстание&lt;/font&gt;" style="text;html=1;align=center;verticalAlign=middle;whiteSpace=wrap;rounded=0;" parent="1" vertex="1">
          <mxGeometry x="1040" y="6640" width="280" height="120" as="geometry" />
        </mxCell>
        <mxCell id="0Ew-OyiPKJsIfG58_g5D-5" value="&lt;font style=&quot;font-size: 16px;&quot;&gt;Text&lt;/font&gt;" style="text;html=1;align=center;verticalAlign=middle;whiteSpace=wrap;rounded=0;" parent="1" vertex="1">
          <mxGeometry x="1040" y="6760" width="280" height="110" as="geometry" />
        </mxCell>
        <mxCell id="0Ew-OyiPKJsIfG58_g5D-6" value="" style="endArrow=none;html=1;rounded=0;exitX=0;exitY=0;exitDx=0;exitDy=0;entryX=1;entryY=0;entryDx=0;entryDy=0;" parent="1" source="0Ew-OyiPKJsIfG58_g5D-5" target="0Ew-OyiPKJsIfG58_g5D-5" edge="1">
          <mxGeometry width="50" height="50" relative="1" as="geometry">
            <mxPoint x="1250" y="6810" as="sourcePoint" />
            <mxPoint x="1300" y="6760" as="targetPoint" />
          </mxGeometry>
        </mxCell>
        <mxCell id="0Ew-OyiPKJsIfG58_g5D-43" style="edgeStyle=orthogonalEdgeStyle;rounded=0;orthogonalLoop=1;jettySize=auto;html=1;exitX=0.5;exitY=1;exitDx=0;exitDy=0;entryX=0.5;entryY=0;entryDx=0;entryDy=0;" parent="1" source="0Ew-OyiPKJsIfG58_g5D-7" target="0Ew-OyiPKJsIfG58_g5D-2" edge="1">
          <mxGeometry relative="1" as="geometry" />
        </mxCell>
        <mxCell id="0Ew-OyiPKJsIfG58_g5D-7" value="" style="rounded=0;whiteSpace=wrap;html=1;fillColor=#e1d5e7;strokeColor=#9673a6;" parent="1" vertex="1">
          <mxGeometry x="1039.5" y="6196" width="280" height="280" as="geometry" />
        </mxCell>
        <mxCell id="0Ew-OyiPKJsIfG58_g5D-8" value="&lt;span style=&quot;font-size: 20px;&quot;&gt;&lt;b&gt;Решение&lt;/b&gt;&lt;/span&gt;" style="text;html=1;align=center;verticalAlign=middle;whiteSpace=wrap;rounded=0;" parent="1" vertex="1">
          <mxGeometry x="1039.5" y="6196" width="280" height="40" as="geometry" />
        </mxCell>
        <mxCell id="0Ew-OyiPKJsIfG58_g5D-9" value="" style="endArrow=none;html=1;rounded=0;exitX=0;exitY=1;exitDx=0;exitDy=0;" parent="1" source="0Ew-OyiPKJsIfG58_g5D-8" edge="1">
          <mxGeometry width="50" height="50" relative="1" as="geometry">
            <mxPoint x="1269.5" y="6376" as="sourcePoint" />
            <mxPoint x="1319.5" y="6236" as="targetPoint" />
          </mxGeometry>
        </mxCell>
        <mxCell id="0Ew-OyiPKJsIfG58_g5D-10" value="&lt;font style=&quot;font-size: 16px;&quot;&gt;мир&lt;/font&gt;&lt;div&gt;&lt;span style=&quot;font-size: 16px;&quot;&gt;найти способ&lt;/span&gt;&lt;/div&gt;" style="text;html=1;align=center;verticalAlign=middle;whiteSpace=wrap;rounded=0;" parent="1" vertex="1">
          <mxGeometry x="1039.5" y="6236" width="280" height="120" as="geometry" />
        </mxCell>
        <mxCell id="0Ew-OyiPKJsIfG58_g5D-11" value="&lt;font style=&quot;font-size: 16px;&quot;&gt;событие: ищем знания&lt;/font&gt;" style="text;html=1;align=center;verticalAlign=middle;whiteSpace=wrap;rounded=0;" parent="1" vertex="1">
          <mxGeometry x="1039.5" y="6356" width="280" height="110" as="geometry" />
        </mxCell>
        <mxCell id="0Ew-OyiPKJsIfG58_g5D-12" value="" style="endArrow=none;html=1;rounded=0;exitX=0;exitY=0;exitDx=0;exitDy=0;entryX=1;entryY=0;entryDx=0;entryDy=0;" parent="1" source="0Ew-OyiPKJsIfG58_g5D-11" target="0Ew-OyiPKJsIfG58_g5D-11" edge="1">
          <mxGeometry width="50" height="50" relative="1" as="geometry">
            <mxPoint x="1249.5" y="6406" as="sourcePoint" />
            <mxPoint x="1299.5" y="6356" as="targetPoint" />
          </mxGeometry>
        </mxCell>
        <mxCell id="0Ew-OyiPKJsIfG58_g5D-13" value="" style="rounded=0;whiteSpace=wrap;html=1;" parent="1" vertex="1">
          <mxGeometry x="1999" y="6196" width="320" height="40" as="geometry" />
        </mxCell>
        <mxCell id="0Ew-OyiPKJsIfG58_g5D-14" value="" style="rounded=0;whiteSpace=wrap;html=1;" parent="1" vertex="1">
          <mxGeometry x="1999" y="6236" width="320" height="240" as="geometry" />
        </mxCell>
        <mxCell id="0Ew-OyiPKJsIfG58_g5D-15" value="&lt;span style=&quot;font-size: 20px;&quot;&gt;&lt;b&gt;ищем знания&lt;/b&gt;&lt;/span&gt;" style="text;html=1;align=center;verticalAlign=middle;whiteSpace=wrap;rounded=0;" parent="1" vertex="1">
          <mxGeometry x="1997" y="6196" width="320" height="40" as="geometry" />
        </mxCell>
        <mxCell id="0Ew-OyiPKJsIfG58_g5D-16" value="&lt;span style=&quot;font-size: 16px;&quot;&gt;событие через месяц ритуал&lt;/span&gt;" style="text;html=1;align=center;verticalAlign=middle;whiteSpace=wrap;rounded=0;" parent="1" vertex="1">
          <mxGeometry x="1999" y="6236" width="320" height="240" as="geometry" />
        </mxCell>
        <mxCell id="0Ew-OyiPKJsIfG58_g5D-17" value="" style="rounded=0;whiteSpace=wrap;html=1;" parent="1" vertex="1">
          <mxGeometry x="2363" y="6196" width="320" height="40" as="geometry" />
        </mxCell>
        <mxCell id="0Ew-OyiPKJsIfG58_g5D-18" value="" style="rounded=0;whiteSpace=wrap;html=1;" parent="1" vertex="1">
          <mxGeometry x="2363" y="6236" width="320" height="240" as="geometry" />
        </mxCell>
        <mxCell id="0Ew-OyiPKJsIfG58_g5D-19" value="&lt;span style=&quot;font-size: 20px;&quot;&gt;&lt;b&gt;ритуал&lt;/b&gt;&lt;/span&gt;" style="text;html=1;align=center;verticalAlign=middle;whiteSpace=wrap;rounded=0;" parent="1" vertex="1">
          <mxGeometry x="2361" y="6196" width="320" height="40" as="geometry" />
        </mxCell>
        <mxCell id="0Ew-OyiPKJsIfG58_g5D-20" value="&lt;span style=&quot;font-size: 16px;&quot;&gt;событие через месяц а что случилось?&lt;/span&gt;" style="text;html=1;align=center;verticalAlign=middle;whiteSpace=wrap;rounded=0;" parent="1" vertex="1">
          <mxGeometry x="2363" y="6236" width="320" height="240" as="geometry" />
        </mxCell>
        <mxCell id="0Ew-OyiPKJsIfG58_g5D-21" value="" style="rounded=0;whiteSpace=wrap;html=1;" parent="1" vertex="1">
          <mxGeometry x="2723" y="6196" width="320" height="40" as="geometry" />
        </mxCell>
        <mxCell id="0Ew-OyiPKJsIfG58_g5D-22" value="" style="rounded=0;whiteSpace=wrap;html=1;" parent="1" vertex="1">
          <mxGeometry x="2723" y="6236" width="320" height="240" as="geometry" />
        </mxCell>
        <mxCell id="0Ew-OyiPKJsIfG58_g5D-23" value="&lt;span style=&quot;font-size: 20px;&quot;&gt;&lt;b&gt;а что случилось&lt;/b&gt;&lt;/span&gt;" style="text;html=1;align=center;verticalAlign=middle;whiteSpace=wrap;rounded=0;" parent="1" vertex="1">
          <mxGeometry x="2721" y="6196" width="320" height="40" as="geometry" />
        </mxCell>
        <mxCell id="0Ew-OyiPKJsIfG58_g5D-24" value="&lt;span style=&quot;font-size: 16px;&quot;&gt;приходит посланник короля побазарили&lt;/span&gt;&lt;div&gt;&lt;span style=&quot;font-size: 16px;&quot;&gt;событие на следующий день сопротивление&lt;/span&gt;&lt;/div&gt;" style="text;html=1;align=center;verticalAlign=middle;whiteSpace=wrap;rounded=0;" parent="1" vertex="1">
          <mxGeometry x="2723" y="6236" width="320" height="240" as="geometry" />
        </mxCell>
        <mxCell id="0Ew-OyiPKJsIfG58_g5D-25" value="" style="rounded=0;whiteSpace=wrap;html=1;" parent="1" vertex="1">
          <mxGeometry x="3083" y="6196" width="320" height="40" as="geometry" />
        </mxCell>
        <mxCell id="0Ew-OyiPKJsIfG58_g5D-26" value="" style="rounded=0;whiteSpace=wrap;html=1;" parent="1" vertex="1">
          <mxGeometry x="3083" y="6236" width="320" height="240" as="geometry" />
        </mxCell>
        <mxCell id="0Ew-OyiPKJsIfG58_g5D-27" value="&lt;span style=&quot;font-size: 20px;&quot;&gt;&lt;b&gt;сопротивление&lt;/b&gt;&lt;/span&gt;" style="text;html=1;align=center;verticalAlign=middle;whiteSpace=wrap;rounded=0;" parent="1" vertex="1">
          <mxGeometry x="3081" y="6196" width="320" height="40" as="geometry" />
        </mxCell>
        <mxCell id="0Ew-OyiPKJsIfG58_g5D-28" value="&lt;span style=&quot;font-size: 16px;&quot;&gt;теряем все войска&amp;nbsp;&lt;/span&gt;&lt;div&gt;&lt;span style=&quot;font-size: 16px;&quot;&gt;повсюду восстания&lt;/span&gt;&lt;/div&gt;&lt;div&gt;&lt;span style=&quot;font-size: 16px;&quot;&gt;открываем следующую миссию&lt;/span&gt;&lt;/div&gt;" style="text;html=1;align=center;verticalAlign=middle;whiteSpace=wrap;rounded=0;" parent="1" vertex="1">
          <mxGeometry x="3083" y="6236" width="320" height="240" as="geometry" />
        </mxCell>
        <mxCell id="0Ew-OyiPKJsIfG58_g5D-29" value="" style="rounded=0;whiteSpace=wrap;html=1;fillColor=#e1d5e7;strokeColor=#9673a6;" parent="1" vertex="1">
          <mxGeometry x="1039.5" y="5796" width="280" height="280" as="geometry" />
        </mxCell>
        <mxCell id="0Ew-OyiPKJsIfG58_g5D-30" value="&lt;span style=&quot;font-size: 20px;&quot;&gt;&lt;b&gt;Не в ладах с собой&lt;/b&gt;&lt;/span&gt;" style="text;html=1;align=center;verticalAlign=middle;whiteSpace=wrap;rounded=0;" parent="1" vertex="1">
          <mxGeometry x="1039.5" y="5796" width="280" height="40" as="geometry" />
        </mxCell>
        <mxCell id="0Ew-OyiPKJsIfG58_g5D-31" value="" style="endArrow=none;html=1;rounded=0;exitX=0;exitY=1;exitDx=0;exitDy=0;" parent="1" source="0Ew-OyiPKJsIfG58_g5D-30" edge="1">
          <mxGeometry width="50" height="50" relative="1" as="geometry">
            <mxPoint x="1269.5" y="5976" as="sourcePoint" />
            <mxPoint x="1319.5" y="5836" as="targetPoint" />
          </mxGeometry>
        </mxCell>
        <mxCell id="0Ew-OyiPKJsIfG58_g5D-32" value="&lt;div&gt;&lt;span style=&quot;font-size: 16px;&quot;&gt;3 стабы&lt;/span&gt;&lt;/div&gt;&lt;div&gt;&lt;span style=&quot;font-size: 16px;&quot;&gt;100 лиги&amp;nbsp;&lt;/span&gt;&lt;/div&gt;&lt;div&gt;&lt;span style=&quot;font-size: 16px;&quot;&gt;300к армия&lt;/span&gt;&lt;/div&gt;&lt;div&gt;&lt;span style=&quot;font-size: 16px;&quot;&gt;500 дохода&lt;/span&gt;&lt;/div&gt;" style="text;html=1;align=center;verticalAlign=middle;whiteSpace=wrap;rounded=0;" parent="1" vertex="1">
          <mxGeometry x="1039.5" y="5836" width="280" height="120" as="geometry" />
        </mxCell>
        <mxCell id="0Ew-OyiPKJsIfG58_g5D-44" style="edgeStyle=orthogonalEdgeStyle;rounded=0;orthogonalLoop=1;jettySize=auto;html=1;entryX=0.5;entryY=0;entryDx=0;entryDy=0;" parent="1" source="0Ew-OyiPKJsIfG58_g5D-33" target="0Ew-OyiPKJsIfG58_g5D-8" edge="1">
          <mxGeometry relative="1" as="geometry" />
        </mxCell>
        <mxCell id="0Ew-OyiPKJsIfG58_g5D-33" value="&lt;font style=&quot;font-size: 16px;&quot;&gt;событие: он устал&lt;/font&gt;" style="text;html=1;align=center;verticalAlign=middle;whiteSpace=wrap;rounded=0;" parent="1" vertex="1">
          <mxGeometry x="1039.5" y="5956" width="280" height="110" as="geometry" />
        </mxCell>
        <mxCell id="0Ew-OyiPKJsIfG58_g5D-34" value="" style="endArrow=none;html=1;rounded=0;exitX=0;exitY=0;exitDx=0;exitDy=0;entryX=1;entryY=0;entryDx=0;entryDy=0;" parent="1" source="0Ew-OyiPKJsIfG58_g5D-33" target="0Ew-OyiPKJsIfG58_g5D-33" edge="1">
          <mxGeometry width="50" height="50" relative="1" as="geometry">
            <mxPoint x="1249.5" y="6006" as="sourcePoint" />
            <mxPoint x="1299.5" y="5956" as="targetPoint" />
          </mxGeometry>
        </mxCell>
        <mxCell id="0Ew-OyiPKJsIfG58_g5D-35" value="" style="rounded=0;whiteSpace=wrap;html=1;" parent="1" vertex="1">
          <mxGeometry x="2365" y="5806" width="320" height="40" as="geometry" />
        </mxCell>
        <mxCell id="0Ew-OyiPKJsIfG58_g5D-36" value="" style="rounded=0;whiteSpace=wrap;html=1;" parent="1" vertex="1">
          <mxGeometry x="2365" y="5846" width="320" height="240" as="geometry" />
        </mxCell>
        <mxCell id="0Ew-OyiPKJsIfG58_g5D-37" value="&lt;span style=&quot;font-size: 16px;&quot;&gt;хотю быть бессмертным&lt;/span&gt;" style="text;html=1;align=center;verticalAlign=middle;whiteSpace=wrap;rounded=0;" parent="1" vertex="1">
          <mxGeometry x="2363" y="5806" width="320" height="40" as="geometry" />
        </mxCell>
        <mxCell id="0Ew-OyiPKJsIfG58_g5D-38" value="&lt;span style=&quot;font-size: 16px;&quot;&gt;открыть решение на поиск способа бессмертия&lt;/span&gt;" style="text;html=1;align=center;verticalAlign=middle;whiteSpace=wrap;rounded=0;" parent="1" vertex="1">
          <mxGeometry x="2365" y="5846" width="320" height="240" as="geometry" />
        </mxCell>
        <mxCell id="0Ew-OyiPKJsIfG58_g5D-39" value="" style="rounded=0;whiteSpace=wrap;html=1;" parent="1" vertex="1">
          <mxGeometry x="2727" y="5806" width="320" height="40" as="geometry" />
        </mxCell>
        <mxCell id="0Ew-OyiPKJsIfG58_g5D-40" value="" style="rounded=0;whiteSpace=wrap;html=1;" parent="1" vertex="1">
          <mxGeometry x="2727" y="5846" width="320" height="240" as="geometry" />
        </mxCell>
        <mxCell id="0Ew-OyiPKJsIfG58_g5D-41" value="&lt;span style=&quot;font-size: 16px;&quot;&gt;всё фигня&lt;/span&gt;" style="text;html=1;align=center;verticalAlign=middle;whiteSpace=wrap;rounded=0;" parent="1" vertex="1">
          <mxGeometry x="2725" y="5806" width="320" height="40" as="geometry" />
        </mxCell>
        <mxCell id="0Ew-OyiPKJsIfG58_g5D-42" value="&lt;span style=&quot;font-size: 16px;&quot;&gt;в конце всё будет не то&lt;/span&gt;&lt;div&gt;&lt;span style=&quot;font-size: 16px;&quot;&gt;и он решит стать личем&lt;/span&gt;&lt;/div&gt;&lt;div&gt;&lt;span style=&quot;font-size: 16px;&quot;&gt;открыть следующую миссию&lt;/span&gt;&lt;/div&gt;" style="text;html=1;align=center;verticalAlign=middle;whiteSpace=wrap;rounded=0;" parent="1" vertex="1">
          <mxGeometry x="2727" y="5846" width="320" height="240" as="geometry" />
        </mxCell>
        <mxCell id="0Ew-OyiPKJsIfG58_g5D-238" style="edgeStyle=orthogonalEdgeStyle;rounded=0;orthogonalLoop=1;jettySize=auto;html=1;exitX=0.5;exitY=1;exitDx=0;exitDy=0;entryX=0.5;entryY=0;entryDx=0;entryDy=0;" parent="1" source="0Ew-OyiPKJsIfG58_g5D-57" target="0Ew-OyiPKJsIfG58_g5D-130" edge="1">
          <mxGeometry relative="1" as="geometry" />
        </mxCell>
        <mxCell id="0Ew-OyiPKJsIfG58_g5D-57" value="" style="rounded=0;whiteSpace=wrap;html=1;fillColor=#d5e8d4;strokeColor=#82b366;" parent="1" vertex="1">
          <mxGeometry x="720" y="3883" width="280" height="280" as="geometry" />
        </mxCell>
        <mxCell id="0Ew-OyiPKJsIfG58_g5D-58" value="&lt;font size=&quot;1&quot;&gt;&lt;b style=&quot;font-size: 20px;&quot;&gt;мега фабрика&lt;/b&gt;&lt;/font&gt;" style="text;html=1;align=center;verticalAlign=middle;whiteSpace=wrap;rounded=0;" parent="1" vertex="1">
          <mxGeometry x="720" y="3883" width="280" height="40" as="geometry" />
        </mxCell>
        <mxCell id="0Ew-OyiPKJsIfG58_g5D-59" value="" style="endArrow=none;html=1;rounded=0;exitX=0;exitY=1;exitDx=0;exitDy=0;" parent="1" source="0Ew-OyiPKJsIfG58_g5D-58" edge="1">
          <mxGeometry width="50" height="50" relative="1" as="geometry">
            <mxPoint x="950" y="4063" as="sourcePoint" />
            <mxPoint x="1000" y="3923" as="targetPoint" />
          </mxGeometry>
        </mxCell>
        <mxCell id="0Ew-OyiPKJsIfG58_g5D-60" value="&lt;font style=&quot;font-size: 16px;&quot;&gt;улучшить монумент до 3 лвла&lt;/font&gt;" style="text;html=1;align=center;verticalAlign=middle;whiteSpace=wrap;rounded=0;" parent="1" vertex="1">
          <mxGeometry x="720" y="3923" width="280" height="120" as="geometry" />
        </mxCell>
        <mxCell id="0Ew-OyiPKJsIfG58_g5D-61" value="&lt;font style=&quot;font-size: 16px;&quot;&gt;Text&lt;/font&gt;" style="text;html=1;align=center;verticalAlign=middle;whiteSpace=wrap;rounded=0;" parent="1" vertex="1">
          <mxGeometry x="720" y="4043" width="280" height="110" as="geometry" />
        </mxCell>
        <mxCell id="0Ew-OyiPKJsIfG58_g5D-62" value="" style="endArrow=none;html=1;rounded=0;exitX=0;exitY=0;exitDx=0;exitDy=0;entryX=1;entryY=0;entryDx=0;entryDy=0;" parent="1" source="0Ew-OyiPKJsIfG58_g5D-61" target="0Ew-OyiPKJsIfG58_g5D-61" edge="1">
          <mxGeometry width="50" height="50" relative="1" as="geometry">
            <mxPoint x="930" y="4093" as="sourcePoint" />
            <mxPoint x="980" y="4043" as="targetPoint" />
          </mxGeometry>
        </mxCell>
        <mxCell id="0Ew-OyiPKJsIfG58_g5D-79" value="" style="rounded=0;whiteSpace=wrap;html=1;" parent="1" vertex="1">
          <mxGeometry x="2002" y="5806" width="320" height="40" as="geometry" />
        </mxCell>
        <mxCell id="0Ew-OyiPKJsIfG58_g5D-80" value="" style="rounded=0;whiteSpace=wrap;html=1;" parent="1" vertex="1">
          <mxGeometry x="2002" y="5846" width="320" height="240" as="geometry" />
        </mxCell>
        <mxCell id="0Ew-OyiPKJsIfG58_g5D-81" value="&lt;span style=&quot;font-size: 16px;&quot;&gt;он устал&lt;/span&gt;" style="text;html=1;align=center;verticalAlign=middle;whiteSpace=wrap;rounded=0;" parent="1" vertex="1">
          <mxGeometry x="2000" y="5806" width="320" height="40" as="geometry" />
        </mxCell>
        <mxCell id="0Ew-OyiPKJsIfG58_g5D-82" value="&lt;span style=&quot;font-size: 16px;&quot;&gt;бла бла так пашу на всех а на себя время нет&lt;/span&gt;&lt;div&gt;&lt;span style=&quot;font-size: 16px;&quot;&gt;событие хотю быть бессмертным&lt;/span&gt;&lt;/div&gt;" style="text;html=1;align=center;verticalAlign=middle;whiteSpace=wrap;rounded=0;" parent="1" vertex="1">
          <mxGeometry x="2002" y="5846" width="320" height="240" as="geometry" />
        </mxCell>
        <mxCell id="0Ew-OyiPKJsIfG58_g5D-86" value="" style="rounded=0;whiteSpace=wrap;html=1;fillColor=#dae8fc;strokeColor=#6c8ebf;" parent="1" vertex="1">
          <mxGeometry x="1679.75" y="2280" width="280" height="280" as="geometry" />
        </mxCell>
        <mxCell id="0Ew-OyiPKJsIfG58_g5D-87" value="&lt;font size=&quot;1&quot;&gt;&lt;b style=&quot;font-size: 20px;&quot;&gt;все чилят&lt;/b&gt;&lt;/font&gt;" style="text;html=1;align=center;verticalAlign=middle;whiteSpace=wrap;rounded=0;" parent="1" vertex="1">
          <mxGeometry x="1679.75" y="2280" width="280" height="40" as="geometry" />
        </mxCell>
        <mxCell id="0Ew-OyiPKJsIfG58_g5D-88" value="" style="endArrow=none;html=1;rounded=0;exitX=0;exitY=1;exitDx=0;exitDy=0;" parent="1" source="0Ew-OyiPKJsIfG58_g5D-87" edge="1">
          <mxGeometry width="50" height="50" relative="1" as="geometry">
            <mxPoint x="1909.75" y="2460" as="sourcePoint" />
            <mxPoint x="1959.75" y="2320" as="targetPoint" />
          </mxGeometry>
        </mxCell>
        <mxCell id="0Ew-OyiPKJsIfG58_g5D-89" value="&lt;font style=&quot;font-size: 16px;&quot;&gt;50 лет с оглашения&lt;/font&gt;" style="text;html=1;align=center;verticalAlign=middle;whiteSpace=wrap;rounded=0;" parent="1" vertex="1">
          <mxGeometry x="1679.75" y="2320" width="280" height="120" as="geometry" />
        </mxCell>
        <mxCell id="MGUnxN-y1VWMcGxOPfXG-13" style="edgeStyle=orthogonalEdgeStyle;rounded=0;orthogonalLoop=1;jettySize=auto;html=1;exitX=0.5;exitY=1;exitDx=0;exitDy=0;entryX=0.5;entryY=0;entryDx=0;entryDy=0;" parent="1" source="0Ew-OyiPKJsIfG58_g5D-90" target="MGUnxN-y1VWMcGxOPfXG-8" edge="1">
          <mxGeometry relative="1" as="geometry" />
        </mxCell>
        <mxCell id="0Ew-OyiPKJsIfG58_g5D-90" value="&lt;font style=&quot;font-size: 16px;&quot;&gt;убрать дип штрафы&lt;/font&gt;" style="text;html=1;align=center;verticalAlign=middle;whiteSpace=wrap;rounded=0;" parent="1" vertex="1">
          <mxGeometry x="1679.75" y="2440" width="280" height="110" as="geometry" />
        </mxCell>
        <mxCell id="0Ew-OyiPKJsIfG58_g5D-91" value="" style="endArrow=none;html=1;rounded=0;exitX=0;exitY=0;exitDx=0;exitDy=0;entryX=1;entryY=0;entryDx=0;entryDy=0;" parent="1" source="0Ew-OyiPKJsIfG58_g5D-90" target="0Ew-OyiPKJsIfG58_g5D-90" edge="1">
          <mxGeometry width="50" height="50" relative="1" as="geometry">
            <mxPoint x="1889.75" y="2490" as="sourcePoint" />
            <mxPoint x="1939.75" y="2440" as="targetPoint" />
          </mxGeometry>
        </mxCell>
        <mxCell id="iphwIeOrnClIcom6qrQQ-7" style="edgeStyle=orthogonalEdgeStyle;rounded=0;orthogonalLoop=1;jettySize=auto;html=1;exitX=0.5;exitY=1;exitDx=0;exitDy=0;entryX=0.5;entryY=0;entryDx=0;entryDy=0;" parent="1" source="0Ew-OyiPKJsIfG58_g5D-93" target="iphwIeOrnClIcom6qrQQ-2" edge="1">
          <mxGeometry relative="1" as="geometry" />
        </mxCell>
        <mxCell id="0Ew-OyiPKJsIfG58_g5D-93" value="" style="rounded=0;whiteSpace=wrap;html=1;fillColor=#d5e8d4;strokeColor=#82b366;" parent="1" vertex="1">
          <mxGeometry x="720" y="1880" width="280" height="280" as="geometry" />
        </mxCell>
        <mxCell id="0Ew-OyiPKJsIfG58_g5D-94" value="&lt;font size=&quot;1&quot;&gt;&lt;b style=&quot;font-size: 20px;&quot;&gt;заготовка зомби фабрика&lt;/b&gt;&lt;/font&gt;" style="text;html=1;align=center;verticalAlign=middle;whiteSpace=wrap;rounded=0;" parent="1" vertex="1">
          <mxGeometry x="720" y="1880" width="280" height="40" as="geometry" />
        </mxCell>
        <mxCell id="0Ew-OyiPKJsIfG58_g5D-95" value="" style="endArrow=none;html=1;rounded=0;exitX=0;exitY=1;exitDx=0;exitDy=0;" parent="1" source="0Ew-OyiPKJsIfG58_g5D-94" edge="1">
          <mxGeometry width="50" height="50" relative="1" as="geometry">
            <mxPoint x="950" y="2060" as="sourcePoint" />
            <mxPoint x="1000" y="1920" as="targetPoint" />
          </mxGeometry>
        </mxCell>
        <mxCell id="0Ew-OyiPKJsIfG58_g5D-96" value="&lt;font style=&quot;font-size: 16px;&quot;&gt;20 дева&lt;/font&gt;&lt;div&gt;&lt;font style=&quot;font-size: 16px;&quot;&gt;башня мага&lt;/font&gt;&lt;/div&gt;&lt;div&gt;&lt;font style=&quot;font-size: 16px;&quot;&gt;воркшоп&lt;/font&gt;&lt;/div&gt;&lt;div&gt;&lt;font style=&quot;font-size: 16px;&quot;&gt;рынок&lt;/font&gt;&lt;/div&gt;&lt;div&gt;&lt;font style=&quot;font-size: 16px;&quot;&gt;бараки&lt;/font&gt;&lt;/div&gt;&lt;div&gt;&lt;font style=&quot;font-size: 16px;&quot;&gt;форт&lt;/font&gt;&lt;/div&gt;" style="text;html=1;align=center;verticalAlign=middle;whiteSpace=wrap;rounded=0;" parent="1" vertex="1">
          <mxGeometry x="720" y="1920" width="280" height="120" as="geometry" />
        </mxCell>
        <mxCell id="0Ew-OyiPKJsIfG58_g5D-97" value="&lt;font style=&quot;font-size: 16px;&quot;&gt;-50 локал дев кост&lt;/font&gt;&lt;div&gt;&lt;font style=&quot;font-size: 16px;&quot;&gt;+ 2 гудса&lt;/font&gt;&lt;/div&gt;&lt;div&gt;&lt;font style=&quot;font-size: 16px;&quot;&gt;товар рабы&lt;/font&gt;&lt;/div&gt;" style="text;html=1;align=center;verticalAlign=middle;whiteSpace=wrap;rounded=0;" parent="1" vertex="1">
          <mxGeometry x="720" y="2040" width="280" height="110" as="geometry" />
        </mxCell>
        <mxCell id="0Ew-OyiPKJsIfG58_g5D-98" value="" style="endArrow=none;html=1;rounded=0;exitX=0;exitY=0;exitDx=0;exitDy=0;entryX=1;entryY=0;entryDx=0;entryDy=0;" parent="1" source="0Ew-OyiPKJsIfG58_g5D-97" target="0Ew-OyiPKJsIfG58_g5D-97" edge="1">
          <mxGeometry width="50" height="50" relative="1" as="geometry">
            <mxPoint x="930" y="2090" as="sourcePoint" />
            <mxPoint x="980" y="2040" as="targetPoint" />
          </mxGeometry>
        </mxCell>
        <mxCell id="0Ew-OyiPKJsIfG58_g5D-162" style="edgeStyle=orthogonalEdgeStyle;rounded=0;orthogonalLoop=1;jettySize=auto;html=1;exitX=0.5;exitY=1;exitDx=0;exitDy=0;entryX=0.5;entryY=0;entryDx=0;entryDy=0;" parent="1" source="0Ew-OyiPKJsIfG58_g5D-99" target="0Ew-OyiPKJsIfG58_g5D-106" edge="1">
          <mxGeometry relative="1" as="geometry" />
        </mxCell>
        <mxCell id="adHzRCtXYdIg2MAHcMbn-69" style="edgeStyle=orthogonalEdgeStyle;rounded=0;orthogonalLoop=1;jettySize=auto;html=1;exitX=1;exitY=1;exitDx=0;exitDy=0;entryX=0;entryY=0;entryDx=0;entryDy=0;" parent="1" source="0Ew-OyiPKJsIfG58_g5D-99" target="0Ew-OyiPKJsIfG58_g5D-94" edge="1">
          <mxGeometry relative="1" as="geometry">
            <Array as="points">
              <mxPoint x="680" y="1800" />
              <mxPoint x="720" y="1800" />
            </Array>
          </mxGeometry>
        </mxCell>
        <mxCell id="0Ew-OyiPKJsIfG58_g5D-99" value="" style="rounded=0;whiteSpace=wrap;html=1;fillColor=#d5e8d4;strokeColor=#82b366;" parent="1" vertex="1">
          <mxGeometry x="400" y="1480" width="280" height="280" as="geometry" />
        </mxCell>
        <mxCell id="0Ew-OyiPKJsIfG58_g5D-100" value="&lt;span style=&quot;font-size: 20px;&quot;&gt;&lt;b&gt;зомби шахты 1&lt;/b&gt;&lt;/span&gt;" style="text;html=1;align=center;verticalAlign=middle;whiteSpace=wrap;rounded=0;" parent="1" vertex="1">
          <mxGeometry x="400" y="1480" width="280" height="40" as="geometry" />
        </mxCell>
        <mxCell id="0Ew-OyiPKJsIfG58_g5D-101" value="" style="endArrow=none;html=1;rounded=0;exitX=0;exitY=1;exitDx=0;exitDy=0;" parent="1" source="0Ew-OyiPKJsIfG58_g5D-100" edge="1">
          <mxGeometry width="50" height="50" relative="1" as="geometry">
            <mxPoint x="630" y="1660" as="sourcePoint" />
            <mxPoint x="680" y="1520" as="targetPoint" />
          </mxGeometry>
        </mxCell>
        <mxCell id="0Ew-OyiPKJsIfG58_g5D-102" value="&lt;span style=&quot;font-size: 16px;&quot;&gt;5 провы с металлом 10 дева и воркшоп&lt;/span&gt;" style="text;html=1;align=center;verticalAlign=middle;whiteSpace=wrap;rounded=0;" parent="1" vertex="1">
          <mxGeometry x="400" y="1520" width="280" height="120" as="geometry" />
        </mxCell>
        <mxCell id="0Ew-OyiPKJsIfG58_g5D-103" value="&lt;span style=&quot;font-size: 16px;&quot;&gt;-10 стоимости строительства&lt;/span&gt;&lt;div&gt;&lt;span style=&quot;font-size: 16px;&quot;&gt;+ 10 гудсов&lt;br&gt;&lt;/span&gt;&lt;div&gt;&lt;span style=&quot;font-size: 16px;&quot;&gt;на 20 лет&lt;/span&gt;&lt;/div&gt;&lt;/div&gt;" style="text;html=1;align=center;verticalAlign=middle;whiteSpace=wrap;rounded=0;" parent="1" vertex="1">
          <mxGeometry x="400" y="1640" width="280" height="110" as="geometry" />
        </mxCell>
        <mxCell id="0Ew-OyiPKJsIfG58_g5D-104" value="" style="endArrow=none;html=1;rounded=0;exitX=0;exitY=0;exitDx=0;exitDy=0;entryX=1;entryY=0;entryDx=0;entryDy=0;" parent="1" source="0Ew-OyiPKJsIfG58_g5D-103" target="0Ew-OyiPKJsIfG58_g5D-103" edge="1">
          <mxGeometry width="50" height="50" relative="1" as="geometry">
            <mxPoint x="610" y="1690" as="sourcePoint" />
            <mxPoint x="660" y="1640" as="targetPoint" />
          </mxGeometry>
        </mxCell>
        <mxCell id="8WfLPUgs6Gm4gQPEIxjt-1" style="edgeStyle=orthogonalEdgeStyle;rounded=0;orthogonalLoop=1;jettySize=auto;html=1;exitX=0.5;exitY=1;exitDx=0;exitDy=0;entryX=0;entryY=0;entryDx=0;entryDy=0;" parent="1" source="0Ew-OyiPKJsIfG58_g5D-105" target="iphwIeOrnClIcom6qrQQ-2" edge="1">
          <mxGeometry relative="1" as="geometry">
            <Array as="points">
              <mxPoint x="540" y="2200" />
              <mxPoint x="720" y="2200" />
            </Array>
          </mxGeometry>
        </mxCell>
        <mxCell id="0Ew-OyiPKJsIfG58_g5D-105" value="" style="rounded=0;whiteSpace=wrap;html=1;fillColor=#d5e8d4;strokeColor=#82b366;" parent="1" vertex="1">
          <mxGeometry x="400" y="1880" width="280" height="280" as="geometry" />
        </mxCell>
        <mxCell id="0Ew-OyiPKJsIfG58_g5D-106" value="&lt;span style=&quot;font-size: 20px;&quot;&gt;&lt;b&gt;зомби поля 1&lt;/b&gt;&lt;/span&gt;" style="text;html=1;align=center;verticalAlign=middle;whiteSpace=wrap;rounded=0;" parent="1" vertex="1">
          <mxGeometry x="400" y="1880" width="280" height="40" as="geometry" />
        </mxCell>
        <mxCell id="0Ew-OyiPKJsIfG58_g5D-107" value="" style="endArrow=none;html=1;rounded=0;exitX=0;exitY=1;exitDx=0;exitDy=0;" parent="1" source="0Ew-OyiPKJsIfG58_g5D-106" edge="1">
          <mxGeometry width="50" height="50" relative="1" as="geometry">
            <mxPoint x="630" y="2060" as="sourcePoint" />
            <mxPoint x="680" y="1920" as="targetPoint" />
          </mxGeometry>
        </mxCell>
        <mxCell id="0Ew-OyiPKJsIfG58_g5D-108" value="&lt;span style=&quot;font-size: 16px;&quot;&gt;5 пров с едой 10 дева и воркшопами&lt;/span&gt;" style="text;html=1;align=center;verticalAlign=middle;whiteSpace=wrap;rounded=0;" parent="1" vertex="1">
          <mxGeometry x="400" y="1920" width="280" height="120" as="geometry" />
        </mxCell>
        <mxCell id="0Ew-OyiPKJsIfG58_g5D-109" value="&lt;span style=&quot;font-size: 16px;&quot;&gt;- 10 девкоста&lt;/span&gt;&lt;div&gt;&lt;span style=&quot;font-size: 16px;&quot;&gt;- 1 анреста&amp;nbsp;&lt;/span&gt;&lt;div&gt;&lt;span style=&quot;font-size: 16px;&quot;&gt;на 20 лет&lt;/span&gt;&lt;/div&gt;&lt;/div&gt;" style="text;html=1;align=center;verticalAlign=middle;whiteSpace=wrap;rounded=0;" parent="1" vertex="1">
          <mxGeometry x="400" y="2040" width="280" height="110" as="geometry" />
        </mxCell>
        <mxCell id="0Ew-OyiPKJsIfG58_g5D-110" value="" style="endArrow=none;html=1;rounded=0;exitX=0;exitY=0;exitDx=0;exitDy=0;entryX=1;entryY=0;entryDx=0;entryDy=0;" parent="1" source="0Ew-OyiPKJsIfG58_g5D-109" target="0Ew-OyiPKJsIfG58_g5D-109" edge="1">
          <mxGeometry width="50" height="50" relative="1" as="geometry">
            <mxPoint x="610" y="2090" as="sourcePoint" />
            <mxPoint x="660" y="2040" as="targetPoint" />
          </mxGeometry>
        </mxCell>
        <mxCell id="0Ew-OyiPKJsIfG58_g5D-207" style="edgeStyle=orthogonalEdgeStyle;rounded=0;orthogonalLoop=1;jettySize=auto;html=1;exitX=0.5;exitY=1;exitDx=0;exitDy=0;entryX=0.5;entryY=0;entryDx=0;entryDy=0;" parent="1" source="0Ew-OyiPKJsIfG58_g5D-117" target="0Ew-OyiPKJsIfG58_g5D-58" edge="1">
          <mxGeometry relative="1" as="geometry" />
        </mxCell>
        <mxCell id="0Ew-OyiPKJsIfG58_g5D-208" style="edgeStyle=orthogonalEdgeStyle;rounded=0;orthogonalLoop=1;jettySize=auto;html=1;exitX=1;exitY=1;exitDx=0;exitDy=0;entryX=0;entryY=0;entryDx=0;entryDy=0;" parent="1" source="0Ew-OyiPKJsIfG58_g5D-117" target="0Ew-OyiPKJsIfG58_g5D-197" edge="1">
          <mxGeometry relative="1" as="geometry">
            <Array as="points">
              <mxPoint x="1000" y="3800" />
              <mxPoint x="1040" y="3800" />
            </Array>
          </mxGeometry>
        </mxCell>
        <mxCell id="0Ew-OyiPKJsIfG58_g5D-117" value="" style="rounded=0;whiteSpace=wrap;html=1;fillColor=#d5e8d4;strokeColor=#82b366;" parent="1" vertex="1">
          <mxGeometry x="720" y="3482.5" width="280" height="280" as="geometry" />
        </mxCell>
        <mxCell id="0Ew-OyiPKJsIfG58_g5D-118" value="&lt;span style=&quot;font-size: 20px;&quot;&gt;&lt;b&gt;зомби поля 2&lt;/b&gt;&lt;/span&gt;" style="text;html=1;align=center;verticalAlign=middle;whiteSpace=wrap;rounded=0;" parent="1" vertex="1">
          <mxGeometry x="720" y="3482.5" width="280" height="40" as="geometry" />
        </mxCell>
        <mxCell id="0Ew-OyiPKJsIfG58_g5D-119" value="" style="endArrow=none;html=1;rounded=0;exitX=0;exitY=1;exitDx=0;exitDy=0;" parent="1" source="0Ew-OyiPKJsIfG58_g5D-118" edge="1">
          <mxGeometry width="50" height="50" relative="1" as="geometry">
            <mxPoint x="950" y="3662.5" as="sourcePoint" />
            <mxPoint x="1000" y="3522.5" as="targetPoint" />
          </mxGeometry>
        </mxCell>
        <mxCell id="0Ew-OyiPKJsIfG58_g5D-120" value="&lt;span style=&quot;font-size: 16px;&quot;&gt;10 пров с едой 15 дева и мануфактурами&lt;/span&gt;" style="text;html=1;align=center;verticalAlign=middle;whiteSpace=wrap;rounded=0;" parent="1" vertex="1">
          <mxGeometry x="720" y="3522.5" width="280" height="120" as="geometry" />
        </mxCell>
        <mxCell id="0Ew-OyiPKJsIfG58_g5D-121" value="&lt;span style=&quot;font-size: 16px;&quot;&gt;-15 девкоста&lt;/span&gt;&lt;div&gt;&lt;span style=&quot;font-size: 16px;&quot;&gt;-2 анреста&lt;/span&gt;&lt;/div&gt;" style="text;html=1;align=center;verticalAlign=middle;whiteSpace=wrap;rounded=0;" parent="1" vertex="1">
          <mxGeometry x="720" y="3642.5" width="280" height="110" as="geometry" />
        </mxCell>
        <mxCell id="0Ew-OyiPKJsIfG58_g5D-122" value="" style="endArrow=none;html=1;rounded=0;exitX=0;exitY=0;exitDx=0;exitDy=0;entryX=1;entryY=0;entryDx=0;entryDy=0;" parent="1" source="0Ew-OyiPKJsIfG58_g5D-121" target="0Ew-OyiPKJsIfG58_g5D-121" edge="1">
          <mxGeometry width="50" height="50" relative="1" as="geometry">
            <mxPoint x="930" y="3692.5" as="sourcePoint" />
            <mxPoint x="980" y="3642.5" as="targetPoint" />
          </mxGeometry>
        </mxCell>
        <mxCell id="0Ew-OyiPKJsIfG58_g5D-205" style="edgeStyle=orthogonalEdgeStyle;rounded=0;orthogonalLoop=1;jettySize=auto;html=1;exitX=0.5;exitY=1;exitDx=0;exitDy=0;entryX=0.5;entryY=0;entryDx=0;entryDy=0;" parent="1" source="0Ew-OyiPKJsIfG58_g5D-123" target="0Ew-OyiPKJsIfG58_g5D-136" edge="1">
          <mxGeometry relative="1" as="geometry" />
        </mxCell>
        <mxCell id="adHzRCtXYdIg2MAHcMbn-64" style="edgeStyle=orthogonalEdgeStyle;rounded=0;orthogonalLoop=1;jettySize=auto;html=1;exitX=1;exitY=1;exitDx=0;exitDy=0;entryX=0;entryY=0;entryDx=0;entryDy=0;" parent="1" source="0Ew-OyiPKJsIfG58_g5D-123" target="0Ew-OyiPKJsIfG58_g5D-118" edge="1">
          <mxGeometry relative="1" as="geometry">
            <Array as="points">
              <mxPoint x="680" y="3400" />
              <mxPoint x="720" y="3400" />
            </Array>
          </mxGeometry>
        </mxCell>
        <mxCell id="0Ew-OyiPKJsIfG58_g5D-123" value="" style="rounded=0;whiteSpace=wrap;html=1;fillColor=#d5e8d4;strokeColor=#82b366;" parent="1" vertex="1">
          <mxGeometry x="400" y="3081.5" width="280" height="280" as="geometry" />
        </mxCell>
        <mxCell id="0Ew-OyiPKJsIfG58_g5D-124" value="&lt;span style=&quot;font-size: 20px;&quot;&gt;&lt;b&gt;зомби шахты 2&lt;/b&gt;&lt;/span&gt;" style="text;html=1;align=center;verticalAlign=middle;whiteSpace=wrap;rounded=0;" parent="1" vertex="1">
          <mxGeometry x="400" y="3081.5" width="280" height="40" as="geometry" />
        </mxCell>
        <mxCell id="0Ew-OyiPKJsIfG58_g5D-125" value="" style="endArrow=none;html=1;rounded=0;exitX=0;exitY=1;exitDx=0;exitDy=0;" parent="1" source="0Ew-OyiPKJsIfG58_g5D-124" edge="1">
          <mxGeometry width="50" height="50" relative="1" as="geometry">
            <mxPoint x="630" y="3261.5" as="sourcePoint" />
            <mxPoint x="680" y="3121.5" as="targetPoint" />
          </mxGeometry>
        </mxCell>
        <mxCell id="0Ew-OyiPKJsIfG58_g5D-126" value="&lt;span style=&quot;font-size: 16px;&quot;&gt;10 провы с металлом 15 дева и мануфактурами&lt;/span&gt;" style="text;html=1;align=center;verticalAlign=middle;whiteSpace=wrap;rounded=0;" parent="1" vertex="1">
          <mxGeometry x="400" y="3121.5" width="280" height="120" as="geometry" />
        </mxCell>
        <mxCell id="0Ew-OyiPKJsIfG58_g5D-127" value="&lt;span style=&quot;font-size: 16px;&quot;&gt;-20 стоимости и времени строительства&lt;/span&gt;&lt;div&gt;&lt;span style=&quot;font-size: 16px;&quot;&gt;на 20 лет&lt;/span&gt;&lt;/div&gt;" style="text;html=1;align=center;verticalAlign=middle;whiteSpace=wrap;rounded=0;" parent="1" vertex="1">
          <mxGeometry x="400" y="3241.5" width="280" height="110" as="geometry" />
        </mxCell>
        <mxCell id="0Ew-OyiPKJsIfG58_g5D-128" value="" style="endArrow=none;html=1;rounded=0;exitX=0;exitY=0;exitDx=0;exitDy=0;entryX=1;entryY=0;entryDx=0;entryDy=0;" parent="1" source="0Ew-OyiPKJsIfG58_g5D-127" target="0Ew-OyiPKJsIfG58_g5D-127" edge="1">
          <mxGeometry width="50" height="50" relative="1" as="geometry">
            <mxPoint x="610" y="3291.5" as="sourcePoint" />
            <mxPoint x="660" y="3241.5" as="targetPoint" />
          </mxGeometry>
        </mxCell>
        <mxCell id="0Ew-OyiPKJsIfG58_g5D-129" value="" style="rounded=0;whiteSpace=wrap;html=1;fillColor=#d5e8d4;strokeColor=#82b366;" parent="1" vertex="1">
          <mxGeometry x="720" y="4281.5" width="280" height="280" as="geometry" />
        </mxCell>
        <mxCell id="0Ew-OyiPKJsIfG58_g5D-130" value="&lt;span style=&quot;font-size: 20px;&quot;&gt;&lt;b&gt;зомби экономика&lt;/b&gt;&lt;/span&gt;" style="text;html=1;align=center;verticalAlign=middle;whiteSpace=wrap;rounded=0;" parent="1" vertex="1">
          <mxGeometry x="720" y="4281.5" width="280" height="40" as="geometry" />
        </mxCell>
        <mxCell id="0Ew-OyiPKJsIfG58_g5D-131" value="" style="endArrow=none;html=1;rounded=0;exitX=0;exitY=1;exitDx=0;exitDy=0;" parent="1" source="0Ew-OyiPKJsIfG58_g5D-130" edge="1">
          <mxGeometry width="50" height="50" relative="1" as="geometry">
            <mxPoint x="950" y="4461.5" as="sourcePoint" />
            <mxPoint x="1000" y="4321.5" as="targetPoint" />
          </mxGeometry>
        </mxCell>
        <mxCell id="0Ew-OyiPKJsIfG58_g5D-132" value="&lt;span style=&quot;font-size: 16px;&quot;&gt;300 инкама&lt;/span&gt;&lt;div&gt;&lt;span style=&quot;font-size: 16px;&quot;&gt;2000 дева&lt;br&gt;&lt;/span&gt;&lt;div&gt;&lt;span style=&quot;font-size: 16px;&quot;&gt;20 пров едой 20 дева и мануфак и воркшоп&lt;/span&gt;&lt;/div&gt;&lt;/div&gt;&lt;div&gt;&lt;span style=&quot;font-size: 16px;&quot;&gt;20 пров металы 20 дева и мануфак и воркшоп&lt;/span&gt;&lt;/div&gt;" style="text;html=1;align=center;verticalAlign=middle;whiteSpace=wrap;rounded=0;" parent="1" vertex="1">
          <mxGeometry x="720" y="4321.5" width="280" height="120" as="geometry" />
        </mxCell>
        <mxCell id="0Ew-OyiPKJsIfG58_g5D-133" value="&lt;span style=&quot;font-size: 16px;&quot;&gt;-20 констракш коста и времени&lt;/span&gt;&lt;div&gt;&lt;span style=&quot;font-size: 16px;&quot;&gt;+30 гудсов&lt;/span&gt;&lt;/div&gt;" style="text;html=1;align=center;verticalAlign=middle;whiteSpace=wrap;rounded=0;" parent="1" vertex="1">
          <mxGeometry x="720" y="4441.5" width="280" height="110" as="geometry" />
        </mxCell>
        <mxCell id="0Ew-OyiPKJsIfG58_g5D-134" value="" style="endArrow=none;html=1;rounded=0;exitX=0;exitY=0;exitDx=0;exitDy=0;entryX=1;entryY=0;entryDx=0;entryDy=0;" parent="1" source="0Ew-OyiPKJsIfG58_g5D-133" target="0Ew-OyiPKJsIfG58_g5D-133" edge="1">
          <mxGeometry width="50" height="50" relative="1" as="geometry">
            <mxPoint x="930" y="4491.5" as="sourcePoint" />
            <mxPoint x="980" y="4441.5" as="targetPoint" />
          </mxGeometry>
        </mxCell>
        <mxCell id="0Ew-OyiPKJsIfG58_g5D-203" style="edgeStyle=orthogonalEdgeStyle;rounded=0;orthogonalLoop=1;jettySize=auto;html=1;exitX=1;exitY=1;exitDx=0;exitDy=0;entryX=0;entryY=0;entryDx=0;entryDy=0;" parent="1" source="0Ew-OyiPKJsIfG58_g5D-135" target="0Ew-OyiPKJsIfG58_g5D-58" edge="1">
          <mxGeometry relative="1" as="geometry">
            <Array as="points">
              <mxPoint x="680" y="3801.5" />
              <mxPoint x="720" y="3801.5" />
            </Array>
          </mxGeometry>
        </mxCell>
        <mxCell id="0Ew-OyiPKJsIfG58_g5D-135" value="" style="rounded=0;whiteSpace=wrap;html=1;fillColor=#d5e8d4;strokeColor=#82b366;" parent="1" vertex="1">
          <mxGeometry x="400" y="3482.5" width="280" height="280" as="geometry" />
        </mxCell>
        <mxCell id="0Ew-OyiPKJsIfG58_g5D-136" value="&lt;font size=&quot;1&quot;&gt;&lt;b style=&quot;font-size: 20px;&quot;&gt;начало фабрики&lt;/b&gt;&lt;/font&gt;" style="text;html=1;align=center;verticalAlign=middle;whiteSpace=wrap;rounded=0;" parent="1" vertex="1">
          <mxGeometry x="400" y="3482.5" width="280" height="40" as="geometry" />
        </mxCell>
        <mxCell id="0Ew-OyiPKJsIfG58_g5D-137" value="" style="endArrow=none;html=1;rounded=0;exitX=0;exitY=1;exitDx=0;exitDy=0;" parent="1" source="0Ew-OyiPKJsIfG58_g5D-136" edge="1">
          <mxGeometry width="50" height="50" relative="1" as="geometry">
            <mxPoint x="630" y="3662.5" as="sourcePoint" />
            <mxPoint x="680" y="3522.5" as="targetPoint" />
          </mxGeometry>
        </mxCell>
        <mxCell id="0Ew-OyiPKJsIfG58_g5D-138" value="&lt;span style=&quot;font-size: 16px;&quot;&gt;40 дева&lt;/span&gt;" style="text;html=1;align=center;verticalAlign=middle;whiteSpace=wrap;rounded=0;" parent="1" vertex="1">
          <mxGeometry x="400" y="3522.5" width="280" height="120" as="geometry" />
        </mxCell>
        <mxCell id="adHzRCtXYdIg2MAHcMbn-31" style="edgeStyle=orthogonalEdgeStyle;rounded=0;orthogonalLoop=1;jettySize=auto;html=1;exitX=0.5;exitY=1;exitDx=0;exitDy=0;entryX=0.5;entryY=0;entryDx=0;entryDy=0;" parent="1" source="0Ew-OyiPKJsIfG58_g5D-139" target="adHzRCtXYdIg2MAHcMbn-26" edge="1">
          <mxGeometry relative="1" as="geometry" />
        </mxCell>
        <mxCell id="0Ew-OyiPKJsIfG58_g5D-139" value="&lt;span style=&quot;font-size: 16px;&quot;&gt;дать монумент&lt;/span&gt;&lt;div&gt;&lt;span style=&quot;font-size: 16px;&quot;&gt;убрать штраф к престижу&lt;/span&gt;&lt;span style=&quot;font-size: 16px;&quot;&gt;&lt;br&gt;&lt;/span&gt;&lt;/div&gt;" style="text;html=1;align=center;verticalAlign=middle;whiteSpace=wrap;rounded=0;" parent="1" vertex="1">
          <mxGeometry x="400" y="3642.5" width="280" height="110" as="geometry" />
        </mxCell>
        <mxCell id="0Ew-OyiPKJsIfG58_g5D-140" value="" style="endArrow=none;html=1;rounded=0;exitX=0;exitY=0;exitDx=0;exitDy=0;entryX=1;entryY=0;entryDx=0;entryDy=0;" parent="1" source="0Ew-OyiPKJsIfG58_g5D-139" target="0Ew-OyiPKJsIfG58_g5D-139" edge="1">
          <mxGeometry width="50" height="50" relative="1" as="geometry">
            <mxPoint x="610" y="3692.5" as="sourcePoint" />
            <mxPoint x="660" y="3642.5" as="targetPoint" />
          </mxGeometry>
        </mxCell>
        <mxCell id="0Ew-OyiPKJsIfG58_g5D-173" style="edgeStyle=orthogonalEdgeStyle;rounded=0;orthogonalLoop=1;jettySize=auto;html=1;exitX=0;exitY=1;exitDx=0;exitDy=0;entryX=1;entryY=0;entryDx=0;entryDy=0;" parent="1" target="0Ew-OyiPKJsIfG58_g5D-165" edge="1">
          <mxGeometry relative="1" as="geometry">
            <Array as="points">
              <mxPoint x="1035" y="2600" />
              <mxPoint x="995" y="2600" />
            </Array>
            <mxPoint x="1035" y="2560" as="sourcePoint" />
          </mxGeometry>
        </mxCell>
        <mxCell id="0Ew-OyiPKJsIfG58_g5D-195" style="edgeStyle=orthogonalEdgeStyle;rounded=0;orthogonalLoop=1;jettySize=auto;html=1;exitX=0.5;exitY=1;exitDx=0;exitDy=0;entryX=0.5;entryY=0;entryDx=0;entryDy=0;" parent="1" source="0Ew-OyiPKJsIfG58_g5D-152" target="0Ew-OyiPKJsIfG58_g5D-190" edge="1">
          <mxGeometry relative="1" as="geometry" />
        </mxCell>
        <mxCell id="0Ew-OyiPKJsIfG58_g5D-152" value="" style="rounded=0;whiteSpace=wrap;html=1;fillColor=#e1d5e7;strokeColor=#b85450;gradientColor=none;gradientDirection=west;" parent="1" vertex="1">
          <mxGeometry x="1040" y="2280" width="280" height="280" as="geometry" />
        </mxCell>
        <mxCell id="0Ew-OyiPKJsIfG58_g5D-153" value="&lt;font size=&quot;1&quot;&gt;&lt;b style=&quot;font-size: 20px;&quot;&gt;Время лечит&lt;/b&gt;&lt;/font&gt;" style="text;html=1;align=center;verticalAlign=middle;whiteSpace=wrap;rounded=0;" parent="1" vertex="1">
          <mxGeometry x="1040" y="2280" width="280" height="40" as="geometry" />
        </mxCell>
        <mxCell id="0Ew-OyiPKJsIfG58_g5D-154" value="" style="endArrow=none;html=1;rounded=0;exitX=0;exitY=1;exitDx=0;exitDy=0;" parent="1" source="0Ew-OyiPKJsIfG58_g5D-153" edge="1">
          <mxGeometry width="50" height="50" relative="1" as="geometry">
            <mxPoint x="1270" y="2460" as="sourcePoint" />
            <mxPoint x="1320" y="2320" as="targetPoint" />
          </mxGeometry>
        </mxCell>
        <mxCell id="0Ew-OyiPKJsIfG58_g5D-155" value="&lt;font style=&quot;font-size: 16px;&quot;&gt;верхний модифаер кончился&lt;/font&gt;" style="text;html=1;align=center;verticalAlign=middle;whiteSpace=wrap;rounded=0;" parent="1" vertex="1">
          <mxGeometry x="1040" y="2320" width="280" height="120" as="geometry" />
        </mxCell>
        <mxCell id="0Ew-OyiPKJsIfG58_g5D-156" value="&lt;span style=&quot;font-size: 16px;&quot;&gt;люди привыкли чутка&lt;/span&gt;&lt;div&gt;&lt;span style=&quot;font-size: 16px;&quot;&gt;равновесная лоюльность теперь -5&lt;/span&gt;&lt;/div&gt;" style="text;html=1;align=center;verticalAlign=middle;whiteSpace=wrap;rounded=0;" parent="1" vertex="1">
          <mxGeometry x="1040" y="2440" width="280" height="110" as="geometry" />
        </mxCell>
        <mxCell id="0Ew-OyiPKJsIfG58_g5D-157" value="" style="endArrow=none;html=1;rounded=0;exitX=0;exitY=0;exitDx=0;exitDy=0;entryX=1;entryY=0;entryDx=0;entryDy=0;" parent="1" source="0Ew-OyiPKJsIfG58_g5D-156" target="0Ew-OyiPKJsIfG58_g5D-156" edge="1">
          <mxGeometry width="50" height="50" relative="1" as="geometry">
            <mxPoint x="1250" y="2490" as="sourcePoint" />
            <mxPoint x="1300" y="2440" as="targetPoint" />
          </mxGeometry>
        </mxCell>
        <mxCell id="adHzRCtXYdIg2MAHcMbn-71" style="edgeStyle=orthogonalEdgeStyle;rounded=0;orthogonalLoop=1;jettySize=auto;html=1;exitX=0.5;exitY=1;exitDx=0;exitDy=0;entryX=0.5;entryY=0;entryDx=0;entryDy=0;" parent="1" source="0Ew-OyiPKJsIfG58_g5D-164" target="0Ew-OyiPKJsIfG58_g5D-124" edge="1">
          <mxGeometry relative="1" as="geometry" />
        </mxCell>
        <mxCell id="0Ew-OyiPKJsIfG58_g5D-164" value="" style="rounded=0;whiteSpace=wrap;html=1;fillColor=#f8cecc;strokeColor=#b85450;" parent="1" vertex="1">
          <mxGeometry x="720" y="2681.5" width="280" height="280" as="geometry" />
        </mxCell>
        <mxCell id="0Ew-OyiPKJsIfG58_g5D-165" value="&lt;span style=&quot;font-size: 20px;&quot;&gt;&lt;b&gt;Получить материал&lt;/b&gt;&lt;/span&gt;" style="text;html=1;align=center;verticalAlign=middle;whiteSpace=wrap;rounded=0;" parent="1" vertex="1">
          <mxGeometry x="715" y="2681.5" width="280" height="40" as="geometry" />
        </mxCell>
        <mxCell id="0Ew-OyiPKJsIfG58_g5D-166" value="" style="endArrow=none;html=1;rounded=0;exitX=0;exitY=1;exitDx=0;exitDy=0;" parent="1" source="0Ew-OyiPKJsIfG58_g5D-165" edge="1">
          <mxGeometry width="50" height="50" relative="1" as="geometry">
            <mxPoint x="945" y="2861.5" as="sourcePoint" />
            <mxPoint x="995" y="2721.5" as="targetPoint" />
          </mxGeometry>
        </mxCell>
        <mxCell id="0Ew-OyiPKJsIfG58_g5D-167" value="&lt;span style=&quot;font-size: 16px;&quot;&gt;Потерять в битвах 500к&lt;/span&gt;" style="text;html=1;align=center;verticalAlign=middle;whiteSpace=wrap;rounded=0;" parent="1" vertex="1">
          <mxGeometry x="720" y="2721.5" width="280" height="120" as="geometry" />
        </mxCell>
        <mxCell id="0Ew-OyiPKJsIfG58_g5D-168" value="&lt;font style=&quot;font-size: 16px;&quot;&gt;-10 тех коста на 30 лет&lt;/font&gt;&lt;div&gt;&lt;font style=&quot;font-size: 16px;&quot;&gt;-90 нологе на зарплату Яркену&lt;/font&gt;&lt;/div&gt;&lt;div&gt;&lt;font style=&quot;font-size: 16px;&quot;&gt;(старое убрать)&lt;/font&gt;&lt;/div&gt;" style="text;html=1;align=center;verticalAlign=middle;whiteSpace=wrap;rounded=0;" parent="1" vertex="1">
          <mxGeometry x="720" y="2841.5" width="280" height="110" as="geometry" />
        </mxCell>
        <mxCell id="0Ew-OyiPKJsIfG58_g5D-169" value="" style="endArrow=none;html=1;rounded=0;exitX=0;exitY=0;exitDx=0;exitDy=0;entryX=1;entryY=0;entryDx=0;entryDy=0;" parent="1" source="0Ew-OyiPKJsIfG58_g5D-168" target="0Ew-OyiPKJsIfG58_g5D-168" edge="1">
          <mxGeometry width="50" height="50" relative="1" as="geometry">
            <mxPoint x="930" y="2891.5" as="sourcePoint" />
            <mxPoint x="980" y="2841.5" as="targetPoint" />
          </mxGeometry>
        </mxCell>
        <mxCell id="0Ew-OyiPKJsIfG58_g5D-217" style="edgeStyle=orthogonalEdgeStyle;rounded=0;orthogonalLoop=1;jettySize=auto;html=1;exitX=0;exitY=1;exitDx=0;exitDy=0;entryX=1;entryY=0;entryDx=0;entryDy=0;" parent="1" source="0Ew-OyiPKJsIfG58_g5D-183" target="0Ew-OyiPKJsIfG58_g5D-118" edge="1">
          <mxGeometry relative="1" as="geometry">
            <Array as="points">
              <mxPoint x="1360" y="3440" />
              <mxPoint x="1000" y="3440" />
            </Array>
          </mxGeometry>
        </mxCell>
        <mxCell id="0Ew-OyiPKJsIfG58_g5D-230" style="edgeStyle=orthogonalEdgeStyle;rounded=0;orthogonalLoop=1;jettySize=auto;html=1;exitX=0.5;exitY=1;exitDx=0;exitDy=0;entryX=0.5;entryY=0;entryDx=0;entryDy=0;" parent="1" source="0Ew-OyiPKJsIfG58_g5D-183" target="0Ew-OyiPKJsIfG58_g5D-225" edge="1">
          <mxGeometry relative="1" as="geometry" />
        </mxCell>
        <mxCell id="0Ew-OyiPKJsIfG58_g5D-183" value="" style="rounded=0;whiteSpace=wrap;html=1;fillColor=#dae8fc;strokeColor=#6c8ebf;" parent="1" vertex="1">
          <mxGeometry x="1359.5" y="3080" width="280" height="280" as="geometry" />
        </mxCell>
        <mxCell id="0Ew-OyiPKJsIfG58_g5D-184" value="&lt;font size=&quot;1&quot;&gt;&lt;b style=&quot;font-size: 20px;&quot;&gt;Начать скупку за рубежом&lt;/b&gt;&lt;/font&gt;" style="text;html=1;align=center;verticalAlign=middle;whiteSpace=wrap;rounded=0;" parent="1" vertex="1">
          <mxGeometry x="1359.5" y="3080" width="280" height="40" as="geometry" />
        </mxCell>
        <mxCell id="0Ew-OyiPKJsIfG58_g5D-185" value="" style="endArrow=none;html=1;rounded=0;exitX=0;exitY=1;exitDx=0;exitDy=0;" parent="1" source="0Ew-OyiPKJsIfG58_g5D-184" edge="1">
          <mxGeometry width="50" height="50" relative="1" as="geometry">
            <mxPoint x="1589.5" y="3260" as="sourcePoint" />
            <mxPoint x="1639.5" y="3120" as="targetPoint" />
          </mxGeometry>
        </mxCell>
        <mxCell id="0Ew-OyiPKJsIfG58_g5D-186" value="&lt;span style=&quot;font-size: 16px;&quot;&gt;покупать у 5 стран&lt;/span&gt;" style="text;html=1;align=center;verticalAlign=middle;whiteSpace=wrap;rounded=0;" parent="1" vertex="1">
          <mxGeometry x="1359.5" y="3120" width="280" height="120" as="geometry" />
        </mxCell>
        <mxCell id="0Ew-OyiPKJsIfG58_g5D-187" value="&lt;span style=&quot;font-size: 16px;&quot;&gt;событие пока хз&lt;/span&gt;" style="text;html=1;align=center;verticalAlign=middle;whiteSpace=wrap;rounded=0;" parent="1" vertex="1">
          <mxGeometry x="1359.5" y="3240" width="280" height="110" as="geometry" />
        </mxCell>
        <mxCell id="0Ew-OyiPKJsIfG58_g5D-188" value="" style="endArrow=none;html=1;rounded=0;exitX=0;exitY=0;exitDx=0;exitDy=0;entryX=1;entryY=0;entryDx=0;entryDy=0;" parent="1" source="0Ew-OyiPKJsIfG58_g5D-187" target="0Ew-OyiPKJsIfG58_g5D-187" edge="1">
          <mxGeometry width="50" height="50" relative="1" as="geometry">
            <mxPoint x="1569.5" y="3290" as="sourcePoint" />
            <mxPoint x="1619.5" y="3240" as="targetPoint" />
          </mxGeometry>
        </mxCell>
        <mxCell id="0Ew-OyiPKJsIfG58_g5D-189" value="" style="rounded=0;whiteSpace=wrap;html=1;fillColor=#fff2cc;strokeColor=#d6b656;" parent="1" vertex="1">
          <mxGeometry x="1040" y="2680" width="280" height="280" as="geometry" />
        </mxCell>
        <mxCell id="0Ew-OyiPKJsIfG58_g5D-190" value="&lt;span style=&quot;font-size: 20px;&quot;&gt;&lt;b&gt;Успокоить церковь 2&lt;/b&gt;&lt;/span&gt;" style="text;html=1;align=center;verticalAlign=middle;whiteSpace=wrap;rounded=0;" parent="1" vertex="1">
          <mxGeometry x="1040" y="2680" width="280" height="40" as="geometry" />
        </mxCell>
        <mxCell id="0Ew-OyiPKJsIfG58_g5D-191" value="" style="endArrow=none;html=1;rounded=0;exitX=0;exitY=1;exitDx=0;exitDy=0;" parent="1" source="0Ew-OyiPKJsIfG58_g5D-190" edge="1">
          <mxGeometry width="50" height="50" relative="1" as="geometry">
            <mxPoint x="1270" y="2860" as="sourcePoint" />
            <mxPoint x="1320" y="2720" as="targetPoint" />
          </mxGeometry>
        </mxCell>
        <mxCell id="0Ew-OyiPKJsIfG58_g5D-192" value="&lt;font style=&quot;font-size: 16px;&quot;&gt;лояльность церкви 80&lt;/font&gt;" style="text;html=1;align=center;verticalAlign=middle;whiteSpace=wrap;rounded=0;" parent="1" vertex="1">
          <mxGeometry x="1040" y="2720" width="280" height="120" as="geometry" />
        </mxCell>
        <mxCell id="adHzRCtXYdIg2MAHcMbn-49" style="edgeStyle=orthogonalEdgeStyle;rounded=0;orthogonalLoop=1;jettySize=auto;html=1;exitX=0.5;exitY=1;exitDx=0;exitDy=0;entryX=0.5;entryY=0;entryDx=0;entryDy=0;" parent="1" source="0Ew-OyiPKJsIfG58_g5D-193" target="adHzRCtXYdIg2MAHcMbn-44" edge="1">
          <mxGeometry relative="1" as="geometry" />
        </mxCell>
        <mxCell id="0Ew-OyiPKJsIfG58_g5D-193" value="&lt;span style=&quot;font-size: 16px;&quot;&gt;-20 нологов&lt;/span&gt;&lt;div&gt;&lt;span style=&quot;font-size: 16px;&quot;&gt;уменьшит штрафы до&lt;/span&gt;&lt;/div&gt;&lt;div&gt;&lt;span style=&quot;font-size: 16px;&quot;&gt;-1 истинной&lt;br&gt;&lt;/span&gt;&lt;/div&gt;" style="text;html=1;align=center;verticalAlign=middle;whiteSpace=wrap;rounded=0;" parent="1" vertex="1">
          <mxGeometry x="1040" y="2840" width="280" height="110" as="geometry" />
        </mxCell>
        <mxCell id="0Ew-OyiPKJsIfG58_g5D-194" value="" style="endArrow=none;html=1;rounded=0;exitX=0;exitY=0;exitDx=0;exitDy=0;entryX=1;entryY=0;entryDx=0;entryDy=0;" parent="1" source="0Ew-OyiPKJsIfG58_g5D-193" target="0Ew-OyiPKJsIfG58_g5D-193" edge="1">
          <mxGeometry width="50" height="50" relative="1" as="geometry">
            <mxPoint x="1250" y="2890" as="sourcePoint" />
            <mxPoint x="1300" y="2840" as="targetPoint" />
          </mxGeometry>
        </mxCell>
        <mxCell id="0Ew-OyiPKJsIfG58_g5D-239" style="edgeStyle=orthogonalEdgeStyle;rounded=0;orthogonalLoop=1;jettySize=auto;html=1;exitX=0;exitY=1;exitDx=0;exitDy=0;entryX=1;entryY=0;entryDx=0;entryDy=0;" parent="1" source="0Ew-OyiPKJsIfG58_g5D-196" target="0Ew-OyiPKJsIfG58_g5D-130" edge="1">
          <mxGeometry relative="1" as="geometry">
            <Array as="points">
              <mxPoint x="1040" y="4200" />
              <mxPoint x="1000" y="4200" />
            </Array>
          </mxGeometry>
        </mxCell>
        <mxCell id="0Ew-OyiPKJsIfG58_g5D-241" style="edgeStyle=orthogonalEdgeStyle;rounded=0;orthogonalLoop=1;jettySize=auto;html=1;exitX=1;exitY=1;exitDx=0;exitDy=0;entryX=0;entryY=0;entryDx=0;entryDy=0;" parent="1" source="0Ew-OyiPKJsIfG58_g5D-196" target="0Ew-OyiPKJsIfG58_g5D-232" edge="1">
          <mxGeometry relative="1" as="geometry">
            <Array as="points">
              <mxPoint x="1320" y="4200" />
              <mxPoint x="1360" y="4200" />
            </Array>
          </mxGeometry>
        </mxCell>
        <mxCell id="0Ew-OyiPKJsIfG58_g5D-196" value="" style="rounded=0;whiteSpace=wrap;html=1;fillColor=#e1d5e7;strokeColor=#b85450;gradientColor=none;gradientDirection=west;" parent="1" vertex="1">
          <mxGeometry x="1039.5" y="3880" width="280" height="280" as="geometry" />
        </mxCell>
        <mxCell id="0Ew-OyiPKJsIfG58_g5D-197" value="&lt;font size=&quot;1&quot;&gt;&lt;b style=&quot;font-size: 20px;&quot;&gt;Время лечит 2&lt;/b&gt;&lt;/font&gt;" style="text;html=1;align=center;verticalAlign=middle;whiteSpace=wrap;rounded=0;" parent="1" vertex="1">
          <mxGeometry x="1039.5" y="3880" width="280" height="40" as="geometry" />
        </mxCell>
        <mxCell id="0Ew-OyiPKJsIfG58_g5D-198" value="" style="endArrow=none;html=1;rounded=0;exitX=0;exitY=1;exitDx=0;exitDy=0;" parent="1" source="0Ew-OyiPKJsIfG58_g5D-197" edge="1">
          <mxGeometry width="50" height="50" relative="1" as="geometry">
            <mxPoint x="1269.5" y="4060" as="sourcePoint" />
            <mxPoint x="1319.5" y="3920" as="targetPoint" />
          </mxGeometry>
        </mxCell>
        <mxCell id="0Ew-OyiPKJsIfG58_g5D-199" value="&lt;font style=&quot;font-size: 16px;&quot;&gt;верхний модифаер кончился&lt;/font&gt;" style="text;html=1;align=center;verticalAlign=middle;whiteSpace=wrap;rounded=0;" parent="1" vertex="1">
          <mxGeometry x="1039.5" y="3920" width="280" height="120" as="geometry" />
        </mxCell>
        <mxCell id="0Ew-OyiPKJsIfG58_g5D-200" value="&lt;span style=&quot;font-size: 16px;&quot;&gt;люди и церковь чилят&lt;/span&gt;&lt;div&gt;&lt;span style=&quot;font-size: 16px;&quot;&gt;штрафы убрать&lt;/span&gt;&lt;/div&gt;" style="text;html=1;align=center;verticalAlign=middle;whiteSpace=wrap;rounded=0;" parent="1" vertex="1">
          <mxGeometry x="1039.5" y="4040" width="280" height="110" as="geometry" />
        </mxCell>
        <mxCell id="0Ew-OyiPKJsIfG58_g5D-201" value="" style="endArrow=none;html=1;rounded=0;exitX=0;exitY=0;exitDx=0;exitDy=0;entryX=1;entryY=0;entryDx=0;entryDy=0;" parent="1" source="0Ew-OyiPKJsIfG58_g5D-200" target="0Ew-OyiPKJsIfG58_g5D-200" edge="1">
          <mxGeometry width="50" height="50" relative="1" as="geometry">
            <mxPoint x="1249.5" y="4090" as="sourcePoint" />
            <mxPoint x="1299.5" y="4040" as="targetPoint" />
          </mxGeometry>
        </mxCell>
        <mxCell id="0Ew-OyiPKJsIfG58_g5D-220" value="" style="rounded=0;whiteSpace=wrap;html=1;" parent="1" vertex="1">
          <mxGeometry x="2000" y="3041.5" width="320" height="40" as="geometry" />
        </mxCell>
        <mxCell id="0Ew-OyiPKJsIfG58_g5D-221" value="" style="rounded=0;whiteSpace=wrap;html=1;" parent="1" vertex="1">
          <mxGeometry x="2000" y="3081.5" width="320" height="240" as="geometry" />
        </mxCell>
        <mxCell id="0Ew-OyiPKJsIfG58_g5D-222" value="&lt;span style=&quot;font-size: 20px;&quot;&gt;&lt;b&gt;пока хз&lt;/b&gt;&lt;/span&gt;" style="text;html=1;align=center;verticalAlign=middle;whiteSpace=wrap;rounded=0;" parent="1" vertex="1">
          <mxGeometry x="1998" y="3041.5" width="320" height="40" as="geometry" />
        </mxCell>
        <mxCell id="0Ew-OyiPKJsIfG58_g5D-223" value="&lt;span style=&quot;font-size: 16px;&quot;&gt;хз&lt;/span&gt;" style="text;html=1;align=center;verticalAlign=middle;whiteSpace=wrap;rounded=0;" parent="1" vertex="1">
          <mxGeometry x="2000" y="3081.5" width="320" height="240" as="geometry" />
        </mxCell>
        <mxCell id="0Ew-OyiPKJsIfG58_g5D-224" value="" style="rounded=0;whiteSpace=wrap;html=1;fillColor=#f8cecc;strokeColor=#b85450;" parent="1" vertex="1">
          <mxGeometry x="1359.5" y="3481" width="280" height="280" as="geometry" />
        </mxCell>
        <mxCell id="0Ew-OyiPKJsIfG58_g5D-225" value="&lt;b style=&quot;font-size: 20px;&quot;&gt;увеличение армии зомбей&lt;/b&gt;" style="text;html=1;align=center;verticalAlign=middle;whiteSpace=wrap;rounded=0;" parent="1" vertex="1">
          <mxGeometry x="1359.5" y="3481" width="280" height="40" as="geometry" />
        </mxCell>
        <mxCell id="0Ew-OyiPKJsIfG58_g5D-226" value="" style="endArrow=none;html=1;rounded=0;exitX=0;exitY=1;exitDx=0;exitDy=0;" parent="1" source="0Ew-OyiPKJsIfG58_g5D-225" edge="1">
          <mxGeometry width="50" height="50" relative="1" as="geometry">
            <mxPoint x="1589.5" y="3661" as="sourcePoint" />
            <mxPoint x="1639.5" y="3521" as="targetPoint" />
          </mxGeometry>
        </mxCell>
        <mxCell id="0Ew-OyiPKJsIfG58_g5D-227" value="&lt;font style=&quot;font-size: 16px;&quot;&gt;война и восстание&lt;/font&gt;" style="text;html=1;align=center;verticalAlign=middle;whiteSpace=wrap;rounded=0;" parent="1" vertex="1">
          <mxGeometry x="1359.5" y="3521" width="280" height="120" as="geometry" />
        </mxCell>
        <mxCell id="0Ew-OyiPKJsIfG58_g5D-237" style="edgeStyle=orthogonalEdgeStyle;rounded=0;orthogonalLoop=1;jettySize=auto;html=1;exitX=0.5;exitY=1;exitDx=0;exitDy=0;entryX=0.5;entryY=0;entryDx=0;entryDy=0;" parent="1" source="0Ew-OyiPKJsIfG58_g5D-228" target="0Ew-OyiPKJsIfG58_g5D-232" edge="1">
          <mxGeometry relative="1" as="geometry" />
        </mxCell>
        <mxCell id="0Ew-OyiPKJsIfG58_g5D-228" value="&lt;span style=&quot;font-size: 16px;&quot;&gt;+50 лимита всего&lt;/span&gt;&lt;div&gt;&lt;span style=&quot;font-size: 16px;&quot;&gt;анрест до +1 лига убрать&lt;/span&gt;&lt;/div&gt;" style="text;html=1;align=center;verticalAlign=middle;whiteSpace=wrap;rounded=0;" parent="1" vertex="1">
          <mxGeometry x="1359.5" y="3641" width="280" height="120" as="geometry" />
        </mxCell>
        <mxCell id="0Ew-OyiPKJsIfG58_g5D-229" value="" style="endArrow=none;html=1;rounded=0;exitX=0;exitY=0;exitDx=0;exitDy=0;entryX=1;entryY=0;entryDx=0;entryDy=0;" parent="1" source="0Ew-OyiPKJsIfG58_g5D-228" target="0Ew-OyiPKJsIfG58_g5D-228" edge="1">
          <mxGeometry width="50" height="50" relative="1" as="geometry">
            <mxPoint x="1569.5" y="3691" as="sourcePoint" />
            <mxPoint x="1619.5" y="3641" as="targetPoint" />
          </mxGeometry>
        </mxCell>
        <mxCell id="0Ew-OyiPKJsIfG58_g5D-231" value="" style="rounded=0;whiteSpace=wrap;html=1;fillColor=#f8cecc;strokeColor=#b85450;" parent="1" vertex="1">
          <mxGeometry x="1360" y="4281.5" width="280" height="280" as="geometry" />
        </mxCell>
        <mxCell id="0Ew-OyiPKJsIfG58_g5D-232" value="&lt;span style=&quot;font-size: 20px;&quot;&gt;&lt;b&gt;Прекращение страданий&lt;/b&gt;&lt;/span&gt;" style="text;html=1;align=center;verticalAlign=middle;whiteSpace=wrap;rounded=0;" parent="1" vertex="1">
          <mxGeometry x="1360" y="4281.5" width="280" height="40" as="geometry" />
        </mxCell>
        <mxCell id="0Ew-OyiPKJsIfG58_g5D-233" value="" style="endArrow=none;html=1;rounded=0;exitX=0;exitY=1;exitDx=0;exitDy=0;" parent="1" source="0Ew-OyiPKJsIfG58_g5D-232" edge="1">
          <mxGeometry width="50" height="50" relative="1" as="geometry">
            <mxPoint x="1590" y="4461.5" as="sourcePoint" />
            <mxPoint x="1640" y="4321.5" as="targetPoint" />
          </mxGeometry>
        </mxCell>
        <mxCell id="0Ew-OyiPKJsIfG58_g5D-234" value="&lt;font style=&quot;font-size: 16px;&quot;&gt;200к армия&lt;/font&gt;" style="text;html=1;align=center;verticalAlign=middle;whiteSpace=wrap;rounded=0;" parent="1" vertex="1">
          <mxGeometry x="1360" y="4321.5" width="280" height="120" as="geometry" />
        </mxCell>
        <mxCell id="adHzRCtXYdIg2MAHcMbn-42" style="edgeStyle=orthogonalEdgeStyle;rounded=0;orthogonalLoop=1;jettySize=auto;html=1;exitX=0.5;exitY=1;exitDx=0;exitDy=0;entryX=0.75;entryY=0;entryDx=0;entryDy=0;" parent="1" source="0Ew-OyiPKJsIfG58_g5D-235" target="0Ew-OyiPKJsIfG58_g5D-243" edge="1">
          <mxGeometry relative="1" as="geometry">
            <Array as="points">
              <mxPoint x="1500" y="4600" />
              <mxPoint x="1250" y="4600" />
            </Array>
          </mxGeometry>
        </mxCell>
        <mxCell id="0Ew-OyiPKJsIfG58_g5D-235" value="&lt;span style=&quot;font-size: 16px;&quot;&gt;отмена призыва&lt;/span&gt;&lt;div&gt;&lt;span style=&quot;font-size: 16px;&quot;&gt;(минус лимит армии и рекрутов)&lt;br&gt;&lt;/span&gt;&lt;div&gt;&lt;span style=&quot;font-size: 16px;&quot;&gt;анрест убрать&lt;/span&gt;&lt;/div&gt;&lt;/div&gt;" style="text;html=1;align=center;verticalAlign=middle;whiteSpace=wrap;rounded=0;" parent="1" vertex="1">
          <mxGeometry x="1360" y="4441.5" width="280" height="120" as="geometry" />
        </mxCell>
        <mxCell id="0Ew-OyiPKJsIfG58_g5D-236" value="" style="endArrow=none;html=1;rounded=0;exitX=0;exitY=0;exitDx=0;exitDy=0;entryX=1;entryY=0;entryDx=0;entryDy=0;" parent="1" source="0Ew-OyiPKJsIfG58_g5D-235" target="0Ew-OyiPKJsIfG58_g5D-235" edge="1">
          <mxGeometry width="50" height="50" relative="1" as="geometry">
            <mxPoint x="1570" y="4491.5" as="sourcePoint" />
            <mxPoint x="1620" y="4441.5" as="targetPoint" />
          </mxGeometry>
        </mxCell>
        <mxCell id="0Ew-OyiPKJsIfG58_g5D-256" style="edgeStyle=orthogonalEdgeStyle;rounded=0;orthogonalLoop=1;jettySize=auto;html=1;exitX=0.5;exitY=1;exitDx=0;exitDy=0;entryX=0.5;entryY=0;entryDx=0;entryDy=0;" parent="1" source="0Ew-OyiPKJsIfG58_g5D-242" target="0Ew-OyiPKJsIfG58_g5D-251" edge="1">
          <mxGeometry relative="1" as="geometry" />
        </mxCell>
        <mxCell id="0Ew-OyiPKJsIfG58_g5D-242" value="" style="rounded=0;whiteSpace=wrap;html=1;fillColor=#e1d5e7;strokeColor=#9673a6;" parent="1" vertex="1">
          <mxGeometry x="1039.5" y="4676" width="280" height="280" as="geometry" />
        </mxCell>
        <mxCell id="0Ew-OyiPKJsIfG58_g5D-243" value="&lt;b style=&quot;font-size: 20px;&quot;&gt;завершение реформ&lt;/b&gt;" style="text;html=1;align=center;verticalAlign=middle;whiteSpace=wrap;rounded=0;" parent="1" vertex="1">
          <mxGeometry x="1039.5" y="4676" width="280" height="40" as="geometry" />
        </mxCell>
        <mxCell id="0Ew-OyiPKJsIfG58_g5D-244" value="" style="endArrow=none;html=1;rounded=0;exitX=0;exitY=1;exitDx=0;exitDy=0;" parent="1" source="0Ew-OyiPKJsIfG58_g5D-243" edge="1">
          <mxGeometry width="50" height="50" relative="1" as="geometry">
            <mxPoint x="1269.5" y="4856" as="sourcePoint" />
            <mxPoint x="1319.5" y="4716" as="targetPoint" />
          </mxGeometry>
        </mxCell>
        <mxCell id="0Ew-OyiPKJsIfG58_g5D-246" value="&lt;span style=&quot;font-size: 16px;&quot;&gt;событие стартуем дизастер&lt;/span&gt;" style="text;html=1;align=center;verticalAlign=middle;whiteSpace=wrap;rounded=0;" parent="1" vertex="1">
          <mxGeometry x="1039.5" y="4836" width="280" height="110" as="geometry" />
        </mxCell>
        <mxCell id="0Ew-OyiPKJsIfG58_g5D-247" value="" style="endArrow=none;html=1;rounded=0;exitX=0;exitY=0;exitDx=0;exitDy=0;entryX=1;entryY=0;entryDx=0;entryDy=0;" parent="1" source="0Ew-OyiPKJsIfG58_g5D-246" target="0Ew-OyiPKJsIfG58_g5D-246" edge="1">
          <mxGeometry width="50" height="50" relative="1" as="geometry">
            <mxPoint x="1249.5" y="4886" as="sourcePoint" />
            <mxPoint x="1299.5" y="4836" as="targetPoint" />
          </mxGeometry>
        </mxCell>
        <mxCell id="0Ew-OyiPKJsIfG58_g5D-289" style="edgeStyle=orthogonalEdgeStyle;rounded=0;orthogonalLoop=1;jettySize=auto;html=1;exitX=1;exitY=1;exitDx=0;exitDy=0;entryX=0.5;entryY=0;entryDx=0;entryDy=0;" parent="1" source="0Ew-OyiPKJsIfG58_g5D-250" target="0Ew-OyiPKJsIfG58_g5D-283" edge="1">
          <mxGeometry relative="1" as="geometry">
            <Array as="points">
              <mxPoint x="1319.5" y="5396" />
              <mxPoint x="1819.5" y="5396" />
            </Array>
          </mxGeometry>
        </mxCell>
        <mxCell id="0Ew-OyiPKJsIfG58_g5D-290" style="edgeStyle=orthogonalEdgeStyle;rounded=0;orthogonalLoop=1;jettySize=auto;html=1;exitX=0.75;exitY=1;exitDx=0;exitDy=0;entryX=0.5;entryY=0;entryDx=0;entryDy=0;" parent="1" source="0Ew-OyiPKJsIfG58_g5D-250" target="0Ew-OyiPKJsIfG58_g5D-277" edge="1">
          <mxGeometry relative="1" as="geometry" />
        </mxCell>
        <mxCell id="0Ew-OyiPKJsIfG58_g5D-291" style="edgeStyle=orthogonalEdgeStyle;rounded=0;orthogonalLoop=1;jettySize=auto;html=1;exitX=0.5;exitY=1;exitDx=0;exitDy=0;entryX=0.5;entryY=0;entryDx=0;entryDy=0;" parent="1" source="0Ew-OyiPKJsIfG58_g5D-250" target="0Ew-OyiPKJsIfG58_g5D-271" edge="1">
          <mxGeometry relative="1" as="geometry" />
        </mxCell>
        <mxCell id="0Ew-OyiPKJsIfG58_g5D-292" style="edgeStyle=orthogonalEdgeStyle;rounded=0;orthogonalLoop=1;jettySize=auto;html=1;exitX=0.25;exitY=1;exitDx=0;exitDy=0;entryX=0.5;entryY=0;entryDx=0;entryDy=0;" parent="1" source="0Ew-OyiPKJsIfG58_g5D-250" target="0Ew-OyiPKJsIfG58_g5D-259" edge="1">
          <mxGeometry relative="1" as="geometry" />
        </mxCell>
        <mxCell id="0Ew-OyiPKJsIfG58_g5D-293" style="edgeStyle=orthogonalEdgeStyle;rounded=0;orthogonalLoop=1;jettySize=auto;html=1;exitX=0;exitY=1;exitDx=0;exitDy=0;entryX=0.5;entryY=0;entryDx=0;entryDy=0;" parent="1" source="0Ew-OyiPKJsIfG58_g5D-250" target="0Ew-OyiPKJsIfG58_g5D-265" edge="1">
          <mxGeometry relative="1" as="geometry" />
        </mxCell>
        <mxCell id="0Ew-OyiPKJsIfG58_g5D-250" value="" style="rounded=0;whiteSpace=wrap;html=1;fillColor=#e1d5e7;strokeColor=#9673a6;" parent="1" vertex="1">
          <mxGeometry x="1039.5" y="5076" width="280" height="280" as="geometry" />
        </mxCell>
        <mxCell id="0Ew-OyiPKJsIfG58_g5D-251" value="&lt;b style=&quot;font-size: 20px;&quot;&gt;коллапс окончен&lt;/b&gt;" style="text;html=1;align=center;verticalAlign=middle;whiteSpace=wrap;rounded=0;" parent="1" vertex="1">
          <mxGeometry x="1039.5" y="5076" width="280" height="40" as="geometry" />
        </mxCell>
        <mxCell id="0Ew-OyiPKJsIfG58_g5D-252" value="" style="endArrow=none;html=1;rounded=0;exitX=0;exitY=1;exitDx=0;exitDy=0;" parent="1" source="0Ew-OyiPKJsIfG58_g5D-251" edge="1">
          <mxGeometry width="50" height="50" relative="1" as="geometry">
            <mxPoint x="1269.5" y="5256" as="sourcePoint" />
            <mxPoint x="1319.5" y="5116" as="targetPoint" />
          </mxGeometry>
        </mxCell>
        <mxCell id="0Ew-OyiPKJsIfG58_g5D-253" value="&lt;span style=&quot;font-size: 16px;&quot;&gt;теперь можно и уникальные штуки збацать&lt;/span&gt;" style="text;html=1;align=center;verticalAlign=middle;whiteSpace=wrap;rounded=0;" parent="1" vertex="1">
          <mxGeometry x="1039.5" y="5236" width="280" height="110" as="geometry" />
        </mxCell>
        <mxCell id="0Ew-OyiPKJsIfG58_g5D-254" value="" style="endArrow=none;html=1;rounded=0;exitX=0;exitY=0;exitDx=0;exitDy=0;entryX=1;entryY=0;entryDx=0;entryDy=0;" parent="1" source="0Ew-OyiPKJsIfG58_g5D-253" target="0Ew-OyiPKJsIfG58_g5D-253" edge="1">
          <mxGeometry width="50" height="50" relative="1" as="geometry">
            <mxPoint x="1249.5" y="5286" as="sourcePoint" />
            <mxPoint x="1299.5" y="5236" as="targetPoint" />
          </mxGeometry>
        </mxCell>
        <mxCell id="0Ew-OyiPKJsIfG58_g5D-255" value="&lt;div&gt;&lt;span style=&quot;font-size: 16px;&quot;&gt;3к дева&lt;/span&gt;&lt;/div&gt;" style="text;html=1;align=center;verticalAlign=middle;whiteSpace=wrap;rounded=0;" parent="1" vertex="1">
          <mxGeometry x="1039.5" y="5116" width="280" height="120" as="geometry" />
        </mxCell>
        <mxCell id="0Ew-OyiPKJsIfG58_g5D-299" style="edgeStyle=orthogonalEdgeStyle;rounded=0;orthogonalLoop=1;jettySize=auto;html=1;exitX=0.5;exitY=1;exitDx=0;exitDy=0;entryX=0.25;entryY=0;entryDx=0;entryDy=0;" parent="1" source="0Ew-OyiPKJsIfG58_g5D-258" target="0Ew-OyiPKJsIfG58_g5D-30" edge="1">
          <mxGeometry relative="1" as="geometry" />
        </mxCell>
        <mxCell id="0Ew-OyiPKJsIfG58_g5D-258" value="" style="rounded=0;whiteSpace=wrap;html=1;fillColor=#dae8fc;strokeColor=#6c8ebf;" parent="1" vertex="1">
          <mxGeometry x="719.5" y="5436" width="280" height="280" as="geometry" />
        </mxCell>
        <mxCell id="0Ew-OyiPKJsIfG58_g5D-259" value="&lt;font size=&quot;1&quot;&gt;&lt;b style=&quot;font-size: 20px;&quot;&gt;Гонцы&lt;/b&gt;&lt;/font&gt;" style="text;html=1;align=center;verticalAlign=middle;whiteSpace=wrap;rounded=0;" parent="1" vertex="1">
          <mxGeometry x="719.5" y="5436" width="280" height="40" as="geometry" />
        </mxCell>
        <mxCell id="0Ew-OyiPKJsIfG58_g5D-260" value="" style="endArrow=none;html=1;rounded=0;exitX=0;exitY=1;exitDx=0;exitDy=0;" parent="1" source="0Ew-OyiPKJsIfG58_g5D-259" edge="1">
          <mxGeometry width="50" height="50" relative="1" as="geometry">
            <mxPoint x="949.5" y="5616" as="sourcePoint" />
            <mxPoint x="999.5" y="5476" as="targetPoint" />
          </mxGeometry>
        </mxCell>
        <mxCell id="0Ew-OyiPKJsIfG58_g5D-261" value="&lt;span style=&quot;font-size: 16px;&quot;&gt;отношение улучшить до 100 и подарок на 25 с солью перчиком и благовониями&lt;/span&gt;&lt;div&gt;&lt;span style=&quot;font-size: 16px;&quot;&gt;30 дева в золоте гемах сукне мануфактура и воркшоп и соли&lt;/span&gt;&lt;/div&gt;" style="text;html=1;align=center;verticalAlign=middle;whiteSpace=wrap;rounded=0;" parent="1" vertex="1">
          <mxGeometry x="719.5" y="5476" width="280" height="120" as="geometry" />
        </mxCell>
        <mxCell id="0Ew-OyiPKJsIfG58_g5D-262" value="&lt;font style=&quot;font-size: 16px;&quot;&gt;+ дипломат&amp;nbsp;&lt;/font&gt;&lt;div&gt;&lt;font style=&quot;font-size: 16px;&quot;&gt;-33 длительности дипломатов&lt;/font&gt;&lt;/div&gt;&lt;div&gt;&lt;font style=&quot;font-size: 16px;&quot;&gt;+1 дип репа&lt;/font&gt;&lt;/div&gt;&lt;div&gt;&lt;font style=&quot;font-size: 16px;&quot;&gt;+20 отношений&lt;/font&gt;&lt;/div&gt;" style="text;html=1;align=center;verticalAlign=middle;whiteSpace=wrap;rounded=0;" parent="1" vertex="1">
          <mxGeometry x="719.5" y="5596" width="280" height="110" as="geometry" />
        </mxCell>
        <mxCell id="0Ew-OyiPKJsIfG58_g5D-263" value="" style="endArrow=none;html=1;rounded=0;exitX=0;exitY=0;exitDx=0;exitDy=0;entryX=1;entryY=0;entryDx=0;entryDy=0;" parent="1" source="0Ew-OyiPKJsIfG58_g5D-262" target="0Ew-OyiPKJsIfG58_g5D-262" edge="1">
          <mxGeometry width="50" height="50" relative="1" as="geometry">
            <mxPoint x="929.5" y="5646" as="sourcePoint" />
            <mxPoint x="979.5" y="5596" as="targetPoint" />
          </mxGeometry>
        </mxCell>
        <mxCell id="0Ew-OyiPKJsIfG58_g5D-300" style="edgeStyle=orthogonalEdgeStyle;rounded=0;orthogonalLoop=1;jettySize=auto;html=1;exitX=0.5;exitY=1;exitDx=0;exitDy=0;entryX=0;entryY=0;entryDx=0;entryDy=0;" parent="1" source="0Ew-OyiPKJsIfG58_g5D-264" target="0Ew-OyiPKJsIfG58_g5D-30" edge="1">
          <mxGeometry relative="1" as="geometry" />
        </mxCell>
        <mxCell id="0Ew-OyiPKJsIfG58_g5D-264" value="" style="rounded=0;whiteSpace=wrap;html=1;fillColor=#f8cecc;strokeColor=#b85450;" parent="1" vertex="1">
          <mxGeometry x="399.5" y="5436" width="280" height="280" as="geometry" />
        </mxCell>
        <mxCell id="0Ew-OyiPKJsIfG58_g5D-265" value="&lt;span style=&quot;font-size: 20px;&quot;&gt;&lt;b&gt;Генералы&lt;/b&gt;&lt;/span&gt;" style="text;html=1;align=center;verticalAlign=middle;whiteSpace=wrap;rounded=0;" parent="1" vertex="1">
          <mxGeometry x="399.5" y="5436" width="280" height="40" as="geometry" />
        </mxCell>
        <mxCell id="0Ew-OyiPKJsIfG58_g5D-266" value="" style="endArrow=none;html=1;rounded=0;exitX=0;exitY=1;exitDx=0;exitDy=0;" parent="1" source="0Ew-OyiPKJsIfG58_g5D-265" edge="1">
          <mxGeometry width="50" height="50" relative="1" as="geometry">
            <mxPoint x="629.5" y="5616" as="sourcePoint" />
            <mxPoint x="679.5" y="5476" as="targetPoint" />
          </mxGeometry>
        </mxCell>
        <mxCell id="0Ew-OyiPKJsIfG58_g5D-267" value="&lt;span style=&quot;font-size: 16px;&quot;&gt;ген 16 пипсов и трейтом&lt;/span&gt;" style="text;html=1;align=center;verticalAlign=middle;whiteSpace=wrap;rounded=0;" parent="1" vertex="1">
          <mxGeometry x="399.5" y="5476" width="280" height="120" as="geometry" />
        </mxCell>
        <mxCell id="0Ew-OyiPKJsIfG58_g5D-268" value="&lt;font style=&quot;font-size: 16px;&quot;&gt;решение на супер генералов&lt;/font&gt;" style="text;html=1;align=center;verticalAlign=middle;whiteSpace=wrap;rounded=0;" parent="1" vertex="1">
          <mxGeometry x="399.5" y="5596" width="280" height="110" as="geometry" />
        </mxCell>
        <mxCell id="0Ew-OyiPKJsIfG58_g5D-269" value="" style="endArrow=none;html=1;rounded=0;exitX=0;exitY=0;exitDx=0;exitDy=0;entryX=1;entryY=0;entryDx=0;entryDy=0;" parent="1" source="0Ew-OyiPKJsIfG58_g5D-268" target="0Ew-OyiPKJsIfG58_g5D-268" edge="1">
          <mxGeometry width="50" height="50" relative="1" as="geometry">
            <mxPoint x="609.5" y="5646" as="sourcePoint" />
            <mxPoint x="659.5" y="5596" as="targetPoint" />
          </mxGeometry>
        </mxCell>
        <mxCell id="0Ew-OyiPKJsIfG58_g5D-298" style="edgeStyle=orthogonalEdgeStyle;rounded=0;orthogonalLoop=1;jettySize=auto;html=1;exitX=0.5;exitY=1;exitDx=0;exitDy=0;entryX=0.5;entryY=0;entryDx=0;entryDy=0;" parent="1" source="0Ew-OyiPKJsIfG58_g5D-270" target="0Ew-OyiPKJsIfG58_g5D-30" edge="1">
          <mxGeometry relative="1" as="geometry" />
        </mxCell>
        <mxCell id="0Ew-OyiPKJsIfG58_g5D-270" value="" style="rounded=0;whiteSpace=wrap;html=1;fillColor=#e1d5e7;strokeColor=#9673a6;" parent="1" vertex="1">
          <mxGeometry x="1039.5" y="5436" width="280" height="280" as="geometry" />
        </mxCell>
        <mxCell id="0Ew-OyiPKJsIfG58_g5D-271" value="&lt;font size=&quot;1&quot;&gt;&lt;b style=&quot;font-size: 20px;&quot;&gt;мудрецы&lt;/b&gt;&lt;/font&gt;" style="text;html=1;align=center;verticalAlign=middle;whiteSpace=wrap;rounded=0;" parent="1" vertex="1">
          <mxGeometry x="1039.5" y="5436" width="280" height="40" as="geometry" />
        </mxCell>
        <mxCell id="0Ew-OyiPKJsIfG58_g5D-272" value="" style="endArrow=none;html=1;rounded=0;exitX=0;exitY=1;exitDx=0;exitDy=0;" parent="1" source="0Ew-OyiPKJsIfG58_g5D-271" edge="1">
          <mxGeometry width="50" height="50" relative="1" as="geometry">
            <mxPoint x="1269.5" y="5616" as="sourcePoint" />
            <mxPoint x="1319.5" y="5476" as="targetPoint" />
          </mxGeometry>
        </mxCell>
        <mxCell id="0Ew-OyiPKJsIfG58_g5D-273" value="&lt;font style=&quot;font-size: 16px;&quot;&gt;3 советника 5 лвла&lt;/font&gt;" style="text;html=1;align=center;verticalAlign=middle;whiteSpace=wrap;rounded=0;" parent="1" vertex="1">
          <mxGeometry x="1039.5" y="5476" width="280" height="120" as="geometry" />
        </mxCell>
        <mxCell id="0Ew-OyiPKJsIfG58_g5D-274" value="&lt;font style=&quot;font-size: 16px;&quot;&gt;Text&lt;/font&gt;" style="text;html=1;align=center;verticalAlign=middle;whiteSpace=wrap;rounded=0;" parent="1" vertex="1">
          <mxGeometry x="1039.5" y="5596" width="280" height="110" as="geometry" />
        </mxCell>
        <mxCell id="0Ew-OyiPKJsIfG58_g5D-275" value="" style="endArrow=none;html=1;rounded=0;exitX=0;exitY=0;exitDx=0;exitDy=0;entryX=1;entryY=0;entryDx=0;entryDy=0;" parent="1" source="0Ew-OyiPKJsIfG58_g5D-274" target="0Ew-OyiPKJsIfG58_g5D-274" edge="1">
          <mxGeometry width="50" height="50" relative="1" as="geometry">
            <mxPoint x="1249.5" y="5646" as="sourcePoint" />
            <mxPoint x="1299.5" y="5596" as="targetPoint" />
          </mxGeometry>
        </mxCell>
        <mxCell id="0Ew-OyiPKJsIfG58_g5D-297" style="edgeStyle=orthogonalEdgeStyle;rounded=0;orthogonalLoop=1;jettySize=auto;html=1;exitX=0.5;exitY=1;exitDx=0;exitDy=0;entryX=0.75;entryY=0;entryDx=0;entryDy=0;" parent="1" source="0Ew-OyiPKJsIfG58_g5D-276" target="0Ew-OyiPKJsIfG58_g5D-30" edge="1">
          <mxGeometry relative="1" as="geometry" />
        </mxCell>
        <mxCell id="0Ew-OyiPKJsIfG58_g5D-276" value="" style="rounded=0;whiteSpace=wrap;html=1;fillColor=#f8cecc;strokeColor=#b85450;" parent="1" vertex="1">
          <mxGeometry x="1359.5" y="5436" width="280" height="280" as="geometry" />
        </mxCell>
        <mxCell id="0Ew-OyiPKJsIfG58_g5D-277" value="&lt;font size=&quot;1&quot;&gt;&lt;b style=&quot;font-size: 20px;&quot;&gt;мега охрана&lt;/b&gt;&lt;/font&gt;" style="text;html=1;align=center;verticalAlign=middle;whiteSpace=wrap;rounded=0;" parent="1" vertex="1">
          <mxGeometry x="1359.5" y="5436" width="280" height="40" as="geometry" />
        </mxCell>
        <mxCell id="0Ew-OyiPKJsIfG58_g5D-278" value="" style="endArrow=none;html=1;rounded=0;exitX=0;exitY=1;exitDx=0;exitDy=0;" parent="1" source="0Ew-OyiPKJsIfG58_g5D-277" edge="1">
          <mxGeometry width="50" height="50" relative="1" as="geometry">
            <mxPoint x="1589.5" y="5616" as="sourcePoint" />
            <mxPoint x="1639.5" y="5476" as="targetPoint" />
          </mxGeometry>
        </mxCell>
        <mxCell id="0Ew-OyiPKJsIfG58_g5D-279" value="&lt;font style=&quot;font-size: 16px;&quot;&gt;80 профессионализма или традишек&lt;/font&gt;" style="text;html=1;align=center;verticalAlign=middle;whiteSpace=wrap;rounded=0;" parent="1" vertex="1">
          <mxGeometry x="1359.5" y="5476" width="280" height="120" as="geometry" />
        </mxCell>
        <mxCell id="0Ew-OyiPKJsIfG58_g5D-280" value="&lt;font style=&quot;font-size: 16px;&quot;&gt;наёмники крутые&lt;/font&gt;" style="text;html=1;align=center;verticalAlign=middle;whiteSpace=wrap;rounded=0;" parent="1" vertex="1">
          <mxGeometry x="1359.5" y="5596" width="280" height="110" as="geometry" />
        </mxCell>
        <mxCell id="0Ew-OyiPKJsIfG58_g5D-281" value="" style="endArrow=none;html=1;rounded=0;exitX=0;exitY=0;exitDx=0;exitDy=0;entryX=1;entryY=0;entryDx=0;entryDy=0;" parent="1" source="0Ew-OyiPKJsIfG58_g5D-280" target="0Ew-OyiPKJsIfG58_g5D-280" edge="1">
          <mxGeometry width="50" height="50" relative="1" as="geometry">
            <mxPoint x="1569.5" y="5646" as="sourcePoint" />
            <mxPoint x="1619.5" y="5596" as="targetPoint" />
          </mxGeometry>
        </mxCell>
        <mxCell id="0Ew-OyiPKJsIfG58_g5D-296" style="edgeStyle=orthogonalEdgeStyle;rounded=0;orthogonalLoop=1;jettySize=auto;html=1;exitX=0.5;exitY=1;exitDx=0;exitDy=0;entryX=1;entryY=0;entryDx=0;entryDy=0;" parent="1" source="0Ew-OyiPKJsIfG58_g5D-282" target="0Ew-OyiPKJsIfG58_g5D-30" edge="1">
          <mxGeometry relative="1" as="geometry" />
        </mxCell>
        <mxCell id="0Ew-OyiPKJsIfG58_g5D-282" value="" style="rounded=0;whiteSpace=wrap;html=1;fillColor=#f8cecc;strokeColor=#b85450;" parent="1" vertex="1">
          <mxGeometry x="1679.5" y="5436" width="280" height="280" as="geometry" />
        </mxCell>
        <mxCell id="0Ew-OyiPKJsIfG58_g5D-283" value="&lt;span style=&quot;font-size: 20px;&quot;&gt;&lt;b&gt;Повелитель зверей и чудовищ&lt;/b&gt;&lt;/span&gt;" style="text;html=1;align=center;verticalAlign=middle;whiteSpace=wrap;rounded=0;" parent="1" vertex="1">
          <mxGeometry x="1679.5" y="5436" width="280" height="40" as="geometry" />
        </mxCell>
        <mxCell id="0Ew-OyiPKJsIfG58_g5D-284" value="" style="endArrow=none;html=1;rounded=0;exitX=0;exitY=1;exitDx=0;exitDy=0;" parent="1" source="0Ew-OyiPKJsIfG58_g5D-283" edge="1">
          <mxGeometry width="50" height="50" relative="1" as="geometry">
            <mxPoint x="1909.5" y="5616" as="sourcePoint" />
            <mxPoint x="1959.5" y="5476" as="targetPoint" />
          </mxGeometry>
        </mxCell>
        <mxCell id="0Ew-OyiPKJsIfG58_g5D-285" value="&lt;font style=&quot;font-size: 16px;&quot;&gt;рыба корова шерсть шкура с башней магов и 30 дева&lt;/font&gt;&lt;div&gt;&lt;font style=&quot;font-size: 16px;&quot;&gt;шпион 5 лвла&lt;/font&gt;&lt;/div&gt;" style="text;html=1;align=center;verticalAlign=middle;whiteSpace=wrap;rounded=0;" parent="1" vertex="1">
          <mxGeometry x="1679.5" y="5476" width="280" height="120" as="geometry" />
        </mxCell>
        <mxCell id="0Ew-OyiPKJsIfG58_g5D-286" value="&lt;font style=&quot;font-size: 16px;&quot;&gt;+50 шпионки&amp;nbsp;&lt;/font&gt;&lt;div&gt;&lt;font style=&quot;font-size: 16px;&quot;&gt;-50 за нами шпионки&lt;/font&gt;&lt;/div&gt;&lt;div&gt;&lt;font style=&quot;font-size: 16px;&quot;&gt;отряд мега коней&lt;/font&gt;&lt;/div&gt;" style="text;html=1;align=center;verticalAlign=middle;whiteSpace=wrap;rounded=0;" parent="1" vertex="1">
          <mxGeometry x="1680.5" y="5596" width="280" height="110" as="geometry" />
        </mxCell>
        <mxCell id="0Ew-OyiPKJsIfG58_g5D-287" value="" style="endArrow=none;html=1;rounded=0;exitX=0;exitY=0;exitDx=0;exitDy=0;entryX=1;entryY=0;entryDx=0;entryDy=0;" parent="1" source="0Ew-OyiPKJsIfG58_g5D-286" target="0Ew-OyiPKJsIfG58_g5D-286" edge="1">
          <mxGeometry width="50" height="50" relative="1" as="geometry">
            <mxPoint x="1889.5" y="5646" as="sourcePoint" />
            <mxPoint x="1939.5" y="5596" as="targetPoint" />
          </mxGeometry>
        </mxCell>
        <mxCell id="0Ew-OyiPKJsIfG58_g5D-302" value="&lt;span style=&quot;font-size: 20px;&quot;&gt;&lt;b&gt;МОНУМЕНТ&lt;/b&gt;&lt;/span&gt;&lt;div&gt;&lt;span style=&quot;font-size: 20px;&quot;&gt;&lt;b&gt;ДИЗАСТЕР&lt;/b&gt;&lt;/span&gt;&lt;/div&gt;&lt;div&gt;&lt;span style=&quot;font-size: 20px;&quot;&gt;&lt;b&gt;МБ ПРИВИЛЕЖКИ&lt;/b&gt;&lt;/span&gt;&lt;/div&gt;&lt;div&gt;&lt;span style=&quot;font-size: 20px;&quot;&gt;&lt;b&gt;РЕФОРМА&lt;/b&gt;&lt;/span&gt;&lt;/div&gt;&lt;div&gt;&lt;span style=&quot;font-size: 20px;&quot;&gt;&lt;b&gt;ДИП КНОПКА&lt;/b&gt;&lt;/span&gt;&lt;/div&gt;&lt;div&gt;&lt;span style=&quot;font-size: 20px;&quot;&gt;&lt;b&gt;ДЕСИЖН НА ПРОЕКТЫ&lt;/b&gt;&lt;/span&gt;&lt;/div&gt;&lt;div&gt;&lt;span style=&quot;font-size: 20px;&quot;&gt;&lt;b&gt;&lt;br&gt;&lt;/b&gt;&lt;/span&gt;&lt;/div&gt;" style="text;html=1;align=center;verticalAlign=middle;whiteSpace=wrap;rounded=0;" parent="1" vertex="1">
          <mxGeometry x="1400" y="-920" width="560" height="360" as="geometry" />
        </mxCell>
        <mxCell id="zbp4zT6m88arXSk8hrGC-52" style="edgeStyle=orthogonalEdgeStyle;rounded=0;orthogonalLoop=1;jettySize=auto;html=1;exitX=0.5;exitY=1;exitDx=0;exitDy=0;entryX=0.5;entryY=0;entryDx=0;entryDy=0;" parent="1" source="zbp4zT6m88arXSk8hrGC-7" target="9ghoXm-9nMgsTZUyEOmh-33" edge="1">
          <mxGeometry relative="1" as="geometry" />
        </mxCell>
        <mxCell id="zbp4zT6m88arXSk8hrGC-7" value="" style="rounded=0;whiteSpace=wrap;html=1;fillColor=#d5e8d4;strokeColor=#82b366;" parent="1" vertex="1">
          <mxGeometry x="400" y="-120" width="280" height="280" as="geometry" />
        </mxCell>
        <mxCell id="zbp4zT6m88arXSk8hrGC-8" value="&lt;font size=&quot;1&quot;&gt;&lt;b style=&quot;font-size: 20px;&quot;&gt;Экономическая база&lt;/b&gt;&lt;/font&gt;" style="text;html=1;align=center;verticalAlign=middle;whiteSpace=wrap;rounded=0;" parent="1" vertex="1">
          <mxGeometry x="400" y="-120" width="280" height="40" as="geometry" />
        </mxCell>
        <mxCell id="zbp4zT6m88arXSk8hrGC-9" value="" style="endArrow=none;html=1;rounded=0;exitX=0;exitY=1;exitDx=0;exitDy=0;" parent="1" source="zbp4zT6m88arXSk8hrGC-8" edge="1">
          <mxGeometry width="50" height="50" relative="1" as="geometry">
            <mxPoint x="630" y="60" as="sourcePoint" />
            <mxPoint x="680" y="-80" as="targetPoint" />
          </mxGeometry>
        </mxCell>
        <mxCell id="zbp4zT6m88arXSk8hrGC-10" value="&lt;font style=&quot;font-size: 16px;&quot;&gt;800 дукатов&lt;/font&gt;" style="text;html=1;align=center;verticalAlign=middle;whiteSpace=wrap;rounded=0;" parent="1" vertex="1">
          <mxGeometry x="400" y="-80" width="280" height="120" as="geometry" />
        </mxCell>
        <mxCell id="zbp4zT6m88arXSk8hrGC-11" value="&lt;font style=&quot;font-size: 16px;&quot;&gt;-0.1 инфляции&amp;nbsp;&lt;/font&gt;&lt;div&gt;&lt;font style=&quot;font-size: 16px;&quot;&gt;10 лет&lt;/font&gt;&lt;/div&gt;" style="text;html=1;align=center;verticalAlign=middle;whiteSpace=wrap;rounded=0;" parent="1" vertex="1">
          <mxGeometry x="400" y="40" width="280" height="110" as="geometry" />
        </mxCell>
        <mxCell id="zbp4zT6m88arXSk8hrGC-12" value="" style="endArrow=none;html=1;rounded=0;exitX=0;exitY=0;exitDx=0;exitDy=0;entryX=1;entryY=0;entryDx=0;entryDy=0;" parent="1" source="zbp4zT6m88arXSk8hrGC-11" target="zbp4zT6m88arXSk8hrGC-11" edge="1">
          <mxGeometry width="50" height="50" relative="1" as="geometry">
            <mxPoint x="610" y="90" as="sourcePoint" />
            <mxPoint x="660" y="40" as="targetPoint" />
          </mxGeometry>
        </mxCell>
        <mxCell id="zbp4zT6m88arXSk8hrGC-50" style="edgeStyle=orthogonalEdgeStyle;rounded=0;orthogonalLoop=1;jettySize=auto;html=1;exitX=0.5;exitY=1;exitDx=0;exitDy=0;entryX=0.5;entryY=0;entryDx=0;entryDy=0;" parent="1" source="zbp4zT6m88arXSk8hrGC-13" target="dLLO4N_0DPD6AMVL1Fj_-113" edge="1">
          <mxGeometry relative="1" as="geometry" />
        </mxCell>
        <mxCell id="zbp4zT6m88arXSk8hrGC-13" value="" style="rounded=0;whiteSpace=wrap;html=1;fillColor=#f8cecc;strokeColor=#b85450;" parent="1" vertex="1">
          <mxGeometry x="1040" y="-120" width="280" height="280" as="geometry" />
        </mxCell>
        <mxCell id="zbp4zT6m88arXSk8hrGC-14" value="&lt;font size=&quot;1&quot;&gt;&lt;b style=&quot;font-size: 20px;&quot;&gt;периметр 2&lt;/b&gt;&lt;/font&gt;" style="text;html=1;align=center;verticalAlign=middle;whiteSpace=wrap;rounded=0;" parent="1" vertex="1">
          <mxGeometry x="1040" y="-120" width="280" height="40" as="geometry" />
        </mxCell>
        <mxCell id="zbp4zT6m88arXSk8hrGC-15" value="" style="endArrow=none;html=1;rounded=0;exitX=0;exitY=1;exitDx=0;exitDy=0;" parent="1" source="zbp4zT6m88arXSk8hrGC-14" edge="1">
          <mxGeometry width="50" height="50" relative="1" as="geometry">
            <mxPoint x="1270" y="60" as="sourcePoint" />
            <mxPoint x="1320" y="-80" as="targetPoint" />
          </mxGeometry>
        </mxCell>
        <mxCell id="zbp4zT6m88arXSk8hrGC-16" value="&lt;font style=&quot;font-size: 16px;&quot;&gt;20 провинций внутренний кастанор&lt;/font&gt;" style="text;html=1;align=center;verticalAlign=middle;whiteSpace=wrap;rounded=0;" parent="1" vertex="1">
          <mxGeometry x="1040" y="-80" width="280" height="120" as="geometry" />
        </mxCell>
        <mxCell id="zbp4zT6m88arXSk8hrGC-17" value="&lt;font style=&quot;font-size: 16px;&quot;&gt;соседние области&lt;/font&gt;" style="text;html=1;align=center;verticalAlign=middle;whiteSpace=wrap;rounded=0;" parent="1" vertex="1">
          <mxGeometry x="1040" y="40" width="280" height="110" as="geometry" />
        </mxCell>
        <mxCell id="zbp4zT6m88arXSk8hrGC-18" value="" style="endArrow=none;html=1;rounded=0;exitX=0;exitY=0;exitDx=0;exitDy=0;entryX=1;entryY=0;entryDx=0;entryDy=0;" parent="1" source="zbp4zT6m88arXSk8hrGC-17" target="zbp4zT6m88arXSk8hrGC-17" edge="1">
          <mxGeometry width="50" height="50" relative="1" as="geometry">
            <mxPoint x="1250" y="90" as="sourcePoint" />
            <mxPoint x="1300" y="40" as="targetPoint" />
          </mxGeometry>
        </mxCell>
        <mxCell id="zbp4zT6m88arXSk8hrGC-31" value="" style="rounded=0;whiteSpace=wrap;html=1;fillColor=#d5e8d4;strokeColor=#82b366;" parent="1" vertex="1">
          <mxGeometry x="401" y="-520" width="280" height="280" as="geometry" />
        </mxCell>
        <mxCell id="zbp4zT6m88arXSk8hrGC-32" value="&lt;font size=&quot;1&quot;&gt;&lt;b style=&quot;font-size: 20px;&quot;&gt;Экономическая база&lt;/b&gt;&lt;/font&gt;" style="text;html=1;align=center;verticalAlign=middle;whiteSpace=wrap;rounded=0;" parent="1" vertex="1">
          <mxGeometry x="401" y="-520" width="280" height="40" as="geometry" />
        </mxCell>
        <mxCell id="zbp4zT6m88arXSk8hrGC-33" value="" style="endArrow=none;html=1;rounded=0;exitX=0;exitY=1;exitDx=0;exitDy=0;" parent="1" source="zbp4zT6m88arXSk8hrGC-32" edge="1">
          <mxGeometry width="50" height="50" relative="1" as="geometry">
            <mxPoint x="631" y="-340" as="sourcePoint" />
            <mxPoint x="681" y="-480" as="targetPoint" />
          </mxGeometry>
        </mxCell>
        <mxCell id="zbp4zT6m88arXSk8hrGC-34" value="&lt;font style=&quot;font-size: 16px;&quot;&gt;Иметь доход 20 монет&lt;/font&gt;" style="text;html=1;align=center;verticalAlign=middle;whiteSpace=wrap;rounded=0;" parent="1" vertex="1">
          <mxGeometry x="401" y="-480" width="280" height="120" as="geometry" />
        </mxCell>
        <mxCell id="zbp4zT6m88arXSk8hrGC-51" style="edgeStyle=orthogonalEdgeStyle;rounded=0;orthogonalLoop=1;jettySize=auto;html=1;exitX=0.5;exitY=1;exitDx=0;exitDy=0;entryX=0.5;entryY=0;entryDx=0;entryDy=0;" parent="1" source="zbp4zT6m88arXSk8hrGC-35" target="zbp4zT6m88arXSk8hrGC-8" edge="1">
          <mxGeometry relative="1" as="geometry" />
        </mxCell>
        <mxCell id="zbp4zT6m88arXSk8hrGC-35" value="&lt;font style=&quot;font-size: 16px;&quot;&gt;торговое влияние +20&lt;/font&gt;&lt;div&gt;&lt;font style=&quot;font-size: 16px;&quot;&gt;20 лет&lt;/font&gt;&lt;/div&gt;" style="text;html=1;align=center;verticalAlign=middle;whiteSpace=wrap;rounded=0;" parent="1" vertex="1">
          <mxGeometry x="401" y="-360" width="280" height="110" as="geometry" />
        </mxCell>
        <mxCell id="zbp4zT6m88arXSk8hrGC-36" value="" style="endArrow=none;html=1;rounded=0;exitX=0;exitY=0;exitDx=0;exitDy=0;entryX=1;entryY=0;entryDx=0;entryDy=0;" parent="1" source="zbp4zT6m88arXSk8hrGC-35" target="zbp4zT6m88arXSk8hrGC-35" edge="1">
          <mxGeometry width="50" height="50" relative="1" as="geometry">
            <mxPoint x="611" y="-310" as="sourcePoint" />
            <mxPoint x="661" y="-360" as="targetPoint" />
          </mxGeometry>
        </mxCell>
        <mxCell id="zbp4zT6m88arXSk8hrGC-37" value="" style="rounded=0;whiteSpace=wrap;html=1;fillColor=#f8cecc;strokeColor=#b85450;" parent="1" vertex="1">
          <mxGeometry x="1041" y="-520" width="280" height="280" as="geometry" />
        </mxCell>
        <mxCell id="zbp4zT6m88arXSk8hrGC-38" value="&lt;span style=&quot;font-size: 20px;&quot;&gt;&lt;b&gt;периметр 1&amp;nbsp;&lt;/b&gt;&lt;/span&gt;" style="text;html=1;align=center;verticalAlign=middle;whiteSpace=wrap;rounded=0;" parent="1" vertex="1">
          <mxGeometry x="1041" y="-520" width="280" height="40" as="geometry" />
        </mxCell>
        <mxCell id="zbp4zT6m88arXSk8hrGC-39" value="" style="endArrow=none;html=1;rounded=0;exitX=0;exitY=1;exitDx=0;exitDy=0;" parent="1" source="zbp4zT6m88arXSk8hrGC-38" edge="1">
          <mxGeometry width="50" height="50" relative="1" as="geometry">
            <mxPoint x="1271" y="-340" as="sourcePoint" />
            <mxPoint x="1321" y="-480" as="targetPoint" />
          </mxGeometry>
        </mxCell>
        <mxCell id="zbp4zT6m88arXSk8hrGC-40" value="&lt;font style=&quot;font-size: 16px;&quot;&gt;владеть 10 провинций внутренний кастанор&lt;/font&gt;" style="text;html=1;align=center;verticalAlign=middle;whiteSpace=wrap;rounded=0;" parent="1" vertex="1">
          <mxGeometry x="1041" y="-480" width="280" height="120" as="geometry" />
        </mxCell>
        <mxCell id="zbp4zT6m88arXSk8hrGC-41" value="&lt;font style=&quot;font-size: 16px;&quot;&gt;соседние провинции&lt;/font&gt;" style="text;html=1;align=center;verticalAlign=middle;whiteSpace=wrap;rounded=0;" parent="1" vertex="1">
          <mxGeometry x="1041" y="-360" width="280" height="110" as="geometry" />
        </mxCell>
        <mxCell id="zbp4zT6m88arXSk8hrGC-42" value="" style="endArrow=none;html=1;rounded=0;exitX=0;exitY=0;exitDx=0;exitDy=0;entryX=1;entryY=0;entryDx=0;entryDy=0;" parent="1" source="zbp4zT6m88arXSk8hrGC-41" target="zbp4zT6m88arXSk8hrGC-41" edge="1">
          <mxGeometry width="50" height="50" relative="1" as="geometry">
            <mxPoint x="1251" y="-310" as="sourcePoint" />
            <mxPoint x="1301" y="-360" as="targetPoint" />
          </mxGeometry>
        </mxCell>
        <mxCell id="zbp4zT6m88arXSk8hrGC-53" style="edgeStyle=orthogonalEdgeStyle;rounded=0;orthogonalLoop=1;jettySize=auto;html=1;exitX=0.5;exitY=1;exitDx=0;exitDy=0;entryX=0.502;entryY=-0.093;entryDx=0;entryDy=0;entryPerimeter=0;" parent="1" source="zbp4zT6m88arXSk8hrGC-37" target="zbp4zT6m88arXSk8hrGC-14" edge="1">
          <mxGeometry relative="1" as="geometry" />
        </mxCell>
        <mxCell id="zXEYMMwjNXa4FBfzbXqo-2" value="&lt;font style=&quot;font-size: 22px;&quot;&gt;1&lt;/font&gt;" style="text;html=1;align=center;verticalAlign=middle;whiteSpace=wrap;rounded=0;fontStyle=1;fillColor=#000000;strokeColor=#005700;fontColor=#ffffff;" parent="1" vertex="1">
          <mxGeometry x="280" y="-440" width="80" height="80" as="geometry" />
        </mxCell>
        <mxCell id="zXEYMMwjNXa4FBfzbXqo-3" value="&lt;font style=&quot;font-size: 22px;&quot;&gt;2&lt;/font&gt;" style="text;html=1;align=center;verticalAlign=middle;whiteSpace=wrap;rounded=0;fontStyle=1;fillColor=#000000;strokeColor=#005700;fontColor=#ffffff;" parent="1" vertex="1">
          <mxGeometry x="280" y="-40" width="80" height="80" as="geometry" />
        </mxCell>
        <mxCell id="zXEYMMwjNXa4FBfzbXqo-4" value="&lt;font style=&quot;font-size: 22px;&quot;&gt;3&lt;/font&gt;" style="text;html=1;align=center;verticalAlign=middle;whiteSpace=wrap;rounded=0;fontStyle=1;fillColor=#000000;strokeColor=#005700;fontColor=#ffffff;" parent="1" vertex="1">
          <mxGeometry x="280" y="360" width="80" height="80" as="geometry" />
        </mxCell>
        <mxCell id="zXEYMMwjNXa4FBfzbXqo-5" value="&lt;font style=&quot;font-size: 22px;&quot;&gt;4&lt;/font&gt;" style="text;html=1;align=center;verticalAlign=middle;whiteSpace=wrap;rounded=0;fontStyle=1;fillColor=#000000;strokeColor=#005700;fontColor=#ffffff;" parent="1" vertex="1">
          <mxGeometry x="280" y="760" width="80" height="80" as="geometry" />
        </mxCell>
        <mxCell id="zXEYMMwjNXa4FBfzbXqo-6" value="&lt;font style=&quot;font-size: 22px;&quot;&gt;5&lt;/font&gt;" style="text;html=1;align=center;verticalAlign=middle;whiteSpace=wrap;rounded=0;fontStyle=1;fillColor=#000000;strokeColor=#005700;fontColor=#ffffff;" parent="1" vertex="1">
          <mxGeometry x="280" y="1160" width="80" height="80" as="geometry" />
        </mxCell>
        <mxCell id="zXEYMMwjNXa4FBfzbXqo-7" value="&lt;font style=&quot;font-size: 22px;&quot;&gt;6&lt;/font&gt;" style="text;html=1;align=center;verticalAlign=middle;whiteSpace=wrap;rounded=0;fontStyle=1;fillColor=#000000;strokeColor=#005700;fontColor=#ffffff;" parent="1" vertex="1">
          <mxGeometry x="280" y="1560" width="80" height="80" as="geometry" />
        </mxCell>
        <mxCell id="zXEYMMwjNXa4FBfzbXqo-8" value="&lt;font style=&quot;font-size: 22px;&quot;&gt;7&lt;/font&gt;" style="text;html=1;align=center;verticalAlign=middle;whiteSpace=wrap;rounded=0;fontStyle=1;fillColor=#000000;strokeColor=#005700;fontColor=#ffffff;" parent="1" vertex="1">
          <mxGeometry x="280" y="1960" width="80" height="80" as="geometry" />
        </mxCell>
        <mxCell id="zXEYMMwjNXa4FBfzbXqo-9" value="&lt;font style=&quot;font-size: 22px;&quot;&gt;8&lt;/font&gt;" style="text;html=1;align=center;verticalAlign=middle;whiteSpace=wrap;rounded=0;fontStyle=1;fillColor=#000000;strokeColor=#005700;fontColor=#ffffff;" parent="1" vertex="1">
          <mxGeometry x="280" y="2360" width="80" height="80" as="geometry" />
        </mxCell>
        <mxCell id="zXEYMMwjNXa4FBfzbXqo-10" value="&lt;font style=&quot;font-size: 22px;&quot;&gt;9&lt;/font&gt;" style="text;html=1;align=center;verticalAlign=middle;whiteSpace=wrap;rounded=0;fontStyle=1;fillColor=#000000;strokeColor=#005700;fontColor=#ffffff;" parent="1" vertex="1">
          <mxGeometry x="280" y="2760" width="80" height="80" as="geometry" />
        </mxCell>
        <mxCell id="zXEYMMwjNXa4FBfzbXqo-11" value="&lt;font style=&quot;font-size: 22px;&quot;&gt;10&lt;/font&gt;" style="text;html=1;align=center;verticalAlign=middle;whiteSpace=wrap;rounded=0;fontStyle=1;fillColor=#000000;strokeColor=#005700;fontColor=#ffffff;" parent="1" vertex="1">
          <mxGeometry x="280" y="3161" width="80" height="80" as="geometry" />
        </mxCell>
        <mxCell id="zXEYMMwjNXa4FBfzbXqo-12" value="&lt;font style=&quot;font-size: 22px;&quot;&gt;11&lt;/font&gt;" style="text;html=1;align=center;verticalAlign=middle;whiteSpace=wrap;rounded=0;fontStyle=1;fillColor=#000000;strokeColor=#005700;fontColor=#ffffff;" parent="1" vertex="1">
          <mxGeometry x="280" y="3561.5" width="80" height="80" as="geometry" />
        </mxCell>
        <mxCell id="zXEYMMwjNXa4FBfzbXqo-13" value="&lt;font style=&quot;font-size: 22px;&quot;&gt;12&lt;/font&gt;" style="text;html=1;align=center;verticalAlign=middle;whiteSpace=wrap;rounded=0;fontStyle=1;fillColor=#000000;strokeColor=#005700;fontColor=#ffffff;" parent="1" vertex="1">
          <mxGeometry x="280" y="3960" width="80" height="80" as="geometry" />
        </mxCell>
        <mxCell id="zXEYMMwjNXa4FBfzbXqo-14" value="&lt;font style=&quot;font-size: 22px;&quot;&gt;13&lt;/font&gt;" style="text;html=1;align=center;verticalAlign=middle;whiteSpace=wrap;rounded=0;fontStyle=1;fillColor=#000000;strokeColor=#005700;fontColor=#ffffff;" parent="1" vertex="1">
          <mxGeometry x="280" y="4360" width="80" height="80" as="geometry" />
        </mxCell>
        <mxCell id="zXEYMMwjNXa4FBfzbXqo-15" value="&lt;font style=&quot;font-size: 22px;&quot;&gt;14&lt;/font&gt;" style="text;html=1;align=center;verticalAlign=middle;whiteSpace=wrap;rounded=0;fontStyle=1;fillColor=#000000;strokeColor=#005700;fontColor=#ffffff;" parent="1" vertex="1">
          <mxGeometry x="280" y="4760" width="80" height="80" as="geometry" />
        </mxCell>
        <mxCell id="zXEYMMwjNXa4FBfzbXqo-16" value="&lt;font style=&quot;font-size: 22px;&quot;&gt;15&lt;/font&gt;" style="text;html=1;align=center;verticalAlign=middle;whiteSpace=wrap;rounded=0;fontStyle=1;fillColor=#000000;strokeColor=#005700;fontColor=#ffffff;" parent="1" vertex="1">
          <mxGeometry x="280" y="5120" width="80" height="80" as="geometry" />
        </mxCell>
        <mxCell id="zXEYMMwjNXa4FBfzbXqo-17" value="&lt;font style=&quot;font-size: 22px;&quot;&gt;16&lt;/font&gt;" style="text;html=1;align=center;verticalAlign=middle;whiteSpace=wrap;rounded=0;fontStyle=1;fillColor=#000000;strokeColor=#005700;fontColor=#ffffff;" parent="1" vertex="1">
          <mxGeometry x="280" y="5480" width="80" height="80" as="geometry" />
        </mxCell>
        <mxCell id="zXEYMMwjNXa4FBfzbXqo-18" value="&lt;font style=&quot;font-size: 22px;&quot;&gt;17&lt;/font&gt;" style="text;html=1;align=center;verticalAlign=middle;whiteSpace=wrap;rounded=0;fontStyle=1;fillColor=#000000;strokeColor=#005700;fontColor=#ffffff;" parent="1" vertex="1">
          <mxGeometry x="280" y="5880" width="80" height="80" as="geometry" />
        </mxCell>
        <mxCell id="zXEYMMwjNXa4FBfzbXqo-19" value="&lt;font style=&quot;font-size: 22px;&quot;&gt;18&lt;/font&gt;" style="text;html=1;align=center;verticalAlign=middle;whiteSpace=wrap;rounded=0;fontStyle=1;fillColor=#000000;strokeColor=#005700;fontColor=#ffffff;" parent="1" vertex="1">
          <mxGeometry x="280" y="6280" width="80" height="80" as="geometry" />
        </mxCell>
        <mxCell id="MGUnxN-y1VWMcGxOPfXG-1" style="edgeStyle=orthogonalEdgeStyle;rounded=0;orthogonalLoop=1;jettySize=auto;html=1;exitX=1;exitY=1;exitDx=0;exitDy=0;entryX=0.29;entryY=-0.018;entryDx=0;entryDy=0;entryPerimeter=0;" parent="1" source="9ghoXm-9nMgsTZUyEOmh-267" target="9ghoXm-9nMgsTZUyEOmh-204" edge="1">
          <mxGeometry relative="1" as="geometry">
            <Array as="points">
              <mxPoint x="1000" y="1800" />
              <mxPoint x="1121" y="1800" />
            </Array>
          </mxGeometry>
        </mxCell>
        <mxCell id="MGUnxN-y1VWMcGxOPfXG-2" value="&lt;font style=&quot;font-size: 22px;&quot;&gt;19&lt;/font&gt;" style="text;html=1;align=center;verticalAlign=middle;whiteSpace=wrap;rounded=0;fontStyle=1;fillColor=#000000;strokeColor=#005700;fontColor=#ffffff;" parent="1" vertex="1">
          <mxGeometry x="280" y="6676" width="80" height="80" as="geometry" />
        </mxCell>
        <mxCell id="adHzRCtXYdIg2MAHcMbn-78" style="edgeStyle=orthogonalEdgeStyle;rounded=0;orthogonalLoop=1;jettySize=auto;html=1;exitX=0.5;exitY=1;exitDx=0;exitDy=0;entryX=0.5;entryY=0;entryDx=0;entryDy=0;" parent="1" source="MGUnxN-y1VWMcGxOPfXG-7" target="adHzRCtXYdIg2MAHcMbn-73" edge="1">
          <mxGeometry relative="1" as="geometry" />
        </mxCell>
        <mxCell id="MGUnxN-y1VWMcGxOPfXG-7" value="" style="rounded=0;whiteSpace=wrap;html=1;fillColor=#dae8fc;strokeColor=#6c8ebf;" parent="1" vertex="1">
          <mxGeometry x="1679.25" y="2681.5" width="280" height="280" as="geometry" />
        </mxCell>
        <mxCell id="MGUnxN-y1VWMcGxOPfXG-8" value="&lt;font size=&quot;1&quot;&gt;&lt;b style=&quot;font-size: 20px;&quot;&gt;все чилят&lt;/b&gt;&lt;/font&gt;" style="text;html=1;align=center;verticalAlign=middle;whiteSpace=wrap;rounded=0;" parent="1" vertex="1">
          <mxGeometry x="1679.25" y="2681.5" width="280" height="40" as="geometry" />
        </mxCell>
        <mxCell id="MGUnxN-y1VWMcGxOPfXG-9" value="" style="endArrow=none;html=1;rounded=0;exitX=0;exitY=1;exitDx=0;exitDy=0;" parent="1" source="MGUnxN-y1VWMcGxOPfXG-8" edge="1">
          <mxGeometry width="50" height="50" relative="1" as="geometry">
            <mxPoint x="1909.25" y="2861.5" as="sourcePoint" />
            <mxPoint x="1959.25" y="2721.5" as="targetPoint" />
          </mxGeometry>
        </mxCell>
        <mxCell id="MGUnxN-y1VWMcGxOPfXG-10" value="&lt;font style=&quot;font-size: 16px;&quot;&gt;100 улучшенных отношений с магистериумом и 25 за подарок&lt;/font&gt;" style="text;html=1;align=center;verticalAlign=middle;whiteSpace=wrap;rounded=0;" parent="1" vertex="1">
          <mxGeometry x="1679.25" y="2721.5" width="280" height="120" as="geometry" />
        </mxCell>
        <mxCell id="MGUnxN-y1VWMcGxOPfXG-11" value="&lt;font style=&quot;font-size: 16px;&quot;&gt;событие миримся с магами&lt;/font&gt;" style="text;html=1;align=center;verticalAlign=middle;whiteSpace=wrap;rounded=0;" parent="1" vertex="1">
          <mxGeometry x="1679.25" y="2841.5" width="280" height="110" as="geometry" />
        </mxCell>
        <mxCell id="MGUnxN-y1VWMcGxOPfXG-12" value="" style="endArrow=none;html=1;rounded=0;exitX=0;exitY=0;exitDx=0;exitDy=0;entryX=1;entryY=0;entryDx=0;entryDy=0;" parent="1" source="MGUnxN-y1VWMcGxOPfXG-11" target="MGUnxN-y1VWMcGxOPfXG-11" edge="1">
          <mxGeometry width="50" height="50" relative="1" as="geometry">
            <mxPoint x="1889.25" y="2891.5" as="sourcePoint" />
            <mxPoint x="1939.25" y="2841.5" as="targetPoint" />
          </mxGeometry>
        </mxCell>
        <mxCell id="MGUnxN-y1VWMcGxOPfXG-14" value="" style="rounded=0;whiteSpace=wrap;html=1;" parent="1" vertex="1">
          <mxGeometry x="2001" y="2680" width="320" height="40" as="geometry" />
        </mxCell>
        <mxCell id="MGUnxN-y1VWMcGxOPfXG-15" value="" style="rounded=0;whiteSpace=wrap;html=1;" parent="1" vertex="1">
          <mxGeometry x="2001" y="2720" width="320" height="240" as="geometry" />
        </mxCell>
        <mxCell id="MGUnxN-y1VWMcGxOPfXG-16" value="&lt;span style=&quot;font-size: 16px;&quot;&gt;миримся с магами&lt;/span&gt;" style="text;html=1;align=center;verticalAlign=middle;whiteSpace=wrap;rounded=0;" parent="1" vertex="1">
          <mxGeometry x="1999" y="2680" width="320" height="40" as="geometry" />
        </mxCell>
        <mxCell id="MGUnxN-y1VWMcGxOPfXG-17" value="&lt;span style=&quot;font-size: 16px;&quot;&gt;дарят книжку&lt;/span&gt;" style="text;html=1;align=center;verticalAlign=middle;whiteSpace=wrap;rounded=0;" parent="1" vertex="1">
          <mxGeometry x="2001" y="2720" width="320" height="240" as="geometry" />
        </mxCell>
        <mxCell id="adHzRCtXYdIg2MAHcMbn-18" style="edgeStyle=orthogonalEdgeStyle;rounded=0;orthogonalLoop=1;jettySize=auto;html=1;exitX=0.5;exitY=1;exitDx=0;exitDy=0;entryX=0.5;entryY=0;entryDx=0;entryDy=0;" parent="1" source="kTPqQOl_AH265QqrMBXn-7" target="9ghoXm-9nMgsTZUyEOmh-256" edge="1">
          <mxGeometry relative="1" as="geometry" />
        </mxCell>
        <mxCell id="kTPqQOl_AH265QqrMBXn-7" value="" style="rounded=0;whiteSpace=wrap;html=1;fillColor=#dae8fc;strokeColor=#6c8ebf;" parent="1" vertex="1">
          <mxGeometry x="1359.25" y="1080" width="280" height="280" as="geometry" />
        </mxCell>
        <mxCell id="kTPqQOl_AH265QqrMBXn-8" value="&lt;font size=&quot;1&quot;&gt;&lt;b style=&quot;font-size: 20px;&quot;&gt;Экономическая база&lt;/b&gt;&lt;/font&gt;" style="text;html=1;align=center;verticalAlign=middle;whiteSpace=wrap;rounded=0;" parent="1" vertex="1">
          <mxGeometry x="1359.25" y="1080" width="280" height="40" as="geometry" />
        </mxCell>
        <mxCell id="kTPqQOl_AH265QqrMBXn-9" value="" style="endArrow=none;html=1;rounded=0;exitX=0;exitY=1;exitDx=0;exitDy=0;" parent="1" source="kTPqQOl_AH265QqrMBXn-8" edge="1">
          <mxGeometry width="50" height="50" relative="1" as="geometry">
            <mxPoint x="1589.25" y="1260" as="sourcePoint" />
            <mxPoint x="1639.25" y="1120" as="targetPoint" />
          </mxGeometry>
        </mxCell>
        <mxCell id="kTPqQOl_AH265QqrMBXn-10" value="&lt;font style=&quot;font-size: 16px;&quot;&gt;война с монстром&lt;/font&gt;" style="text;html=1;align=center;verticalAlign=middle;whiteSpace=wrap;rounded=0;" parent="1" vertex="1">
          <mxGeometry x="1359.25" y="1090" width="280" height="120" as="geometry" />
        </mxCell>
        <mxCell id="kTPqQOl_AH265QqrMBXn-11" value="&lt;span style=&quot;font-size: 16px;&quot;&gt;+20 улучшения отношений&amp;nbsp;&lt;/span&gt;&lt;div&gt;&lt;span style=&quot;font-size: 16px;&quot;&gt;20 лет&lt;/span&gt;&lt;/div&gt;" style="text;html=1;align=center;verticalAlign=middle;whiteSpace=wrap;rounded=0;" parent="1" vertex="1">
          <mxGeometry x="1359.25" y="1240" width="280" height="110" as="geometry" />
        </mxCell>
        <mxCell id="kTPqQOl_AH265QqrMBXn-12" value="" style="endArrow=none;html=1;rounded=0;exitX=0;exitY=0;exitDx=0;exitDy=0;entryX=1;entryY=0;entryDx=0;entryDy=0;" parent="1" source="kTPqQOl_AH265QqrMBXn-11" target="kTPqQOl_AH265QqrMBXn-11" edge="1">
          <mxGeometry width="50" height="50" relative="1" as="geometry">
            <mxPoint x="1569.25" y="1290" as="sourcePoint" />
            <mxPoint x="1619.25" y="1240" as="targetPoint" />
          </mxGeometry>
        </mxCell>
        <mxCell id="XXMJY1mOGeVhRg8mNyeY-1" value="" style="rounded=0;whiteSpace=wrap;html=1;fillColor=#e1d5e7;strokeColor=#9673a6;" parent="1" vertex="1">
          <mxGeometry x="719.25" y="7000" width="280" height="280" as="geometry" />
        </mxCell>
        <mxCell id="XXMJY1mOGeVhRg8mNyeY-2" value="&lt;font size=&quot;1&quot;&gt;&lt;b style=&quot;font-size: 20px;&quot;&gt;Ресурсная база&lt;/b&gt;&lt;/font&gt;" style="text;html=1;align=center;verticalAlign=middle;whiteSpace=wrap;rounded=0;" parent="1" vertex="1">
          <mxGeometry x="719.25" y="7000" width="280" height="40" as="geometry" />
        </mxCell>
        <mxCell id="XXMJY1mOGeVhRg8mNyeY-3" value="" style="endArrow=none;html=1;rounded=0;exitX=0;exitY=1;exitDx=0;exitDy=0;" parent="1" source="XXMJY1mOGeVhRg8mNyeY-2" edge="1">
          <mxGeometry width="50" height="50" relative="1" as="geometry">
            <mxPoint x="949.25" y="7180" as="sourcePoint" />
            <mxPoint x="999.25" y="7040" as="targetPoint" />
          </mxGeometry>
        </mxCell>
        <mxCell id="XXMJY1mOGeVhRg8mNyeY-4" value="&lt;font style=&quot;font-size: 16px;&quot;&gt;300 дева&lt;/font&gt;&lt;div&gt;&lt;span style=&quot;font-size: 16px;&quot;&gt;20 провинций&lt;/span&gt;&lt;/div&gt;" style="text;html=1;align=center;verticalAlign=middle;whiteSpace=wrap;rounded=0;" parent="1" vertex="1">
          <mxGeometry x="719.25" y="7040" width="280" height="120" as="geometry" />
        </mxCell>
        <mxCell id="XXMJY1mOGeVhRg8mNyeY-5" value="&lt;font style=&quot;font-size: 16px;&quot;&gt;Text&lt;/font&gt;" style="text;html=1;align=center;verticalAlign=middle;whiteSpace=wrap;rounded=0;" parent="1" vertex="1">
          <mxGeometry x="719.25" y="7160" width="280" height="110" as="geometry" />
        </mxCell>
        <mxCell id="XXMJY1mOGeVhRg8mNyeY-6" value="" style="endArrow=none;html=1;rounded=0;exitX=0;exitY=0;exitDx=0;exitDy=0;entryX=1;entryY=0;entryDx=0;entryDy=0;" parent="1" source="XXMJY1mOGeVhRg8mNyeY-5" target="XXMJY1mOGeVhRg8mNyeY-5" edge="1">
          <mxGeometry width="50" height="50" relative="1" as="geometry">
            <mxPoint x="929.25" y="7210" as="sourcePoint" />
            <mxPoint x="979.25" y="7160" as="targetPoint" />
          </mxGeometry>
        </mxCell>
        <mxCell id="XXMJY1mOGeVhRg8mNyeY-7" value="" style="rounded=0;whiteSpace=wrap;html=1;fillColor=#d5e8d4;strokeColor=#82b366;" parent="1" vertex="1">
          <mxGeometry x="399.25" y="7000" width="280" height="280" as="geometry" />
        </mxCell>
        <mxCell id="XXMJY1mOGeVhRg8mNyeY-8" value="&lt;font size=&quot;1&quot;&gt;&lt;b style=&quot;font-size: 20px;&quot;&gt;Экономическая база&lt;/b&gt;&lt;/font&gt;" style="text;html=1;align=center;verticalAlign=middle;whiteSpace=wrap;rounded=0;" parent="1" vertex="1">
          <mxGeometry x="399.25" y="7000" width="280" height="40" as="geometry" />
        </mxCell>
        <mxCell id="XXMJY1mOGeVhRg8mNyeY-9" value="" style="endArrow=none;html=1;rounded=0;exitX=0;exitY=1;exitDx=0;exitDy=0;" parent="1" source="XXMJY1mOGeVhRg8mNyeY-8" edge="1">
          <mxGeometry width="50" height="50" relative="1" as="geometry">
            <mxPoint x="629.25" y="7180" as="sourcePoint" />
            <mxPoint x="679.25" y="7040" as="targetPoint" />
          </mxGeometry>
        </mxCell>
        <mxCell id="XXMJY1mOGeVhRg8mNyeY-10" value="&lt;font style=&quot;font-size: 16px;&quot;&gt;Иметь доход 20 монет&lt;/font&gt;" style="text;html=1;align=center;verticalAlign=middle;whiteSpace=wrap;rounded=0;" parent="1" vertex="1">
          <mxGeometry x="399.25" y="7040" width="280" height="120" as="geometry" />
        </mxCell>
        <mxCell id="XXMJY1mOGeVhRg8mNyeY-11" value="&lt;font style=&quot;font-size: 16px;&quot;&gt;Text&lt;/font&gt;" style="text;html=1;align=center;verticalAlign=middle;whiteSpace=wrap;rounded=0;" parent="1" vertex="1">
          <mxGeometry x="399.25" y="7160" width="280" height="110" as="geometry" />
        </mxCell>
        <mxCell id="XXMJY1mOGeVhRg8mNyeY-12" value="" style="endArrow=none;html=1;rounded=0;exitX=0;exitY=0;exitDx=0;exitDy=0;entryX=1;entryY=0;entryDx=0;entryDy=0;" parent="1" source="XXMJY1mOGeVhRg8mNyeY-11" target="XXMJY1mOGeVhRg8mNyeY-11" edge="1">
          <mxGeometry width="50" height="50" relative="1" as="geometry">
            <mxPoint x="609.25" y="7210" as="sourcePoint" />
            <mxPoint x="659.25" y="7160" as="targetPoint" />
          </mxGeometry>
        </mxCell>
        <mxCell id="XXMJY1mOGeVhRg8mNyeY-13" value="" style="rounded=0;whiteSpace=wrap;html=1;fillColor=#f8cecc;strokeColor=#b85450;" parent="1" vertex="1">
          <mxGeometry x="1039.25" y="7000" width="280" height="280" as="geometry" />
        </mxCell>
        <mxCell id="XXMJY1mOGeVhRg8mNyeY-14" value="&lt;font size=&quot;1&quot;&gt;&lt;b style=&quot;font-size: 20px;&quot;&gt;Экономическая база&lt;/b&gt;&lt;/font&gt;" style="text;html=1;align=center;verticalAlign=middle;whiteSpace=wrap;rounded=0;" parent="1" vertex="1">
          <mxGeometry x="1039.25" y="7000" width="280" height="40" as="geometry" />
        </mxCell>
        <mxCell id="XXMJY1mOGeVhRg8mNyeY-15" value="" style="endArrow=none;html=1;rounded=0;exitX=0;exitY=1;exitDx=0;exitDy=0;" parent="1" source="XXMJY1mOGeVhRg8mNyeY-14" edge="1">
          <mxGeometry width="50" height="50" relative="1" as="geometry">
            <mxPoint x="1269.25" y="7180" as="sourcePoint" />
            <mxPoint x="1319.25" y="7040" as="targetPoint" />
          </mxGeometry>
        </mxCell>
        <mxCell id="XXMJY1mOGeVhRg8mNyeY-16" value="&lt;font style=&quot;font-size: 16px;&quot;&gt;Text&lt;/font&gt;" style="text;html=1;align=center;verticalAlign=middle;whiteSpace=wrap;rounded=0;" parent="1" vertex="1">
          <mxGeometry x="1039.25" y="7040" width="280" height="120" as="geometry" />
        </mxCell>
        <mxCell id="XXMJY1mOGeVhRg8mNyeY-17" value="&lt;font style=&quot;font-size: 16px;&quot;&gt;Text&lt;/font&gt;" style="text;html=1;align=center;verticalAlign=middle;whiteSpace=wrap;rounded=0;" parent="1" vertex="1">
          <mxGeometry x="1039.25" y="7160" width="280" height="110" as="geometry" />
        </mxCell>
        <mxCell id="XXMJY1mOGeVhRg8mNyeY-18" value="" style="endArrow=none;html=1;rounded=0;exitX=0;exitY=0;exitDx=0;exitDy=0;entryX=1;entryY=0;entryDx=0;entryDy=0;" parent="1" source="XXMJY1mOGeVhRg8mNyeY-17" target="XXMJY1mOGeVhRg8mNyeY-17" edge="1">
          <mxGeometry width="50" height="50" relative="1" as="geometry">
            <mxPoint x="1249.25" y="7210" as="sourcePoint" />
            <mxPoint x="1299.25" y="7160" as="targetPoint" />
          </mxGeometry>
        </mxCell>
        <mxCell id="XXMJY1mOGeVhRg8mNyeY-19" value="" style="rounded=0;whiteSpace=wrap;html=1;fillColor=#f8cecc;strokeColor=#b85450;" parent="1" vertex="1">
          <mxGeometry x="1359.25" y="7000" width="280" height="280" as="geometry" />
        </mxCell>
        <mxCell id="XXMJY1mOGeVhRg8mNyeY-20" value="&lt;font size=&quot;1&quot;&gt;&lt;b style=&quot;font-size: 20px;&quot;&gt;Экономическая база&lt;/b&gt;&lt;/font&gt;" style="text;html=1;align=center;verticalAlign=middle;whiteSpace=wrap;rounded=0;" parent="1" vertex="1">
          <mxGeometry x="1359.25" y="7000" width="280" height="40" as="geometry" />
        </mxCell>
        <mxCell id="XXMJY1mOGeVhRg8mNyeY-21" value="" style="endArrow=none;html=1;rounded=0;exitX=0;exitY=1;exitDx=0;exitDy=0;" parent="1" source="XXMJY1mOGeVhRg8mNyeY-20" edge="1">
          <mxGeometry width="50" height="50" relative="1" as="geometry">
            <mxPoint x="1589.25" y="7180" as="sourcePoint" />
            <mxPoint x="1639.25" y="7040" as="targetPoint" />
          </mxGeometry>
        </mxCell>
        <mxCell id="XXMJY1mOGeVhRg8mNyeY-22" value="&lt;font style=&quot;font-size: 16px;&quot;&gt;Text&lt;/font&gt;" style="text;html=1;align=center;verticalAlign=middle;whiteSpace=wrap;rounded=0;" parent="1" vertex="1">
          <mxGeometry x="1359.25" y="7040" width="280" height="120" as="geometry" />
        </mxCell>
        <mxCell id="XXMJY1mOGeVhRg8mNyeY-23" value="&lt;font style=&quot;font-size: 16px;&quot;&gt;поднятие войск прямо из битв&lt;/font&gt;" style="text;html=1;align=center;verticalAlign=middle;whiteSpace=wrap;rounded=0;" parent="1" vertex="1">
          <mxGeometry x="1359.25" y="7160" width="280" height="110" as="geometry" />
        </mxCell>
        <mxCell id="XXMJY1mOGeVhRg8mNyeY-24" value="" style="endArrow=none;html=1;rounded=0;exitX=0;exitY=0;exitDx=0;exitDy=0;entryX=1;entryY=0;entryDx=0;entryDy=0;" parent="1" source="XXMJY1mOGeVhRg8mNyeY-23" target="XXMJY1mOGeVhRg8mNyeY-23" edge="1">
          <mxGeometry width="50" height="50" relative="1" as="geometry">
            <mxPoint x="1569.25" y="7210" as="sourcePoint" />
            <mxPoint x="1619.25" y="7160" as="targetPoint" />
          </mxGeometry>
        </mxCell>
        <mxCell id="XXMJY1mOGeVhRg8mNyeY-25" value="" style="rounded=0;whiteSpace=wrap;html=1;fillColor=#e1d5e7;strokeColor=#9673a6;" parent="1" vertex="1">
          <mxGeometry x="1679.25" y="7000" width="280" height="280" as="geometry" />
        </mxCell>
        <mxCell id="XXMJY1mOGeVhRg8mNyeY-26" value="&lt;font size=&quot;1&quot;&gt;&lt;b style=&quot;font-size: 20px;&quot;&gt;легализовать вампиров&lt;/b&gt;&lt;/font&gt;" style="text;html=1;align=center;verticalAlign=middle;whiteSpace=wrap;rounded=0;" parent="1" vertex="1">
          <mxGeometry x="1679.25" y="7000" width="280" height="40" as="geometry" />
        </mxCell>
        <mxCell id="XXMJY1mOGeVhRg8mNyeY-27" value="" style="endArrow=none;html=1;rounded=0;exitX=0;exitY=1;exitDx=0;exitDy=0;" parent="1" source="XXMJY1mOGeVhRg8mNyeY-26" edge="1">
          <mxGeometry width="50" height="50" relative="1" as="geometry">
            <mxPoint x="1909.25" y="7180" as="sourcePoint" />
            <mxPoint x="1959.25" y="7040" as="targetPoint" />
          </mxGeometry>
        </mxCell>
        <mxCell id="XXMJY1mOGeVhRg8mNyeY-28" value="&lt;font style=&quot;font-size: 16px;&quot;&gt;Text&lt;/font&gt;" style="text;html=1;align=center;verticalAlign=middle;whiteSpace=wrap;rounded=0;" parent="1" vertex="1">
          <mxGeometry x="1679.25" y="7040" width="280" height="120" as="geometry" />
        </mxCell>
        <mxCell id="XXMJY1mOGeVhRg8mNyeY-29" value="&lt;font style=&quot;font-size: 16px;&quot;&gt;Text&lt;/font&gt;" style="text;html=1;align=center;verticalAlign=middle;whiteSpace=wrap;rounded=0;" parent="1" vertex="1">
          <mxGeometry x="1679.25" y="7160" width="280" height="110" as="geometry" />
        </mxCell>
        <mxCell id="XXMJY1mOGeVhRg8mNyeY-30" value="" style="endArrow=none;html=1;rounded=0;exitX=0;exitY=0;exitDx=0;exitDy=0;entryX=1;entryY=0;entryDx=0;entryDy=0;" parent="1" source="XXMJY1mOGeVhRg8mNyeY-29" target="XXMJY1mOGeVhRg8mNyeY-29" edge="1">
          <mxGeometry width="50" height="50" relative="1" as="geometry">
            <mxPoint x="1889.25" y="7210" as="sourcePoint" />
            <mxPoint x="1939.25" y="7160" as="targetPoint" />
          </mxGeometry>
        </mxCell>
        <mxCell id="adHzRCtXYdIg2MAHcMbn-34" style="edgeStyle=orthogonalEdgeStyle;rounded=0;orthogonalLoop=1;jettySize=auto;html=1;exitX=0.5;exitY=1;exitDx=0;exitDy=0;entryX=0.5;entryY=0;entryDx=0;entryDy=0;" parent="1" source="adHzRCtXYdIg2MAHcMbn-19" target="0Ew-OyiPKJsIfG58_g5D-87" edge="1">
          <mxGeometry relative="1" as="geometry" />
        </mxCell>
        <mxCell id="adHzRCtXYdIg2MAHcMbn-19" value="" style="rounded=0;whiteSpace=wrap;html=1;fillColor=#dae8fc;strokeColor=#6c8ebf;" parent="1" vertex="1">
          <mxGeometry x="1679.25" y="1480" width="280" height="280" as="geometry" />
        </mxCell>
        <mxCell id="adHzRCtXYdIg2MAHcMbn-20" value="&lt;font size=&quot;1&quot;&gt;&lt;b style=&quot;font-size: 20px;&quot;&gt;Экономическая база&lt;/b&gt;&lt;/font&gt;" style="text;html=1;align=center;verticalAlign=middle;whiteSpace=wrap;rounded=0;" parent="1" vertex="1">
          <mxGeometry x="1679.25" y="1480" width="280" height="40" as="geometry" />
        </mxCell>
        <mxCell id="adHzRCtXYdIg2MAHcMbn-21" value="" style="endArrow=none;html=1;rounded=0;exitX=0;exitY=1;exitDx=0;exitDy=0;" parent="1" source="adHzRCtXYdIg2MAHcMbn-20" edge="1">
          <mxGeometry width="50" height="50" relative="1" as="geometry">
            <mxPoint x="1909.25" y="1660" as="sourcePoint" />
            <mxPoint x="1959.25" y="1520" as="targetPoint" />
          </mxGeometry>
        </mxCell>
        <mxCell id="adHzRCtXYdIg2MAHcMbn-22" value="&lt;font style=&quot;font-size: 16px;&quot;&gt;мир&lt;/font&gt;" style="text;html=1;align=center;verticalAlign=middle;whiteSpace=wrap;rounded=0;" parent="1" vertex="1">
          <mxGeometry x="1679.25" y="1490" width="280" height="120" as="geometry" />
        </mxCell>
        <mxCell id="adHzRCtXYdIg2MAHcMbn-23" value="&lt;font style=&quot;font-size: 16px;&quot;&gt;Событие: соседи недовольны&lt;/font&gt;" style="text;html=1;align=center;verticalAlign=middle;whiteSpace=wrap;rounded=0;" parent="1" vertex="1">
          <mxGeometry x="1679.25" y="1640" width="280" height="110" as="geometry" />
        </mxCell>
        <mxCell id="adHzRCtXYdIg2MAHcMbn-24" value="" style="endArrow=none;html=1;rounded=0;exitX=0;exitY=0;exitDx=0;exitDy=0;entryX=1;entryY=0;entryDx=0;entryDy=0;" parent="1" source="adHzRCtXYdIg2MAHcMbn-23" target="adHzRCtXYdIg2MAHcMbn-23" edge="1">
          <mxGeometry width="50" height="50" relative="1" as="geometry">
            <mxPoint x="1889.25" y="1690" as="sourcePoint" />
            <mxPoint x="1939.25" y="1640" as="targetPoint" />
          </mxGeometry>
        </mxCell>
        <mxCell id="adHzRCtXYdIg2MAHcMbn-40" style="edgeStyle=orthogonalEdgeStyle;rounded=0;orthogonalLoop=1;jettySize=auto;html=1;exitX=0.5;exitY=1;exitDx=0;exitDy=0;entryX=0;entryY=0;entryDx=0;entryDy=0;" parent="1" source="adHzRCtXYdIg2MAHcMbn-25" target="0Ew-OyiPKJsIfG58_g5D-243" edge="1">
          <mxGeometry relative="1" as="geometry">
            <Array as="points">
              <mxPoint x="541" y="4640" />
              <mxPoint x="1040" y="4640" />
            </Array>
          </mxGeometry>
        </mxCell>
        <mxCell id="adHzRCtXYdIg2MAHcMbn-25" value="" style="rounded=0;whiteSpace=wrap;html=1;fillColor=#d5e8d4;strokeColor=#82b366;" parent="1" vertex="1">
          <mxGeometry x="401" y="4281.5" width="280" height="280" as="geometry" />
        </mxCell>
        <mxCell id="adHzRCtXYdIg2MAHcMbn-26" value="&lt;font size=&quot;1&quot;&gt;&lt;b style=&quot;font-size: 20px;&quot;&gt;холодильник&lt;/b&gt;&lt;/font&gt;" style="text;html=1;align=center;verticalAlign=middle;whiteSpace=wrap;rounded=0;" parent="1" vertex="1">
          <mxGeometry x="401" y="4281.5" width="280" height="40" as="geometry" />
        </mxCell>
        <mxCell id="adHzRCtXYdIg2MAHcMbn-27" value="" style="endArrow=none;html=1;rounded=0;exitX=0;exitY=1;exitDx=0;exitDy=0;" parent="1" source="adHzRCtXYdIg2MAHcMbn-26" edge="1">
          <mxGeometry width="50" height="50" relative="1" as="geometry">
            <mxPoint x="631" y="4461.5" as="sourcePoint" />
            <mxPoint x="681" y="4321.5" as="targetPoint" />
          </mxGeometry>
        </mxCell>
        <mxCell id="adHzRCtXYdIg2MAHcMbn-28" value="&lt;span style=&quot;font-size: 16px;&quot;&gt;побазарить с кракдхумврором&lt;/span&gt;" style="text;html=1;align=center;verticalAlign=middle;whiteSpace=wrap;rounded=0;" parent="1" vertex="1">
          <mxGeometry x="401" y="4321.5" width="280" height="120" as="geometry" />
        </mxCell>
        <mxCell id="adHzRCtXYdIg2MAHcMbn-29" value="&lt;div&gt;&lt;span style=&quot;font-size: 16px;&quot;&gt;сбацали холодильник нереальный&lt;/span&gt;&lt;/div&gt;" style="text;html=1;align=center;verticalAlign=middle;whiteSpace=wrap;rounded=0;" parent="1" vertex="1">
          <mxGeometry x="401" y="4441.5" width="280" height="110" as="geometry" />
        </mxCell>
        <mxCell id="adHzRCtXYdIg2MAHcMbn-30" value="" style="endArrow=none;html=1;rounded=0;exitX=0;exitY=0;exitDx=0;exitDy=0;entryX=1;entryY=0;entryDx=0;entryDy=0;" parent="1" source="adHzRCtXYdIg2MAHcMbn-29" target="adHzRCtXYdIg2MAHcMbn-29" edge="1">
          <mxGeometry width="50" height="50" relative="1" as="geometry">
            <mxPoint x="611" y="4491.5" as="sourcePoint" />
            <mxPoint x="661" y="4441.5" as="targetPoint" />
          </mxGeometry>
        </mxCell>
        <mxCell id="adHzRCtXYdIg2MAHcMbn-41" style="edgeStyle=orthogonalEdgeStyle;rounded=0;orthogonalLoop=1;jettySize=auto;html=1;exitX=0.5;exitY=1;exitDx=0;exitDy=0;entryX=0.302;entryY=0.083;entryDx=0;entryDy=0;entryPerimeter=0;" parent="1" source="0Ew-OyiPKJsIfG58_g5D-133" target="0Ew-OyiPKJsIfG58_g5D-243" edge="1">
          <mxGeometry relative="1" as="geometry">
            <Array as="points">
              <mxPoint x="860" y="4600" />
              <mxPoint x="1124" y="4600" />
            </Array>
          </mxGeometry>
        </mxCell>
        <mxCell id="adHzRCtXYdIg2MAHcMbn-65" style="edgeStyle=orthogonalEdgeStyle;rounded=0;orthogonalLoop=1;jettySize=auto;html=1;exitX=0;exitY=1;exitDx=0;exitDy=0;entryX=0.5;entryY=0;entryDx=0;entryDy=0;" parent="1" source="adHzRCtXYdIg2MAHcMbn-43" target="0Ew-OyiPKJsIfG58_g5D-118" edge="1">
          <mxGeometry relative="1" as="geometry">
            <Array as="points">
              <mxPoint x="1039" y="3400" />
              <mxPoint x="860" y="3400" />
            </Array>
          </mxGeometry>
        </mxCell>
        <mxCell id="adHzRCtXYdIg2MAHcMbn-43" value="" style="rounded=0;whiteSpace=wrap;html=1;fillColor=#fff2cc;strokeColor=#d6b656;" parent="1" vertex="1">
          <mxGeometry x="1039.25" y="3080" width="280" height="280" as="geometry" />
        </mxCell>
        <mxCell id="adHzRCtXYdIg2MAHcMbn-44" value="&lt;span style=&quot;font-size: 20px;&quot;&gt;&lt;b&gt;Кладбища&lt;/b&gt;&lt;/span&gt;" style="text;html=1;align=center;verticalAlign=middle;whiteSpace=wrap;rounded=0;" parent="1" vertex="1">
          <mxGeometry x="1039.25" y="3080" width="280" height="40" as="geometry" />
        </mxCell>
        <mxCell id="adHzRCtXYdIg2MAHcMbn-45" value="" style="endArrow=none;html=1;rounded=0;exitX=0;exitY=1;exitDx=0;exitDy=0;" parent="1" source="adHzRCtXYdIg2MAHcMbn-44" edge="1">
          <mxGeometry width="50" height="50" relative="1" as="geometry">
            <mxPoint x="1269.25" y="3260" as="sourcePoint" />
            <mxPoint x="1319.25" y="3120" as="targetPoint" />
          </mxGeometry>
        </mxCell>
        <mxCell id="adHzRCtXYdIg2MAHcMbn-46" value="&lt;font style=&quot;font-size: 16px;&quot;&gt;хз&lt;/font&gt;" style="text;html=1;align=center;verticalAlign=middle;whiteSpace=wrap;rounded=0;" parent="1" vertex="1">
          <mxGeometry x="1039.25" y="3120" width="280" height="120" as="geometry" />
        </mxCell>
        <mxCell id="adHzRCtXYdIg2MAHcMbn-63" style="edgeStyle=orthogonalEdgeStyle;rounded=0;orthogonalLoop=1;jettySize=auto;html=1;exitX=0.5;exitY=1;exitDx=0;exitDy=0;" parent="1" source="adHzRCtXYdIg2MAHcMbn-47" edge="1">
          <mxGeometry relative="1" as="geometry">
            <mxPoint x="1179.545454545454" y="3480" as="targetPoint" />
          </mxGeometry>
        </mxCell>
        <mxCell id="adHzRCtXYdIg2MAHcMbn-47" value="&lt;div&gt;&lt;span style=&quot;font-size: 16px;&quot;&gt;строим кладбища&lt;/span&gt;&lt;/div&gt;" style="text;html=1;align=center;verticalAlign=middle;whiteSpace=wrap;rounded=0;" parent="1" vertex="1">
          <mxGeometry x="1039.25" y="3240" width="280" height="110" as="geometry" />
        </mxCell>
        <mxCell id="adHzRCtXYdIg2MAHcMbn-48" value="" style="endArrow=none;html=1;rounded=0;exitX=0;exitY=0;exitDx=0;exitDy=0;entryX=1;entryY=0;entryDx=0;entryDy=0;" parent="1" source="adHzRCtXYdIg2MAHcMbn-47" target="adHzRCtXYdIg2MAHcMbn-47" edge="1">
          <mxGeometry width="50" height="50" relative="1" as="geometry">
            <mxPoint x="1249.25" y="3290" as="sourcePoint" />
            <mxPoint x="1299.25" y="3240" as="targetPoint" />
          </mxGeometry>
        </mxCell>
        <mxCell id="adHzRCtXYdIg2MAHcMbn-50" value="" style="rounded=0;whiteSpace=wrap;html=1;fillColor=#fff2cc;strokeColor=#d6b656;" parent="1" vertex="1">
          <mxGeometry x="1040" y="3481" width="280" height="280" as="geometry" />
        </mxCell>
        <mxCell id="adHzRCtXYdIg2MAHcMbn-51" value="&lt;span style=&quot;font-size: 20px;&quot;&gt;&lt;b&gt;Кладбища2&lt;/b&gt;&lt;/span&gt;" style="text;html=1;align=center;verticalAlign=middle;whiteSpace=wrap;rounded=0;" parent="1" vertex="1">
          <mxGeometry x="1040" y="3481" width="280" height="40" as="geometry" />
        </mxCell>
        <mxCell id="adHzRCtXYdIg2MAHcMbn-52" value="" style="endArrow=none;html=1;rounded=0;exitX=0;exitY=1;exitDx=0;exitDy=0;" parent="1" source="adHzRCtXYdIg2MAHcMbn-51" edge="1">
          <mxGeometry width="50" height="50" relative="1" as="geometry">
            <mxPoint x="1270" y="3661" as="sourcePoint" />
            <mxPoint x="1320" y="3521" as="targetPoint" />
          </mxGeometry>
        </mxCell>
        <mxCell id="adHzRCtXYdIg2MAHcMbn-53" value="&lt;span style=&quot;font-size: 16px;&quot;&gt;строим кладбища&lt;/span&gt;" style="text;html=1;align=center;verticalAlign=middle;whiteSpace=wrap;rounded=0;" parent="1" vertex="1">
          <mxGeometry x="1040" y="3521" width="280" height="120" as="geometry" />
        </mxCell>
        <mxCell id="adHzRCtXYdIg2MAHcMbn-62" style="edgeStyle=orthogonalEdgeStyle;rounded=0;orthogonalLoop=1;jettySize=auto;html=1;exitX=0.5;exitY=1;exitDx=0;exitDy=0;" parent="1" source="adHzRCtXYdIg2MAHcMbn-54" target="0Ew-OyiPKJsIfG58_g5D-197" edge="1">
          <mxGeometry relative="1" as="geometry" />
        </mxCell>
        <mxCell id="adHzRCtXYdIg2MAHcMbn-54" value="&lt;div&gt;&lt;span style=&quot;font-size: 16px;&quot;&gt;хз&lt;/span&gt;&lt;/div&gt;" style="text;html=1;align=center;verticalAlign=middle;whiteSpace=wrap;rounded=0;" parent="1" vertex="1">
          <mxGeometry x="1040" y="3641" width="280" height="110" as="geometry" />
        </mxCell>
        <mxCell id="adHzRCtXYdIg2MAHcMbn-55" value="" style="endArrow=none;html=1;rounded=0;exitX=0;exitY=0;exitDx=0;exitDy=0;entryX=1;entryY=0;entryDx=0;entryDy=0;" parent="1" source="adHzRCtXYdIg2MAHcMbn-54" target="adHzRCtXYdIg2MAHcMbn-54" edge="1">
          <mxGeometry width="50" height="50" relative="1" as="geometry">
            <mxPoint x="1250" y="3691" as="sourcePoint" />
            <mxPoint x="1300" y="3641" as="targetPoint" />
          </mxGeometry>
        </mxCell>
        <mxCell id="adHzRCtXYdIg2MAHcMbn-79" style="edgeStyle=orthogonalEdgeStyle;rounded=0;orthogonalLoop=1;jettySize=auto;html=1;exitX=0.5;exitY=1;exitDx=0;exitDy=0;entryX=1;entryY=0;entryDx=0;entryDy=0;" parent="1" source="adHzRCtXYdIg2MAHcMbn-72" target="0Ew-OyiPKJsIfG58_g5D-243" edge="1">
          <mxGeometry relative="1" as="geometry">
            <Array as="points">
              <mxPoint x="1819" y="4640" />
              <mxPoint x="1319" y="4640" />
            </Array>
          </mxGeometry>
        </mxCell>
        <mxCell id="adHzRCtXYdIg2MAHcMbn-72" value="" style="rounded=0;whiteSpace=wrap;html=1;fillColor=#dae8fc;strokeColor=#6c8ebf;" parent="1" vertex="1">
          <mxGeometry x="1679.25" y="4281.5" width="280" height="280" as="geometry" />
        </mxCell>
        <mxCell id="adHzRCtXYdIg2MAHcMbn-73" value="&lt;font size=&quot;1&quot;&gt;&lt;b style=&quot;font-size: 20px;&quot;&gt;объеденители эскана&lt;/b&gt;&lt;/font&gt;" style="text;html=1;align=center;verticalAlign=middle;whiteSpace=wrap;rounded=0;" parent="1" vertex="1">
          <mxGeometry x="1679.25" y="4281.5" width="280" height="40" as="geometry" />
        </mxCell>
        <mxCell id="adHzRCtXYdIg2MAHcMbn-74" value="" style="endArrow=none;html=1;rounded=0;exitX=0;exitY=1;exitDx=0;exitDy=0;" parent="1" source="adHzRCtXYdIg2MAHcMbn-73" edge="1">
          <mxGeometry width="50" height="50" relative="1" as="geometry">
            <mxPoint x="1909.25" y="4461.5" as="sourcePoint" />
            <mxPoint x="1959.25" y="4321.5" as="targetPoint" />
          </mxGeometry>
        </mxCell>
        <mxCell id="adHzRCtXYdIg2MAHcMbn-75" value="&lt;font style=&quot;font-size: 16px;&quot;&gt;120 пров в эскане&lt;/font&gt;" style="text;html=1;align=center;verticalAlign=middle;whiteSpace=wrap;rounded=0;" parent="1" vertex="1">
          <mxGeometry x="1679.25" y="4321.5" width="280" height="120" as="geometry" />
        </mxCell>
        <mxCell id="adHzRCtXYdIg2MAHcMbn-76" value="&lt;font style=&quot;font-size: 16px;&quot;&gt;ивент хз)))0)&lt;/font&gt;" style="text;html=1;align=center;verticalAlign=middle;whiteSpace=wrap;rounded=0;" parent="1" vertex="1">
          <mxGeometry x="1679.25" y="4441.5" width="280" height="110" as="geometry" />
        </mxCell>
        <mxCell id="adHzRCtXYdIg2MAHcMbn-77" value="" style="endArrow=none;html=1;rounded=0;exitX=0;exitY=0;exitDx=0;exitDy=0;entryX=1;entryY=0;entryDx=0;entryDy=0;" parent="1" source="adHzRCtXYdIg2MAHcMbn-76" target="adHzRCtXYdIg2MAHcMbn-76" edge="1">
          <mxGeometry width="50" height="50" relative="1" as="geometry">
            <mxPoint x="1889.25" y="4491.5" as="sourcePoint" />
            <mxPoint x="1939.25" y="4441.5" as="targetPoint" />
          </mxGeometry>
        </mxCell>
        <mxCell id="iphwIeOrnClIcom6qrQQ-1" value="" style="rounded=0;whiteSpace=wrap;html=1;fillColor=#d5e8d4;strokeColor=#82b366;" parent="1" vertex="1">
          <mxGeometry x="720" y="2280" width="280" height="280" as="geometry" />
        </mxCell>
        <mxCell id="iphwIeOrnClIcom6qrQQ-2" value="&lt;font size=&quot;1&quot;&gt;&lt;b style=&quot;font-size: 20px;&quot;&gt;маленький холодильник&lt;/b&gt;&lt;/font&gt;" style="text;html=1;align=center;verticalAlign=middle;whiteSpace=wrap;rounded=0;" parent="1" vertex="1">
          <mxGeometry x="720" y="2280" width="280" height="40" as="geometry" />
        </mxCell>
        <mxCell id="iphwIeOrnClIcom6qrQQ-3" value="" style="endArrow=none;html=1;rounded=0;exitX=0;exitY=1;exitDx=0;exitDy=0;" parent="1" source="iphwIeOrnClIcom6qrQQ-2" edge="1">
          <mxGeometry width="50" height="50" relative="1" as="geometry">
            <mxPoint x="950" y="2460" as="sourcePoint" />
            <mxPoint x="1000" y="2320" as="targetPoint" />
          </mxGeometry>
        </mxCell>
        <mxCell id="iphwIeOrnClIcom6qrQQ-4" value="&lt;span style=&quot;font-size: 16px;&quot;&gt;влияние магов&lt;/span&gt;" style="text;html=1;align=center;verticalAlign=middle;whiteSpace=wrap;rounded=0;" parent="1" vertex="1">
          <mxGeometry x="720" y="2320" width="280" height="120" as="geometry" />
        </mxCell>
        <mxCell id="iphwIeOrnClIcom6qrQQ-5" value="&lt;span style=&quot;font-size: 16px;&quot;&gt;хз&lt;/span&gt;" style="text;html=1;align=center;verticalAlign=middle;whiteSpace=wrap;rounded=0;" parent="1" vertex="1">
          <mxGeometry x="720" y="2440" width="280" height="110" as="geometry" />
        </mxCell>
        <mxCell id="iphwIeOrnClIcom6qrQQ-6" value="" style="endArrow=none;html=1;rounded=0;exitX=0;exitY=0;exitDx=0;exitDy=0;entryX=1;entryY=0;entryDx=0;entryDy=0;" parent="1" source="iphwIeOrnClIcom6qrQQ-5" target="iphwIeOrnClIcom6qrQQ-5" edge="1">
          <mxGeometry width="50" height="50" relative="1" as="geometry">
            <mxPoint x="930" y="2490" as="sourcePoint" />
            <mxPoint x="980" y="2440" as="targetPoint" />
          </mxGeometry>
        </mxCell>
        <mxCell id="iphwIeOrnClIcom6qrQQ-9" style="edgeStyle=orthogonalEdgeStyle;rounded=0;orthogonalLoop=1;jettySize=auto;html=1;exitX=0.5;exitY=1;exitDx=0;exitDy=0;entryX=0.52;entryY=0.02;entryDx=0;entryDy=0;entryPerimeter=0;" parent="1" source="iphwIeOrnClIcom6qrQQ-1" target="0Ew-OyiPKJsIfG58_g5D-165" edge="1">
          <mxGeometry relative="1" as="geometry" />
        </mxCell>
      </root>
    </mxGraphModel>
  </diagram>
</mxfile>
